<svg width="182" height="60" viewBox="0 0 182 60" fill="none" xmlns="http://www.w3.org/2000/svg">
<g clip-path="url(#clip0_112_1875)">
<path d="M41.7413 57.5901C39.9346 57.4552 38.3124 57.9254 36.8746 58.9356C36.1659 59.4329 35.4459 59.7726 34.5909 59.8806C33.5559 60.0134 32.5727 59.8334 31.6187 59.4599C30.8267 59.1494 30.1 59.1246 29.4632 59.7839C29.2157 60.0404 28.9255 60.0539 28.633 59.8784C28.4238 59.7546 28.2168 59.6151 28.0323 59.4554C27.5418 59.0256 27.0108 58.8906 26.3875 59.1426C26.122 59.2506 25.8318 59.3024 25.5573 59.3946C25.0195 59.5769 24.5313 59.4306 24.0611 59.1741C23.8833 59.0774 23.7146 58.9626 23.5503 58.8479C22.8236 58.3416 22.0181 58.2921 21.1788 58.4226C20.2856 58.5644 19.6174 58.2381 19.1966 57.4417C19.0684 57.1987 18.9289 56.9512 18.8704 56.6879C18.6994 55.9094 18.1954 55.4032 17.5271 55.0792C16.0062 54.3457 14.4964 53.5604 12.9192 52.971C9.83223 51.8167 7.42251 49.8795 5.68103 47.103C5.23104 46.383 4.87779 45.6023 4.43905 44.8756C4.23205 44.5336 3.94631 44.2321 3.66056 43.9463C3.12282 43.4086 2.85282 42.7583 2.77632 42.0158C2.68857 41.1789 2.46132 40.4206 1.81108 39.8086C1.23059 39.2596 1.21934 38.4946 1.55908 37.8736C2.02258 37.0299 2.10583 36.3054 1.68733 35.4032C1.18334 34.3142 1.16084 33.1037 1.20359 31.909C1.21259 31.6345 1.19234 31.3577 1.21484 31.0855C1.30034 30.0505 1.07984 29.0988 0.618596 28.1583C0.31935 27.5463 0.150602 26.8488 0.0381034 26.1693C-0.126145 25.1748 0.200101 24.2861 0.861593 23.5256C1.25984 23.0666 1.65808 22.6098 2.05633 22.1508C2.49507 21.6423 2.74707 21.0596 2.77407 20.3779C2.81007 19.4981 3.03282 18.6431 3.46256 17.8894C3.95081 17.0299 4.15555 16.1209 4.21855 15.1624C4.24105 14.8137 4.37605 14.6134 4.69105 14.4672C5.21304 14.2264 5.56404 13.8597 5.66753 13.2387C5.81153 12.3612 6.32678 11.6705 6.99277 11.1057C8.22575 10.0572 9.46999 9.02226 10.721 7.99627C11.1552 7.64077 11.6142 7.30553 12.0935 7.01078C12.9147 6.50904 13.4344 5.8183 13.5019 4.85081C13.5514 4.13982 14.0509 3.78207 14.8677 3.98232C15.1062 4.04082 15.3402 4.12182 15.5809 4.16907C16.0849 4.26807 16.5326 4.16907 16.8634 3.74157C17.7341 2.61659 18.9379 2.11259 20.3014 1.93485C21.1451 1.8246 21.9956 1.7571 22.8438 1.66485C23.7956 1.56135 24.5605 1.08211 25.222 0.427365C25.618 0.0381195 26.086 -0.078879 26.5765 0.083119C27.0918 0.254117 27.6093 0.472364 28.057 0.77161C28.8287 1.28685 29.614 1.54785 30.4892 1.12036C30.7322 1.00111 30.9617 0.76936 31.0967 0.533113C31.4567 -0.0946288 32.017 -0.123878 32.5952 0.146118C33.1442 0.402615 33.6977 0.609612 34.3052 0.528613C35.8262 0.326116 37.2099 0.77386 38.6026 1.3116C39.6489 1.7166 40.7446 2.00684 41.8336 2.29034C42.5896 2.48609 43.2623 2.77634 43.8833 3.27133C44.2636 3.57508 44.7676 3.76407 45.2445 3.89457C46.3155 4.18932 47.2043 4.65956 47.625 5.7733C47.6745 5.90155 47.9738 6.00055 48.1583 6.00055C48.777 6.00055 49.3665 6.06804 49.8907 6.43704C50.2102 6.66204 50.3857 6.95678 50.3722 7.35503C50.3407 8.27977 50.7795 8.97276 51.5647 9.3665C52.4535 9.812 53.0339 10.5072 53.5199 11.3285C54.0397 12.2082 54.7057 12.9305 55.5269 13.5649C56.0557 13.9744 56.4292 14.6494 56.7329 15.2727C57.5069 16.8747 57.6441 18.6724 58.1774 20.3464C58.6094 21.7031 59.1269 23.0531 59.7839 24.3153C60.5151 25.7215 60.7986 27.112 60.4251 28.6578C60.2699 29.299 60.2226 29.9717 60.1889 30.6355C60.1034 32.2802 60.1821 33.9452 59.9571 35.5697C59.7209 37.2797 59.3271 38.9896 58.7759 40.6254C58.2674 42.1328 57.4956 43.5571 56.7712 44.9836C56.3549 45.8025 55.7137 46.4483 54.8722 46.8893C54.5752 47.0445 54.2917 47.3348 54.1319 47.6318C53.1622 49.4543 52.0755 51.1822 50.5387 52.5952C49.065 53.9519 47.3865 54.9442 45.4515 55.4549C44.835 55.6169 44.3896 55.9319 44.1421 56.4832C43.7618 57.3337 43.1183 57.6531 42.2296 57.5834C42.0563 57.5789 41.8808 57.5901 41.7413 57.5901ZM51.8505 28.4553C51.8077 28.4553 51.7672 28.453 51.7245 28.453C51.9315 26.5608 51.3982 24.8531 50.5387 23.1971C49.9335 22.0338 49.4677 20.7986 48.9277 19.6016C48.7568 19.2214 48.6128 18.7984 48.3428 18.4991C47.3955 17.4484 46.4168 16.4224 45.4155 15.4212C44.2861 14.2894 42.9991 13.3445 41.6153 12.5592C40.8211 12.1092 39.9301 11.8145 39.0639 11.5085C38.0851 11.162 37.0749 10.91 36.0984 10.5657C35.2029 10.2507 34.3569 9.758 33.4434 9.5375C32.1362 9.2225 30.7952 9.39575 29.479 9.62075C28.0143 9.8705 26.5563 10.163 25.087 10.3902C23.7821 10.5905 22.5648 10.955 21.4736 11.747C20.8346 12.2105 20.1236 12.5907 19.4014 12.9192C18.4721 13.3422 17.5564 13.7494 16.9129 14.5887C16.7374 14.8182 16.5619 15.0612 16.3392 15.2389C15.6394 15.7947 14.9487 16.3662 14.1994 16.8454C13.3917 17.3607 12.8764 18.0109 12.7369 18.9761C12.6807 19.3699 12.5457 19.7681 12.3657 20.1259C11.4882 21.8718 10.6467 23.6336 10.2507 25.5618C10.028 26.6485 9.82773 27.7488 9.73548 28.8535C9.64548 29.9155 9.79623 30.9977 9.68148 32.0552C9.46549 34.0554 10.1877 35.7654 11.117 37.4417C11.4522 38.0469 11.909 38.6206 12.0867 39.2686C12.3882 40.3846 12.7977 41.4196 13.4502 42.3781C14.3547 43.7123 15.2727 45.0151 16.6609 45.9083C17.0951 46.1873 17.5114 46.518 17.8646 46.8915C18.3686 47.4203 18.9379 47.7938 19.6331 48.0165C20.8526 48.4058 21.9821 48.9705 23.0171 49.7422C23.4491 50.064 23.9643 50.3317 24.4818 50.4667C26.3965 50.9685 28.3608 51.0585 30.3317 50.9775C31.6165 50.9235 32.8989 50.802 34.1837 50.7502C35.6124 50.6917 36.9849 50.4667 38.2854 49.8075C39.3271 49.2788 40.4274 48.867 41.5028 48.4058C42.6413 47.9153 43.6223 47.2448 44.2838 46.1513C44.9678 45.0218 45.7485 43.9508 46.7723 43.1071C48.2213 41.9123 48.957 40.3419 49.3327 38.5531C49.596 37.3022 50.0032 36.1119 50.667 35.0049C50.982 34.4784 51.2812 33.8844 51.3645 33.2905C51.5895 31.6817 51.6952 30.0662 51.8505 28.4553ZM10.8807 38.6836C10.91 38.7219 10.9415 38.7579 10.9707 38.7961C10.8312 38.9424 10.712 39.1224 10.5477 39.2304C10.226 39.4396 10.2102 39.6511 10.4375 39.9414C11.0855 40.7739 11.7087 41.6221 12.1025 42.6188C12.2172 42.9091 12.4085 43.1791 12.6132 43.4198C13.4817 44.4436 14.3322 45.4853 15.2569 46.4573C16.2447 47.4945 17.3089 48.4553 18.6409 49.0605C19.4689 49.4385 20.2901 49.8322 21.1136 50.2237C21.9483 50.622 22.7673 51.0585 23.6133 51.4275C24.9543 52.0102 26.401 52.134 27.8275 52.3702C29.596 52.6627 31.342 52.521 33.0924 52.287C33.2004 52.2735 33.3467 52.179 33.3849 52.0867C33.5604 51.657 33.2657 51.2452 32.8022 51.2565C32.4265 51.2655 32.053 51.3015 31.6772 51.3217C30.6242 51.3757 29.5712 51.4725 28.5205 51.468C27.7443 51.4635 26.968 51.333 26.1918 51.2497C24.8845 51.108 23.6223 50.8402 22.5626 49.9785C21.7571 49.3215 20.8346 48.8738 19.8424 48.5745C18.9379 48.3023 18.1594 47.8478 17.4799 47.1795C17.0299 46.7385 16.4966 46.3808 15.9994 45.9848C15.7632 45.7958 15.5112 45.6226 15.2974 45.4133C14.1387 44.2816 13.2792 42.9248 12.4287 41.5636C12.2487 41.2756 12.1205 40.9426 12.0237 40.6141C11.7627 39.7299 11.5715 38.8186 10.9842 38.0671C10.163 37.0164 9.82098 35.7519 9.41824 34.5167C9.30349 34.1634 9.20449 33.7832 9.20899 33.4165C9.23599 31.4252 9.11224 29.4295 9.42949 27.4428C9.73773 25.5168 10.2102 23.6516 11.0337 21.8808C11.3937 21.1091 11.765 20.3419 12.1115 19.5634C12.2285 19.3024 12.3252 19.0166 12.359 18.7354C12.4984 17.5429 13.2522 16.8342 14.2309 16.2942C15.0364 15.8509 15.7699 15.3244 16.3279 14.5774C17.0591 13.5942 18.0559 12.9845 19.1696 12.5187C19.7276 12.287 20.2969 12.0282 20.7761 11.6682C22.1846 10.613 23.7506 10.046 25.4943 9.893C26.1693 9.83225 26.833 9.6635 27.5013 9.53975C27.7105 9.5015 27.8658 9.40025 27.7668 9.15275C27.6858 8.95026 27.7465 8.63526 27.337 8.69601C26.5383 8.81526 25.7238 8.85351 24.9318 9.00201C24.1713 9.14376 23.4018 9.3125 22.6886 9.6005C21.6761 10.01 20.7311 10.5905 19.7186 11.0045C18.4519 11.5197 17.2931 12.1475 16.4269 13.2432C16.1974 13.5357 15.9027 13.7832 15.6192 14.0284C14.2737 15.1939 12.9799 16.4112 11.8865 17.8286C10.9572 19.0301 10.208 20.3104 9.83223 21.8043C9.53524 22.9766 9.21349 24.1511 8.79049 25.2828C8.50475 26.05 8.38775 26.8038 8.399 27.607C8.41025 28.3855 8.40575 29.173 8.32025 29.9447C8.1785 31.2137 8.30675 32.449 8.579 33.6887C8.8085 34.7462 8.94799 35.8217 9.15499 36.8837C9.26524 37.4484 9.39349 38.0131 9.58024 38.5554C9.77598 39.1224 9.95373 39.1606 10.4825 38.8749C10.6107 38.8051 10.748 38.7466 10.8807 38.6836ZM33.6572 51.2677C33.8124 52.0597 33.9452 52.242 34.3592 52.2397C35.6889 52.2375 36.9804 52.0395 38.1864 51.4432C39.7389 50.6737 41.2958 49.9087 42.8438 49.128C44.1466 48.4688 45.321 47.6385 46.194 46.4438C46.671 45.7913 47.0985 45.1028 47.5733 44.4503C48.21 43.5751 48.9547 42.7673 49.5015 41.8403C50.2642 40.5511 50.9572 39.2101 51.5467 37.8354C51.9585 36.8769 52.1992 35.8329 52.4197 34.8047C52.6402 33.7787 52.7122 32.7235 52.9035 31.6907C53.1307 30.469 53.4704 29.263 53.2229 28.003C53.0542 27.139 52.8922 26.2728 52.6875 25.4178C52.413 24.2816 52.1677 23.1296 51.7875 22.0271C51.2362 20.4364 50.3722 18.9941 49.4452 17.5924C48.4733 16.1232 47.4045 14.7484 45.807 13.8912C45.5798 13.7697 45.3818 13.5087 45.1545 13.4862C44.9093 13.4637 44.6438 13.6459 44.3873 13.7382C44.4346 13.8439 44.4548 13.9767 44.5291 14.0509C45.7553 15.2547 47.0018 16.4404 48.2145 17.6554C48.7477 18.1886 49.1325 18.8231 49.4002 19.5476C49.7602 20.5196 50.2057 21.4624 50.649 22.4006C51.2295 23.6291 51.8752 24.8328 52.0912 26.194C52.3702 27.9513 52.242 29.7062 52.0552 31.4657C51.9112 32.8247 51.738 34.1634 50.991 35.3537C50.3362 36.3977 49.965 37.5451 49.74 38.7489C49.4227 40.4454 48.687 41.9528 47.4 43.1048C46.3628 44.0341 45.4853 45.0713 44.7608 46.2435C43.9486 47.5553 42.7831 48.3878 41.3588 48.9323C40.3621 49.3125 39.3991 49.7895 38.4271 50.2305C37.4596 50.6692 36.4742 51.018 35.4009 51.0855C34.8272 51.1237 34.2579 51.2047 33.6572 51.2677ZM5.63828 30.8987C5.67203 31.324 5.69228 31.9607 5.77553 32.5907C5.96453 34.0082 6.23228 35.4167 6.37628 36.8387C6.49102 37.9591 6.81052 38.9784 7.39101 39.9369C7.97601 40.8999 8.45525 41.9258 9.29674 42.7156C10.082 43.4513 10.5882 44.3693 10.9842 45.3615C11.1485 45.7733 11.342 46.203 11.6345 46.5248C12.6514 47.6498 13.6932 48.7545 14.7709 49.8187C15.3672 50.4082 16.0827 50.847 16.8724 51.171C17.4034 51.3892 17.9321 51.6615 18.3821 52.0125C19.2101 52.6582 20.0876 53.1195 21.1406 53.2725C22.5041 53.4704 23.8271 53.8259 25.0443 54.5144C26.1535 55.1422 27.3618 55.3987 28.633 55.3357C29.6005 55.2862 30.5657 55.2322 31.531 55.1444C32.1767 55.0859 32.818 54.9734 33.4592 54.8744C33.7157 54.8339 33.8237 54.6494 33.6977 54.4357C33.6279 54.3164 33.4299 54.2174 33.2837 54.2084C33.0744 54.1949 32.8607 54.2917 32.6469 54.3097C31.2947 54.4199 29.9402 54.5774 28.5858 54.6089C27.6115 54.6314 26.635 54.5302 25.7193 54.0712C24.4683 53.4435 23.2061 52.854 21.7751 52.6942C20.9493 52.602 20.1394 52.359 19.4126 51.8887C18.6296 51.3802 17.8061 50.9347 17.0029 50.4577C16.6316 50.2372 16.2267 50.0527 15.9094 49.7692C14.9622 48.9233 14.0284 48.0593 13.1374 47.157C12.3657 46.3763 11.72 45.5056 11.3037 44.4548C11.045 43.8001 10.64 43.1498 10.145 42.6503C8.94574 41.4421 8.12225 39.9909 7.50576 38.4609C7.08952 37.4259 7.01752 36.2447 6.84877 35.1219C6.68452 34.0397 6.52252 32.9462 6.48877 31.855C6.44602 30.4577 6.45277 29.0493 6.58327 27.661C6.74527 25.9488 7.14577 24.2703 7.72626 22.6413C7.76451 22.5333 7.67901 22.2723 7.61826 22.2611C7.46076 22.2296 7.26276 22.2633 7.11877 22.3421C7.02652 22.3916 6.98602 22.5581 6.94552 22.6818C6.08378 25.2738 5.71928 27.9558 5.63828 30.8987ZM32.0575 56.3864C32.0575 56.4134 32.0575 56.4404 32.0597 56.4674C32.5907 56.4134 33.1239 56.3617 33.6549 56.3009C34.0059 56.2627 33.9609 56.0017 33.9137 55.7744C33.8754 55.5899 33.9519 55.2997 33.5874 55.3357C32.2375 55.4684 30.8875 55.6012 29.5352 55.7249C28.1673 55.8487 26.797 55.8554 25.546 55.2142C23.9081 54.3727 22.1801 53.8619 20.3756 53.5335C19.7996 53.4277 19.2529 53.097 18.7241 52.8112C17.9411 52.386 17.1874 51.9067 16.4179 51.4545C16.0939 51.2655 15.7452 51.1147 15.4414 50.8987C14.1859 50.0055 13.1509 48.8738 12.1002 47.76C11.2632 46.8735 10.676 45.8498 10.1922 44.7361C9.96048 44.2028 9.62298 43.6741 9.20899 43.2713C8.282 42.3668 7.60926 41.3049 7.02652 40.1731C6.78127 39.6984 6.45277 39.2349 6.34703 38.7286C5.98028 36.9782 5.60004 35.2209 5.40654 33.4479C5.24004 31.9202 5.23779 30.361 5.31654 28.822C5.38179 27.5328 5.62928 26.2458 5.87228 24.9723C6.03878 24.1106 6.32903 23.2713 6.58327 22.4276C6.67552 22.1261 6.56977 21.9753 6.29078 21.9326C6.03203 21.8921 5.69453 21.5816 5.55504 22.0901C5.45604 22.4523 5.35254 22.8146 5.29854 23.1858C5.03304 25.0443 4.77429 26.905 4.53805 28.768C4.50655 29.0088 4.6213 29.2653 4.65955 29.515C4.6753 29.6207 4.68205 29.731 4.6618 29.8345C4.61905 30.055 4.4953 30.2755 4.51555 30.487C4.5988 31.3915 4.6978 32.296 4.83504 33.1937C5.08704 34.8182 5.34804 36.4449 5.64728 38.0604C5.88353 39.3361 6.27953 40.5489 7.37076 41.3949C7.43151 41.4421 7.44276 41.5658 7.45626 41.6558C7.47201 41.7661 7.43376 41.8966 7.47651 41.9933C7.82976 42.7696 8.1245 43.5841 8.57675 44.2996C9.01999 44.9993 9.65448 45.5753 10.1517 46.2458C11.2857 47.7735 12.5682 49.1438 14.0374 50.3632C16.6541 52.5345 19.5769 54.1184 22.7988 55.1759C23.2511 55.3244 23.6943 55.3942 24.1556 55.2277C24.4796 55.1107 24.7045 55.2457 24.961 55.4774C25.2828 55.7677 25.6653 56.0332 26.068 56.1839C26.7903 56.4539 27.553 56.4539 28.3315 56.4089C29.5735 56.3369 30.8177 56.3864 32.0575 56.3864ZM28.6397 54.0262C29.506 54.0262 30.3745 54.0554 31.2385 54.0172C31.8707 53.9879 32.4985 53.8619 33.1307 53.7922C33.5267 53.7494 33.6324 53.5492 33.5762 53.1712C33.5132 52.7527 33.2747 52.728 32.9259 52.7572C31.8055 52.8517 30.6827 52.944 29.5577 52.9867C29.0875 53.0047 28.6127 52.8832 28.138 52.836C26.4505 52.6695 24.763 52.4715 23.2061 51.7515C21.4488 50.9392 19.7186 50.0707 17.9816 49.218C17.6711 49.065 17.3719 48.885 17.0906 48.6848C15.7384 47.7218 14.5909 46.536 13.5402 45.2671C12.8247 44.4053 12.1902 43.4716 11.558 42.5423C11.0405 41.7818 10.5882 40.9764 10.091 40.2024C9.87498 39.8649 9.67248 39.8739 9.25174 40.1439C8.93899 40.3464 9.07849 40.5669 9.21349 40.7716C9.40474 41.0596 9.60274 41.3476 9.83223 41.6063C10.541 42.4073 11.3172 43.1678 11.6997 44.1893C12.1475 45.3863 12.9124 46.347 13.7989 47.2268C14.8227 48.2438 15.7677 49.3553 17.0951 50.0122C17.6756 50.3002 18.3259 50.5072 18.8141 50.9077C19.8041 51.72 20.9133 52.152 22.1598 52.3162C23.2151 52.4557 24.2231 52.7662 25.1478 53.2972C26.2368 53.9159 27.391 54.2107 28.6397 54.0262ZM27.7128 4.87781C27.9558 5.16806 28.3428 4.97681 28.696 4.94081C29.713 4.83731 30.712 4.86206 31.7087 5.12081C33.0879 5.4808 34.4244 6.01629 35.8757 6.09054C36.7981 6.13779 37.7161 6.26829 38.6341 6.36279C39.0301 6.40329 39.1426 6.10629 39.1831 5.82955C39.1966 5.73955 38.9401 5.58655 38.7871 5.4988C38.6791 5.43805 38.5374 5.4313 38.4091 5.4133C37.2526 5.23555 36.0939 5.08481 34.9419 4.87781C33.1914 4.56281 31.4432 4.22757 29.6545 4.28607C28.5003 4.32207 27.346 4.40082 26.194 4.47956C24.5718 4.58981 22.9833 4.82381 21.5253 5.6293C20.6658 6.10404 19.7749 6.52254 18.8996 6.96803C18.3844 7.23128 17.8354 7.44503 17.3696 7.77577C16.5259 8.37877 15.7272 9.04701 14.9194 9.6995C14.5369 10.0077 14.5437 10.1495 14.9014 10.5477C15.1759 10.8537 15.3357 10.5342 15.5067 10.4105C15.7024 10.2665 15.8667 10.0775 16.0399 9.902C16.7779 9.15501 17.5834 8.48901 18.5756 8.11777C19.6016 7.73302 20.6568 7.42028 21.6941 7.06478C23.3906 6.48654 25.0848 5.90605 26.7745 5.3143C27.0738 5.20855 27.3528 5.04656 27.7128 4.87781ZM58.2246 31.3555C58.2246 30.7772 58.2651 30.1967 58.2179 29.623C58.0334 27.418 57.6891 25.2378 57.1222 23.0958C56.7959 21.8673 56.4202 20.6524 56.0714 19.4306C55.9792 19.1089 55.7744 19.1381 55.5292 19.2169C55.2299 19.3114 55.2974 19.4824 55.3987 19.6849C55.5157 19.9166 55.6079 20.1619 55.7204 20.3959C56.1929 21.3656 56.5057 22.3848 56.6182 23.4581C56.7059 24.3198 56.7644 25.1838 56.8364 26.0478C56.9669 27.616 57.1604 29.1798 57.2054 30.7502C57.2346 31.7672 57.0411 32.791 56.9646 33.8124C56.8499 35.3402 56.4472 36.7982 55.8734 38.2066C55.1759 39.9189 54.4402 41.6131 53.7022 43.3096C53.5582 43.6426 53.6302 43.7888 53.9609 43.9283C54.3029 44.0701 54.4964 43.9553 54.6247 43.6718C55.0882 42.6301 55.5067 41.5703 55.9994 40.5421C56.3617 39.7861 56.5529 39.0144 56.4134 38.1954C56.3189 37.6509 56.6047 37.3832 56.9669 37.0907C57.1671 36.9287 57.3516 36.6947 57.4394 36.4562C58.0401 34.8092 58.3506 33.1127 58.2246 31.3555ZM54.8812 18.6656C55.6979 18.3551 55.7879 18.1864 55.4887 17.4372C55.2029 16.7239 54.8722 16.0354 54.2624 15.5224C54.0442 15.3379 53.8597 15.1062 53.6864 14.8767C52.638 13.466 51.675 12.008 50.406 10.748C48.0548 8.41251 45.3818 6.59004 42.4163 5.16356C41.9866 4.95656 41.5501 4.75631 41.0978 4.61006C40.6659 4.47056 40.5399 4.88006 40.3756 5.14556C40.3419 5.19955 40.4904 5.4583 40.5984 5.4943C42.1643 6.02079 43.4221 7.04903 44.745 7.98277C45.7103 8.66451 46.6868 9.34625 47.7308 9.89525C49.5487 10.8515 50.9955 12.1857 52.0755 13.9069C53.0452 15.4594 53.9407 17.0614 54.8812 18.6656ZM56.8904 30.2957C56.8229 29.7242 56.7577 29.1798 56.6947 28.6353C56.4607 26.6148 56.2334 24.5966 55.9949 22.5761C55.8734 21.5321 55.3379 20.6411 54.8834 19.7254C54.8294 19.6174 54.5864 19.6061 54.4312 19.5499C54.4199 19.6984 54.3614 19.8671 54.4087 19.9931C54.6314 20.5714 54.9487 21.1226 55.1062 21.7143C55.2614 22.2971 55.6372 22.8393 55.5112 23.4873C55.5022 23.5391 55.5359 23.5998 55.5449 23.6561C55.6124 24.1578 55.7024 24.6551 55.7429 25.1591C55.8487 26.4393 55.9004 27.7263 56.0354 29.0043C56.1209 29.8142 56.0669 30.595 55.7924 31.351C55.1174 33.2207 54.6314 35.1152 54.5797 37.1289C54.5414 38.6454 54.1184 40.0966 53.2544 41.3813C52.9732 41.7998 52.665 42.2026 52.386 42.6233C52.305 42.7448 52.2105 43.0036 52.2487 43.0328C52.449 43.1858 52.6807 43.3253 52.9215 43.3816C53.0115 43.4041 53.2094 43.2151 53.2724 43.0823C53.6234 42.3218 53.9429 41.5456 54.2872 40.7829C55.2074 38.7399 56.1592 36.7082 56.4247 34.4469C56.5867 33.061 56.7352 31.6682 56.8904 30.2957ZM26.1243 56.7509C26.392 57.1784 26.644 57.4326 27.0535 57.4731C27.5283 57.5204 28.003 57.5744 28.4778 57.5969C31.2812 57.7251 34.0487 57.4529 36.7779 56.7982C38.8209 56.3077 40.8346 55.7227 42.6863 54.7102C43.3028 54.3749 43.8406 53.8934 44.4143 53.4817C45.5528 52.665 46.7138 51.8775 47.8253 51.027C49.3777 49.8367 50.7457 48.444 52.0552 46.995C52.3275 46.6958 52.6065 46.3988 52.8315 46.0658C52.9012 45.9623 52.7999 45.744 52.7752 45.5775C52.6357 45.6203 52.4647 45.627 52.3657 45.7148C52.2172 45.8453 52.134 46.0478 51.9945 46.1918C50.7187 47.5283 49.4745 48.8985 48.147 50.181C47.2785 51.0202 46.3313 51.7942 45.1748 52.251C44.9115 52.3545 44.6551 52.5187 44.4436 52.71C43.0688 53.9474 41.4398 54.6944 39.6871 55.2052C38.4249 55.5719 37.1671 55.9544 35.8937 56.2694C35.0297 56.4832 34.1432 56.7059 33.2589 56.7329C31.1215 56.8004 28.9795 56.7554 26.8375 56.7554C26.6418 56.7509 26.4438 56.7509 26.1243 56.7509ZM49.6882 42.3308C49.605 42.4523 49.5105 42.5941 49.4115 42.7336C48.588 43.8856 47.8028 45.0668 46.9298 46.1783C46.3268 46.9455 45.6878 47.7308 44.9138 48.3023C43.8878 49.0605 42.7358 49.6612 41.5996 50.2552C39.4396 51.3825 37.3224 52.6425 34.7687 52.6942C34.1904 52.7055 34.1364 52.8697 34.3997 53.4547C34.4649 53.4479 34.5347 53.4457 34.6044 53.43C36.0017 53.1285 37.4011 52.8337 38.7961 52.5187C39.9549 52.2555 41.0776 51.9 42.0833 51.2272C43.2961 50.415 44.5201 49.6207 45.762 48.8558C47.0895 48.0368 48.2528 47.112 48.8085 45.5595C49.0987 44.7518 49.5622 44.0026 49.983 43.2466C50.2597 42.7516 50.28 42.7358 49.6882 42.3308ZM6.77902 30.4577C6.88252 31.549 6.95902 32.6425 7.09402 33.7292C7.21552 34.7169 7.44276 35.6934 7.54176 36.6834C7.64751 37.7476 8.00076 38.7039 8.56325 39.5994C8.71175 39.8356 8.85124 39.9481 9.11449 39.7614C9.34174 39.6016 9.55774 39.5094 9.38224 39.1201C9.11674 38.5351 8.90074 37.9141 8.768 37.2864C8.52725 36.1434 8.38325 34.9802 8.1605 33.8349C7.95351 32.7707 7.75326 31.7132 7.81401 30.6175C7.88151 29.407 7.89051 28.192 7.98501 26.9838C8.02775 26.4168 8.17625 25.852 8.33375 25.3031C8.54975 24.5561 8.8265 23.8248 9.06274 23.0823C9.14149 22.8393 9.16849 22.6008 8.8265 22.4951C8.49575 22.3938 8.26175 22.4231 8.15375 22.7966C8.0435 23.1836 7.91976 23.5683 7.80501 23.9553C7.18177 26.077 6.84652 28.2393 6.77902 30.4577ZM27.247 3.89907C27.2583 3.85632 27.2673 3.81582 27.2785 3.77307C26.986 3.59983 26.7048 3.39733 26.3965 3.26008C26.1175 3.13633 25.7845 2.97208 25.51 3.01933C23.5211 3.37033 21.5366 3.71907 19.6736 4.57856C17.5991 5.53705 15.6844 6.72729 13.9362 8.19202C13.8124 8.29552 13.6887 8.56326 13.7382 8.68251C13.8687 8.99076 14.0959 9.2585 14.3119 9.5825C14.4739 9.44525 14.5932 9.34625 14.7079 9.24275C15.8082 8.27977 16.9444 7.37303 18.2899 6.75879C19.0121 6.42804 19.7254 6.07704 20.4228 5.69455C21.8808 4.89806 23.3816 4.25682 25.0645 4.13532C25.7958 4.08582 26.5203 3.98007 27.247 3.89907ZM44.6438 13.0092C43.7573 12.3882 42.9091 11.7717 42.0383 11.189C40.2744 10.01 38.2809 9.443 36.2199 9.08301C34.6427 8.80626 33.0564 8.57676 31.477 8.31577C30.4802 8.15152 29.4925 8.13127 28.5093 8.38101C28.102 8.48451 28.183 8.79276 28.1965 9.07626C28.2145 9.41375 28.4305 9.3665 28.66 9.326C29.1865 9.2315 29.713 9.13476 30.2417 9.06501C32.0507 8.82876 33.8237 8.89401 35.4729 9.78725C36.5484 10.37 37.6869 10.8087 38.8794 11.0225C40.6659 11.342 42.1261 12.2667 43.5391 13.3107C44.0768 13.7044 44.1016 13.7112 44.6438 13.0092ZM51.396 44.0566C51.2925 44.1871 51.216 44.2568 51.1732 44.3401C50.901 44.8823 50.595 45.411 50.3767 45.9735C49.7152 47.6768 48.6578 49.0155 47.0535 49.9492C45.7305 50.7187 44.4728 51.5962 43.1948 52.44C42.2588 53.0587 41.2846 53.5672 40.1731 53.8057C38.4384 54.1814 36.7104 54.5909 34.9779 54.9869C34.3254 55.1354 34.2894 55.1872 34.2467 55.8397C34.2287 56.1299 34.3389 56.2109 34.6022 56.1434C35.5112 55.9094 36.4247 55.6912 37.3269 55.4347C38.2989 55.1579 39.2686 54.8654 40.2249 54.5414C41.4038 54.1432 42.5423 53.6797 43.5278 52.863C44.1443 52.3522 44.8755 51.9832 45.5573 51.5512C45.8858 51.3442 46.2548 51.1822 46.5428 50.9302C47.5215 50.0752 48.5115 49.2248 49.4227 48.3023C50.334 47.3798 51.1642 46.3763 52.0147 45.3931C52.1182 45.2738 52.2082 45.0016 52.1452 44.9071C51.9495 44.6056 51.6705 44.3536 51.396 44.0566ZM34.3704 54.6449C34.4649 54.6292 34.5617 54.6179 34.6584 54.5977C35.8037 54.3502 36.9444 54.0959 38.0896 53.8552C39.9504 53.4614 41.7796 53.0025 43.3298 51.8077C43.8901 51.378 44.4931 51.0022 45.0893 50.6197C45.8925 50.1045 46.7295 49.6387 47.5103 49.0943C48.2078 48.606 48.867 48.0593 49.254 47.2605C49.803 46.1288 50.3745 45.0083 50.901 43.8676C50.955 43.7483 50.7705 43.5188 50.694 43.3411C50.5725 43.4041 50.3947 43.4378 50.3407 43.5368C49.956 44.2636 49.5397 44.9836 49.2382 45.7463C48.6555 47.2155 47.6183 48.2505 46.2998 49.056C45.3885 49.614 44.4526 50.1427 43.5908 50.7705C42.1553 51.8122 40.6231 52.6132 38.8749 52.9732C37.5024 53.2545 36.1344 53.5537 34.7664 53.8574C34.2557 53.9722 34.2039 54.0959 34.3704 54.6449ZM55.0207 23.2331C54.3029 23.4513 54.3187 23.4468 54.4177 24.0341C54.5077 24.5741 54.5752 25.1208 54.6179 25.6675C54.7012 26.7475 54.7282 27.8343 54.8362 28.9098C54.9442 29.9717 54.8204 30.991 54.4312 31.972C53.9317 33.232 53.6257 34.5234 53.5559 35.8847C53.5109 36.7599 53.3872 37.6374 53.2229 38.4991C52.9485 39.9324 52.152 41.1091 51.2565 42.2228C51.0292 42.5063 51.1417 42.6008 51.396 42.7291C51.6795 42.8731 51.7965 42.6593 51.9315 42.5041C53.3084 40.9044 54.0847 39.0549 54.1657 36.9422C54.2287 35.2839 54.4739 33.6752 55.0769 32.1115C55.3739 31.342 55.5967 30.4937 55.6079 29.677C55.6282 28.2663 55.4819 26.8488 55.3627 25.4381C55.3019 24.7136 55.1422 23.9936 55.0207 23.2331ZM50.0077 42.0181C50.4712 42.3511 50.5725 42.3623 50.8177 42.0743C52.1947 40.4634 53.0047 38.6364 53.0587 36.4809C53.0947 35.0342 53.2859 33.6077 53.8664 32.2465C54.2692 31.2992 54.5122 30.3025 54.4312 29.2473C54.3502 28.1965 54.3187 27.1413 54.2264 26.0905C54.1634 25.3728 54.0554 24.6551 53.9227 23.9463C53.8304 23.4536 53.4254 23.6898 53.1419 23.6943C52.8337 23.7011 52.7595 23.8946 52.8315 24.1736C53.0092 24.8733 53.1667 25.5798 53.3602 26.275C53.7854 27.805 53.9249 29.3395 53.5222 30.8965C53.3849 31.4275 53.2342 31.9585 53.1509 32.4985C53.0114 33.3962 52.9484 34.3074 52.8067 35.2052C52.5277 37.0007 51.7537 38.6229 50.973 40.2384C50.6782 40.8504 50.3295 41.4286 50.0077 42.0181ZM27.9333 3.74607C27.9445 3.79332 27.958 3.84057 27.9693 3.88557C28.1358 3.89682 28.3023 3.91257 28.4688 3.91482C29.7265 3.93057 30.9977 3.83832 32.2397 3.98232C34.2602 4.21857 36.2627 4.60781 38.2741 4.93406C38.5734 4.98356 38.8704 5.05106 39.1719 5.08706C39.6961 5.15006 39.5791 4.65281 39.7299 4.40306C39.8784 4.15332 39.6309 4.07232 39.4554 4.02957C38.2224 3.73257 36.9961 3.37933 35.7452 3.17458C34.2782 2.93383 32.7932 2.79883 31.3105 2.67059C30.685 2.61659 30.0077 2.56709 29.4272 2.74934C28.8782 2.92258 28.426 3.40183 27.9333 3.74607ZM30.118 5.2648C29.3597 5.3458 28.84 5.38855 28.3293 5.4673C28.2078 5.4853 28.1088 5.6338 27.9985 5.72155C28.1223 5.8768 28.228 6.05904 28.381 6.17379C28.462 6.23229 28.6375 6.18954 28.759 6.15804C29.8525 5.87455 30.9235 6.05454 31.963 6.37179C33.4052 6.81053 34.8474 7.17053 36.3662 7.26503C37.3359 7.32578 38.3304 7.47653 39.2461 7.78702C41.6153 8.59026 43.7911 9.78725 45.7553 11.3487C45.9938 11.54 46.1895 11.6052 46.4055 11.3195C46.626 11.0292 46.4033 10.9167 46.221 10.7682C44.6101 9.47 42.8056 8.49801 40.9246 7.65652C39.7591 7.13453 38.5509 6.73179 37.2751 6.64404C35.6552 6.53154 34.0622 6.31554 32.5052 5.8363C31.657 5.57305 30.775 5.4178 30.118 5.2648ZM45.4515 13.088C45.5595 13.1735 45.6563 13.2545 45.7575 13.3265C46.4685 13.8462 47.274 14.2759 47.8658 14.9059C48.6713 15.7609 49.3552 16.7442 50.0212 17.7206C51.1057 19.3159 52.017 21.0056 52.512 22.8888C52.6222 23.3073 52.9035 23.4176 53.4232 23.2556C53.8012 23.1386 53.7247 22.8821 53.6527 22.5918C53.2904 21.1271 52.476 19.9054 51.621 18.6994C50.9617 17.7679 50.2192 16.8747 49.7107 15.8667C49.0627 14.5797 48.1965 13.5649 46.9883 12.8045C46.194 12.305 46.2075 12.2825 45.5258 12.9462C45.5078 12.962 45.4988 12.9935 45.4515 13.088ZM5.37504 20.4566C5.42679 20.4634 5.47854 20.4724 5.53254 20.4791C5.62703 20.2766 5.71478 20.0719 5.81378 19.8739C6.29753 18.9221 6.72502 17.9366 7.28301 17.0322C8.6465 14.8227 10.4847 13.0205 12.4242 11.3217C13.0812 10.7457 13.0947 10.7615 12.3657 10.2485C12.3545 10.2395 12.341 10.235 12.3297 10.2237C12.0845 9.98075 11.8662 10.0167 11.6232 10.253C11.1395 10.7277 10.64 11.189 10.136 11.6435C9.89523 11.8595 9.84798 12.107 9.87048 12.4197C9.92673 13.1735 9.81873 13.3152 9.07624 13.4052C8.6195 13.4615 8.2955 13.6639 8.0525 14.0419C7.38201 15.0859 6.67552 16.1097 6.03878 17.1739C5.52129 18.0401 5.20629 18.9851 5.29854 20.0224C5.31204 20.1664 5.35029 20.3104 5.37504 20.4566ZM8.49575 21.8516C8.606 21.9146 8.78375 22.0766 8.98849 22.1261C9.33724 22.2093 9.37999 21.8876 9.42949 21.6648C9.71073 20.3666 10.325 19.2259 11.0877 18.1616C12.3747 16.3639 13.9542 14.8429 15.6327 13.4165C15.7834 13.2882 16.0422 13.1667 15.8442 12.8945C15.6754 12.6627 15.4392 12.5255 15.1669 12.6897C14.1612 13.295 13.1802 13.9249 12.5367 14.9622C12.1115 15.6462 11.6727 16.3324 11.153 16.9444C10.7187 17.4574 10.1607 17.8669 9.64998 18.3146C9.12349 18.7759 8.7185 19.3204 8.62175 20.0246C8.543 20.5804 8.54075 21.1474 8.49575 21.8516ZM27.0625 6.85778C26.2008 7.14803 25.3908 7.40903 24.5898 7.69027C23.5143 8.07052 22.4726 8.58801 21.3678 8.83101C19.2641 9.29225 17.6351 10.4532 16.1704 11.9382C15.9589 12.1542 15.9612 12.3657 16.1704 12.5255C16.2424 12.5795 16.4966 12.485 16.6001 12.3882C17.2054 11.8235 17.8376 11.324 18.6116 10.9887C19.9481 10.4105 21.2553 9.767 22.5828 9.1685C23.0418 8.96151 23.5121 8.74101 24.0003 8.65551C24.8643 8.50476 25.7463 8.45076 26.6215 8.36302C27.5688 8.26627 27.6633 8.12227 27.3618 7.20878C27.3528 7.18178 27.3573 7.14353 27.3393 7.12553C27.2515 7.03553 27.1593 6.95003 27.0625 6.85778ZM28.2213 7.20203C28.2123 7.94002 28.2123 7.93102 28.8895 7.85002C29.3192 7.80052 29.758 7.71952 30.181 7.76452C31.153 7.86802 32.1205 8.03677 33.0879 8.18302C34.4559 8.39227 35.8262 8.59701 37.1941 8.81976C37.8219 8.92101 37.8489 8.90976 38.0829 8.36302C38.2066 8.07502 38.1571 7.92427 37.8421 7.88152C37.1424 7.78702 36.4449 7.63177 35.7452 7.61377C34.5549 7.58452 33.4389 7.27853 32.3185 6.92753C31.1822 6.56979 30.0257 6.37404 28.822 6.56979C28.363 6.64629 28.111 6.77454 28.2213 7.20203ZM53.5739 19.7344C53.3984 19.3721 53.2814 19.0391 53.0902 18.7534C52.3185 17.6036 51.513 16.4764 50.7435 15.3244C50.4397 14.8699 50.2102 14.3659 49.9245 13.8979C49.2675 12.8225 48.1853 12.2285 47.1908 11.54C47.0963 11.4747 46.833 11.5377 46.7295 11.63C46.5518 11.7875 46.5833 11.9742 46.8128 12.1205C47.1548 12.3365 47.4878 12.5682 47.8073 12.8157C48.5588 13.3917 49.209 14.0554 49.677 14.8924C50.091 15.6349 50.5387 16.3594 51.0045 17.0704C51.4072 17.6846 51.8662 18.2651 52.287 18.8681C53.0924 20.0224 53.7944 21.2306 54.1319 22.6143C54.1927 22.8641 54.3209 22.9878 54.5932 22.9428C54.9082 22.8911 54.8722 22.6638 54.8587 22.4456C54.8542 22.3736 54.8429 22.2993 54.8182 22.2341C54.5684 21.6041 54.3367 20.9651 54.0509 20.3509C53.9384 20.1011 53.7089 19.9009 53.5739 19.7344ZM27.3415 6.02754C27.3528 5.7508 27.2313 5.6518 26.9658 5.73055C26.3988 5.89705 25.8228 6.03654 25.2625 6.22779C23.6111 6.79254 21.9888 7.45853 20.3126 7.93327C18.3844 8.47776 16.8926 9.62075 15.5157 10.9865C15.3019 11.198 15.4009 11.3825 15.5427 11.5557C15.7159 11.765 15.8622 11.639 16.0107 11.4972C16.3774 11.1485 16.7239 10.7727 17.1289 10.4757C17.7769 10.0032 18.4181 9.46775 19.1471 9.1685C20.8008 8.49126 22.5041 7.93552 24.1916 7.34828C25.078 7.04003 25.9758 6.77004 26.869 6.48204C27.1053 6.41004 27.3708 6.36504 27.3415 6.02754ZM54.4334 18.8996C54.3592 18.7354 54.3142 18.6139 54.2512 18.5014C53.8124 17.7206 53.3759 16.9399 52.9282 16.1659C52.0147 14.5887 51.1327 12.9822 49.7175 11.7807C49.182 11.3262 48.5655 10.9707 47.976 10.5815C47.7443 10.4285 47.5688 10.5522 47.4248 10.748C47.256 10.9752 47.4158 11.0832 47.5733 11.2002C47.7938 11.3622 48.0098 11.5355 48.2325 11.6952C49.1055 12.3185 49.9267 12.9777 50.478 13.9429C51.0765 14.9959 51.7402 16.0107 52.404 17.0254C52.8382 17.6891 53.3152 18.3281 53.7899 18.9649C53.8642 19.0639 54.0419 19.1336 54.1702 19.1336C54.2557 19.1336 54.3434 18.9851 54.4334 18.8996ZM7.06252 42.4613C6.79252 42.7943 6.66202 43.1251 6.91402 43.5256C7.04452 43.7326 7.14352 43.9598 7.26726 44.1736C7.88151 45.2266 8.50475 46.257 9.61849 46.8938C10.0617 47.148 10.4847 47.4968 10.6467 48.0255C11.0337 49.2698 11.936 50.0797 12.9327 50.8245C14.6787 52.1272 16.5821 53.1622 18.5216 54.1364C19.5296 54.6427 20.5556 55.1107 21.5793 55.5854C21.8651 55.7182 22.1688 55.7789 22.5086 55.5562C15.6237 53.2162 10.5657 48.7928 7.06252 42.4613ZM13.9542 11.5265C13.4952 11.072 13.4569 11.063 13.0744 11.3847C11.4545 12.7437 9.92448 14.1927 8.6285 15.8734C7.56426 17.2549 6.67552 18.7399 6.09953 20.3959C6.05903 20.5151 6.04328 20.7469 6.10178 20.7784C6.33353 20.9111 6.59677 20.9854 6.84877 21.0821C6.90502 20.8864 6.96352 20.6929 7.01527 20.4949C7.02652 20.4544 7.02202 20.4094 7.01977 20.3644C6.93652 19.0009 7.53951 17.9794 8.579 17.1559C9.52399 16.4067 10.3925 15.5854 10.9572 14.4942C11.4252 13.5897 12.089 12.8585 12.9079 12.2622C13.2432 12.0215 13.5852 11.7875 13.9542 11.5265ZM7.38876 21.2036C7.47426 21.2869 7.63851 21.4466 7.80276 21.6063C7.90176 21.4601 8.02551 21.3251 8.09075 21.1654C8.1425 21.0371 8.1425 20.8796 8.13575 20.7379C8.0795 19.5994 8.52275 18.7061 9.37324 17.9546C10.181 17.2414 11.108 16.6317 11.6165 15.6304C12.305 14.2759 13.3152 13.2387 14.6337 12.4872C14.7304 12.4332 14.7642 12.269 14.8294 12.1542C14.6719 12.0687 14.5234 11.945 14.3569 11.909C14.2557 11.8887 14.1207 11.9967 14.0082 12.0597C12.8247 12.7145 11.9292 13.6504 11.2632 14.8249C11.0292 15.2389 10.8042 15.6799 10.478 16.0129C9.84348 16.6609 9.13924 17.2437 8.46425 17.8534C8.00076 18.2719 7.65201 18.7624 7.56651 19.3946C7.49676 19.9369 7.45851 20.4859 7.38876 21.2036ZM38.8479 8.07052C38.7241 8.20327 38.5531 8.33827 38.4429 8.51151C38.1076 9.04251 38.1256 9.02226 38.7039 9.21575C39.3856 9.443 40.0651 9.69275 40.7176 9.99199C42.1283 10.6377 43.4603 11.4162 44.5876 12.503C44.8148 12.7212 45.0398 12.7325 45.2513 12.4692C45.3323 12.368 45.429 12.278 45.5258 12.1925C45.7148 12.0305 45.7035 11.8775 45.5123 11.7312C45.1478 11.45 44.8058 11.1237 44.4076 10.8987C43.0148 10.1112 41.6063 9.3485 40.1934 8.60151C39.8041 8.39452 39.3676 8.27077 38.8479 8.07052ZM6.55852 41.3229C6.45502 41.1474 6.38078 40.9921 6.28403 40.8549C5.65628 39.9616 5.29854 38.9716 5.17254 37.8894C5.06454 36.9737 4.96554 36.0557 4.79004 35.1512C4.5043 33.6797 4.1038 32.2285 4.2298 30.7007C4.2838 30.0482 4.2208 30.0325 3.57956 30.2282C3.26231 30.325 2.96532 30.415 3.06207 30.865C3.40181 32.431 3.66506 34.0127 4.40755 35.4662C4.62355 35.8892 4.7338 36.3999 4.76305 36.8792C4.85529 38.3394 5.15904 39.7366 5.74853 41.0754C5.95778 41.5479 5.99828 41.5658 6.55852 41.3229ZM3.04407 28.4373C3.04407 28.624 3.03057 28.8153 3.04632 28.9998C3.07332 29.2788 3.44456 29.4587 3.91706 29.4497C4.2478 29.443 4.22305 29.209 4.2298 28.993C4.25005 28.2573 4.20055 27.5103 4.30405 26.7858C4.5268 25.2153 4.82154 23.6538 5.09829 22.0923C5.14554 21.8268 5.14104 21.6401 4.82379 21.5793C4.4953 21.5163 4.4188 21.7121 4.38955 21.9686C4.37155 22.1261 4.3333 22.2881 4.3513 22.4433C4.47505 23.4941 4.0993 24.4301 3.70106 25.3638C3.28256 26.3425 3.12057 27.382 3.04407 28.4373ZM39.4644 6.54954C39.5454 6.59679 39.6039 6.63954 39.6669 6.66429C42.1508 7.61827 44.5021 8.80851 46.5788 10.496C46.9365 10.7862 47.0625 10.7277 47.2155 10.3137C45.8228 9.3035 44.4683 8.26852 43.0576 7.31903C42.2836 6.79928 41.4331 6.37854 40.5826 5.9893C39.9369 5.69455 39.7524 5.82505 39.4644 6.54954Z" fill="#4B9403"/>
<path d="M28.5206 10.9549C29.4116 10.8829 30.3048 10.8267 31.1958 10.7344C32.332 10.6152 33.4075 10.8514 34.4762 11.1957C35.8937 11.6479 37.3112 12.1024 38.7422 12.5074C40.0449 12.8764 41.2194 13.4884 42.2634 14.3254C43.0936 14.9914 43.8384 15.7653 44.6259 16.4831C45.1389 16.9511 45.6496 17.4191 46.1828 17.8623C47.0828 18.6116 47.6206 19.6195 48.2281 20.587C49.0606 21.9168 49.5398 23.3748 49.9358 24.8755C50.145 25.672 50.4128 26.4527 50.6445 27.2425C50.8695 28.0142 50.82 28.7769 50.6175 29.5532C50.4825 30.0639 50.3903 30.5994 50.379 31.1259C50.352 32.5501 50.2575 33.9609 49.7423 35.3018C49.4993 35.9341 49.1596 36.5281 48.8896 37.1513C48.4126 38.2516 47.9626 39.363 47.4923 40.4655C47.1076 41.3678 46.5068 42.09 45.6856 42.63C45.4449 42.7898 45.2199 42.9743 44.9769 43.1318C44.2119 43.6267 43.5661 44.25 43.1566 45.0645C42.4996 46.3717 41.3949 47.166 40.1147 47.7149C38.3484 48.4709 36.5485 49.1504 34.7597 49.8569C33.8305 50.2237 32.8563 50.1697 31.8865 50.1269C31.0068 50.0887 30.1248 49.9672 29.2473 49.9852C27.7376 50.0167 26.3291 49.6927 24.9634 49.0694C23.5684 48.4349 22.1172 47.9197 20.7559 47.2222C18.6545 46.1422 16.6767 44.8642 15.1738 42.9765C14.0938 41.6198 13.268 40.1303 12.6875 38.4946C12.4918 37.9433 12.1588 37.4393 11.9068 36.9061C11.3376 35.6933 11.2048 34.3794 11.0293 33.0766C10.9101 32.1924 10.7098 31.3127 10.6558 30.4239C10.6108 29.6994 10.6873 28.9592 10.7841 28.2347C10.8943 27.4089 11.1171 26.5967 11.2296 25.771C11.3511 24.871 11.612 24.043 12.044 23.233C12.6335 22.126 13.0363 20.9178 13.6528 19.8288C14.978 17.4866 16.8072 15.6191 19.1202 14.2039C20.8234 13.1599 22.6234 12.3701 24.5021 11.7311C25.0624 11.5399 25.5866 11.2159 26.1559 11.0944C26.9253 10.9302 27.7218 10.9009 28.5093 10.8154C28.5116 10.8582 28.5161 10.9077 28.5206 10.9549ZM28.6511 11.3959C28.6466 11.3487 28.6421 11.3037 28.6376 11.2564C27.8658 11.3374 27.0828 11.3644 26.3246 11.5196C25.7801 11.6299 25.2806 11.9404 24.7451 12.1136C22.3894 12.8696 20.1889 13.9294 18.173 15.3783C16.193 16.8026 14.717 18.6431 13.637 20.8098C13.0903 21.9078 12.5795 23.026 12.0755 24.1465C11.936 24.4547 11.8595 24.799 11.7965 25.1342C11.6255 26.041 11.5288 26.9657 11.3061 27.8589C11.0383 28.9322 10.9371 29.9784 11.1936 31.0697C11.3488 31.7266 11.3871 32.4129 11.4725 33.0856C11.6885 34.7529 11.9585 36.3841 12.899 37.8556C13.3648 38.5846 13.5898 39.4643 13.9498 40.2653C14.6833 41.892 15.7992 43.2578 17.1582 44.3625C18.3057 45.294 19.5814 46.1062 20.8932 46.7925C22.3624 47.5597 23.9464 48.1019 25.4606 48.7837C26.6599 49.3237 27.9041 49.5419 29.2113 49.5352C30.0191 49.5307 30.8268 49.6589 31.6345 49.6657C32.4693 49.6702 33.3625 49.7782 34.1253 49.5262C36.139 48.8602 38.1167 48.0749 40.0674 47.2379C41.0867 46.8015 42.0676 46.1962 42.5896 45.1387C43.1544 43.9912 44.0544 43.1925 45.0849 42.4905C45.5574 42.1688 46.0591 41.8223 46.3876 41.37C46.8556 40.722 47.2178 39.9863 47.5531 39.2528C48.0031 38.2673 48.3248 37.2188 48.8131 36.2536C49.4116 35.0724 49.8053 33.8619 49.8458 32.5321C49.8728 31.6659 49.8413 30.7727 50.0528 29.9469C50.3453 28.7994 50.397 27.7172 50.0078 26.5877C49.4363 24.9227 49.1281 23.1655 48.2798 21.5995C47.5778 20.3035 46.8893 18.9941 45.6924 18.0536C45.3189 17.7588 44.9746 17.4258 44.6304 17.0973C43.9194 16.4223 43.2466 15.7023 42.4996 15.0679C41.3432 14.0869 40.0539 13.3331 38.5757 12.9169C37.1582 12.5164 35.7452 12.0911 34.3413 11.6434C33.3288 11.3217 32.3208 11.0584 31.2408 11.1754C30.3791 11.2722 29.5128 11.3239 28.6511 11.3959Z" fill="#4B9403"/>
<path d="M26.041 40.3121C25.96 40.5371 25.852 40.7576 25.8025 40.9893C25.6248 41.8218 25.5123 42.6723 25.2873 43.4913C25.1703 43.9165 24.8575 44.2833 24.6483 44.686C24.5943 44.7918 24.5718 44.9245 24.5718 45.046C24.5718 45.3745 24.4053 45.523 24.0925 45.532C23.6245 45.5455 23.3118 45.352 23.0103 44.9605C22.3645 44.1213 22.6683 43.3225 23.0035 42.5238C23.2713 41.8848 23.6178 41.2863 23.6493 40.5618C23.6605 40.3256 23.8293 40.0691 23.9845 39.8688C24.4368 39.2883 24.493 38.6156 24.5673 37.9181C24.6685 36.9461 24.871 35.9854 25.0308 35.0201C25.042 34.9504 25.078 34.8739 25.0645 34.8086C24.8733 33.8389 24.6753 32.8692 24.4773 31.9017C24.448 31.7599 24.403 31.6204 24.394 31.4787C24.3693 31.0894 24.1713 30.8397 23.8225 30.6799C22.9158 30.2659 22.6233 29.6089 22.9428 28.628C23.0395 28.3332 22.9878 28.1397 22.8303 27.8787C22.5715 27.4512 22.387 26.9765 22.1868 26.5152C22.0788 26.2632 21.9955 26 21.9123 25.739C21.7368 25.19 21.3543 24.9335 20.7941 24.8593C20.5916 24.8323 20.4093 24.677 20.2158 24.5803C20.4026 24.4903 20.5803 24.3665 20.7761 24.317C20.9673 24.2675 21.1811 24.2653 21.3768 24.2968C21.6671 24.3418 21.9123 24.3305 22.126 24.0898C22.1913 24.0155 22.351 24.0223 22.468 23.993C22.4905 24.0988 22.5535 24.2135 22.531 24.308C22.351 25.1068 22.8123 25.6895 23.1858 26.3015C23.2375 26.387 23.35 26.4432 23.3815 26.531C23.6785 27.3612 24.3625 27.2622 25.0218 27.2285C25.6068 27.197 25.9082 27.6402 26.2817 27.9642C26.3425 28.0182 26.3807 28.0992 26.4392 28.1847C26.9185 27.9237 26.9005 27.422 27.0422 27.0215C27.2267 26.5062 27.319 25.9595 27.49 25.4397C27.679 24.8683 27.769 24.3238 27.4405 23.768C27.319 23.561 27.5417 23.0458 27.778 22.9918C28.1132 22.9153 28.264 23.138 28.3765 23.4193C28.678 24.1663 28.4462 24.9065 28.3472 25.64C28.237 26.4702 28.0412 27.287 27.8747 28.1082C27.715 28.898 27.679 29.6472 28.0817 30.4167C28.6127 31.4292 28.7567 32.5564 28.7365 33.6949C28.732 34.0189 28.57 34.3406 28.5745 34.6624C28.5835 35.1641 28.6915 35.6636 28.7275 36.1654C28.8242 37.5131 28.543 38.8068 28.1785 40.0938C28.0705 40.4718 28.0502 40.8926 28.075 41.2885C28.1357 42.2178 28.1582 43.1065 27.7217 43.9953C27.5282 44.389 27.4337 44.9335 27.589 45.4352C27.6677 45.6895 27.58 45.8672 27.283 45.8717C26.9792 45.8762 26.671 45.901 26.374 45.856C26.2097 45.8312 26.0095 45.7142 25.9195 45.5747C25.4133 44.7985 25.1298 43.9885 25.726 43.1178C25.7665 43.0593 25.807 42.9918 25.8183 42.9243C25.9442 42.1188 26.0657 41.311 26.185 40.5033C26.1917 40.4538 26.1715 40.3998 26.1625 40.3481C26.1242 40.3368 26.0837 40.3256 26.041 40.3121Z" fill="#4B9403"/>
<path d="M35.3197 30.8713C35.3197 26.6481 35.3197 22.4249 35.3197 18.2017C35.3197 17.5605 35.322 17.5605 35.9812 17.5627C36.357 17.5627 36.7327 17.5627 37.1085 17.565C37.6755 17.5672 37.7002 17.592 37.7002 18.15C37.7025 19.986 37.6147 21.8287 37.7317 23.6579C37.806 24.8167 38.0647 25.9844 37.9027 27.1296C37.4685 30.2368 37.7992 33.3508 37.716 36.4603C37.6867 37.5852 38.0287 38.7417 37.8847 39.842C37.6417 41.6847 37.761 43.5184 37.6957 45.3566C37.6867 45.6154 37.554 45.6986 37.311 45.7144C36.3795 45.7706 35.43 44.9066 35.331 43.8919C35.3152 43.7344 35.3175 43.5747 35.3175 43.4149C35.3197 39.2322 35.3197 35.0518 35.3197 30.8713ZM36.4335 41.8579C36.5617 41.6959 36.7125 41.5879 36.7057 41.4912C36.699 41.3967 36.528 41.2549 36.4267 41.2504C36.339 41.2482 36.1792 41.4079 36.1747 41.5024C36.168 41.5992 36.312 41.7027 36.4335 41.8579ZM36.8565 22.4092C36.6517 22.3102 36.528 22.1977 36.4222 22.2134C36.321 22.2292 36.24 22.3754 36.15 22.4654C36.2535 22.5442 36.357 22.6837 36.4627 22.6837C36.5685 22.6837 36.672 22.5442 36.8565 22.4092ZM36.8182 32.0571C36.654 31.9288 36.5505 31.7893 36.447 31.7893C36.3502 31.7893 36.2535 31.9356 36.1567 32.0166C36.2422 32.1111 36.321 32.2708 36.4155 32.2821C36.519 32.2933 36.6382 32.1651 36.8182 32.0571ZM36.798 27.3119C36.6135 27.2061 36.501 27.0914 36.3952 27.0959C36.312 27.1004 36.1567 27.2714 36.1725 27.3299C36.204 27.4379 36.3322 27.5819 36.4267 27.5886C36.5212 27.5931 36.627 27.4491 36.798 27.3119ZM36.4357 36.4445C36.321 36.5795 36.2467 36.6673 36.1725 36.755C36.2715 36.8382 36.3615 36.9732 36.4695 36.9867C36.5482 36.998 36.6495 36.8517 36.7417 36.7775C36.6517 36.683 36.5662 36.5863 36.4357 36.4445Z" fill="#4B9403"/>
<path d="M31.0789 14.7882C33.1039 14.7882 35.1266 14.7972 37.1516 14.7814C37.5679 14.7769 37.7636 14.8624 37.7164 15.3327C37.6691 15.7894 37.6736 16.2596 37.7164 16.7186C37.7546 17.1394 37.5881 17.2339 37.2034 17.2339C34.2986 17.2226 31.3917 17.2271 28.487 17.2271C27.3305 17.2271 26.174 17.2226 25.0175 17.2339C24.5383 17.2384 24.1715 17.0539 23.9353 16.6466C23.6765 16.2034 23.6473 15.7444 23.9308 15.2922C24.1828 14.8917 24.5698 14.7859 25.013 14.7859C27.038 14.7882 29.0607 14.7859 31.0857 14.7859C31.0789 14.7859 31.0789 14.7859 31.0789 14.7882ZM25.1975 15.7467C25.0873 15.9064 24.9568 16.0144 24.9725 16.0909C24.995 16.2011 25.121 16.2911 25.2043 16.3901C25.2965 16.2934 25.4428 16.2079 25.4608 16.0999C25.4743 16.0167 25.3258 15.9064 25.1975 15.7467Z" fill="#4B9403"/>
<path d="M28.7453 17.6015C29.0108 17.5858 29.2785 17.5926 29.5395 17.5543C30.6082 17.3946 31.4295 17.7298 32.1652 18.5578C32.9572 19.451 33.9045 20.207 34.7639 21.0418C34.9147 21.188 35.0339 21.4287 35.0519 21.6357C35.0947 22.1082 35.0789 22.5897 35.0609 23.0667C35.0564 23.1905 34.9529 23.3097 34.8944 23.429C34.7842 23.375 34.6537 23.3412 34.5659 23.2625C33.8595 22.6235 33.1552 21.98 32.46 21.3275C31.281 20.2205 30.1087 19.1045 28.9343 17.9908C28.8533 17.9143 28.7903 17.822 28.7183 17.7365C28.7273 17.6915 28.7363 17.6465 28.7453 17.6015Z" fill="#4B9403"/>
<path d="M75.8385 30.0783L73.9036 32.0965V35.7414H70.5894V21.3281H73.9036V28.06L80.2845 21.3281H83.9901L78.021 27.7518L84.3411 35.7392H80.451L75.8385 30.0783Z" fill="#222222"/>
<path d="M85.5538 22.6058C85.1825 22.2638 84.998 21.8363 84.998 21.33C84.998 20.8215 85.1825 20.3963 85.5538 20.0543C85.925 19.7123 86.4043 19.5391 86.9938 19.5391C87.5832 19.5391 88.0647 19.7033 88.4337 20.0341C88.805 20.3626 88.9895 20.7743 88.9895 21.2693C88.9895 21.8048 88.805 22.248 88.4337 22.5968C88.0625 22.9478 87.5832 23.121 86.9938 23.121C86.4065 23.121 85.925 22.95 85.5538 22.6058ZM85.3895 24.6645H88.6002V35.7411H85.3895V24.6645Z" fill="#222222"/>
<path d="M102.867 20.4688V35.7438H99.8006V34.4681C99.0041 35.4288 97.8521 35.9081 96.3424 35.9081C95.2984 35.9081 94.3556 35.6741 93.5119 35.2083C92.6682 34.7426 92.0044 34.0766 91.5252 33.2103C91.0437 32.3463 90.8052 31.3451 90.8052 30.2044C90.8052 29.0659 91.0459 28.0624 91.5252 27.1984C92.0044 26.3344 92.6682 25.6684 93.5119 25.2004C94.3556 24.7347 95.3006 24.5007 96.3424 24.5007C97.7554 24.5007 98.8601 24.9462 99.6566 25.8394V20.4688H102.867ZM98.9163 32.4386C99.4518 31.8829 99.7196 31.1381 99.7196 30.2044C99.7196 29.2706 99.4518 28.5259 98.9163 27.9702C98.3808 27.4144 97.7081 27.1354 96.8981 27.1354C96.0746 27.1354 95.3951 27.4144 94.8596 27.9702C94.3241 28.5259 94.0564 29.2706 94.0564 30.2044C94.0564 31.1381 94.3241 31.8829 94.8596 32.4386C95.3951 32.9943 96.0746 33.2733 96.8981 33.2733C97.7081 33.2733 98.3808 32.9943 98.9163 32.4386Z" fill="#222222"/>
<path d="M106.861 35.5631C105.983 35.3359 105.281 35.0524 104.762 34.7081L105.833 32.4019C106.328 32.7169 106.924 32.9757 107.624 33.1736C108.323 33.3716 109.01 33.4729 109.682 33.4729C111.041 33.4729 111.721 33.1377 111.721 32.4649C111.721 32.1499 111.536 31.9227 111.165 31.7854C110.794 31.6482 110.225 31.5312 109.457 31.4367C108.551 31.2994 107.804 31.1419 107.214 30.9642C106.625 30.7864 106.114 30.4692 105.68 30.0169C105.248 29.5647 105.032 28.9189 105.032 28.082C105.032 27.3822 105.234 26.7612 105.639 26.219C106.044 25.6767 106.634 25.256 107.41 24.9522C108.186 24.6507 109.102 24.5 110.157 24.5C110.94 24.5 111.719 24.5855 112.493 24.7565C113.269 24.9275 113.91 25.166 114.419 25.4675L113.348 27.7535C112.373 27.2045 111.309 26.93 110.157 26.93C109.471 26.93 108.956 27.0267 108.614 27.218C108.269 27.4115 108.098 27.6567 108.098 27.9582C108.098 28.3025 108.283 28.541 108.654 28.6782C109.025 28.8154 109.615 28.9459 110.425 29.0697C111.332 29.2204 112.072 29.3824 112.648 29.5534C113.224 29.7244 113.726 30.0372 114.151 30.4894C114.576 30.9417 114.79 31.5739 114.79 32.3839C114.79 33.0702 114.585 33.6799 114.171 34.2154C113.759 34.7509 113.159 35.1671 112.369 35.4619C111.579 35.7566 110.643 35.9051 109.559 35.9051C108.638 35.9029 107.741 35.7904 106.861 35.5631Z" fill="#222222"/>
<path d="M134.252 25.7252C135.069 26.5419 135.476 27.7659 135.476 29.3994V35.7398H132.266V29.8921C132.266 29.0146 132.083 28.3576 131.721 27.9256C131.357 27.4936 130.839 27.2777 130.166 27.2777C129.413 27.2777 128.814 27.5206 128.375 28.0089C127.937 28.4971 127.716 29.2194 127.716 30.1801V35.7375H124.506V29.8899C124.506 28.1461 123.806 27.2754 122.406 27.2754C121.666 27.2754 121.074 27.5184 120.636 28.0066C120.197 28.4949 119.976 29.2171 119.976 30.1779V35.7353H116.766V24.6587H119.832V25.9344C120.244 25.4687 120.748 25.1109 121.347 24.8634C121.943 24.6159 122.6 24.4922 123.313 24.4922C124.096 24.4922 124.803 24.6474 125.432 24.9557C126.062 25.2639 126.571 25.7139 126.956 26.3034C127.408 25.7274 127.982 25.2819 128.675 24.9647C129.368 24.6497 130.126 24.4922 130.949 24.4922C132.335 24.5012 133.436 24.9107 134.252 25.7252Z" fill="#222222"/>
<path d="M140.613 35.1716C139.686 34.6856 138.961 34.0084 138.442 33.1444C137.92 32.2804 137.659 31.2994 137.659 30.2014C137.659 29.1034 137.92 28.1225 138.442 27.2585C138.964 26.3945 139.688 25.7172 140.613 25.2312C141.54 24.7452 142.586 24.5 143.752 24.5C144.917 24.5 145.961 24.743 146.881 25.2312C147.802 25.7195 148.521 26.3945 149.043 27.2585C149.565 28.1225 149.826 29.1057 149.826 30.2014C149.826 31.2994 149.565 32.2804 149.043 33.1444C148.521 34.0084 147.802 34.6856 146.881 35.1716C145.961 35.6599 144.919 35.9029 143.752 35.9029C142.586 35.9029 141.54 35.6599 140.613 35.1716ZM145.781 32.4334C146.31 31.8777 146.573 31.1329 146.573 30.1992C146.573 29.2654 146.308 28.5207 145.781 27.965C145.252 27.4092 144.577 27.1302 143.754 27.1302C142.93 27.1302 142.251 27.4092 141.715 27.965C141.18 28.5207 140.912 29.2654 140.912 30.1992C140.912 31.1329 141.18 31.8777 141.715 32.4334C142.251 32.9891 142.93 33.2681 143.754 33.2681C144.577 33.2681 145.252 32.9891 145.781 32.4334Z" fill="#222222"/>
<path d="M162.024 25.7352C162.867 26.5587 163.29 27.7805 163.29 29.4004V35.7409H160.08V29.8932C160.08 29.0157 159.886 28.3587 159.504 27.9267C159.119 27.4947 158.563 27.2787 157.837 27.2787C157.027 27.2787 156.381 27.5285 155.902 28.0302C155.42 28.5319 155.182 29.2767 155.182 30.2644V35.7409H151.971V24.6642H155.038V25.9602C155.463 25.4945 155.992 25.1345 156.624 24.8802C157.254 24.626 157.949 24.5 158.703 24.5C160.071 24.5 161.18 24.9117 162.024 25.7352Z" fill="#222222"/>
<path d="M173.337 35.2101C173.022 35.4441 172.632 35.6196 172.173 35.7343C171.714 35.8513 171.231 35.9098 170.722 35.9098C169.404 35.9098 168.384 35.5746 167.664 34.9018C166.944 34.2291 166.584 33.2414 166.584 31.9364V27.3869H164.877V24.9165H166.584V22.2188H169.795V24.9165H172.554V27.3869H169.795V31.8959C169.795 32.3616 169.914 32.7239 170.155 32.9759C170.396 33.2301 170.736 33.3561 171.174 33.3561C171.681 33.3561 172.115 33.2189 172.47 32.9444L173.337 35.2101Z" fill="#222222"/>
</g>
<defs>
<clipPath id="clip0_112_1875">
<rect width="181.55" height="60" fill="white"/>
</clipPath>
</defs>
</svg>
