<svg width="107" height="106" viewBox="0 0 107 106" fill="none" xmlns="http://www.w3.org/2000/svg">
<path fill-rule="evenodd" clip-rule="evenodd" d="M103.194 38.6761C103.794 40.2636 104.458 41.8258 105.299 43.2889C106.5 45.3797 106.864 47.5643 106.414 49.9095C106.039 51.8841 106.01 53.8812 105.981 55.8816C105.976 56.2096 105.971 56.5377 105.965 56.8657C105.843 63.1779 104.784 69.3133 102.206 75.1167C101.392 76.9532 100.475 78.7391 99.31 80.3826C98.5081 81.5155 97.5576 82.4662 96.2331 82.9641C95.8629 83.103 95.6836 83.4203 95.5067 83.7333C95.4929 83.7577 95.4791 83.7822 95.4652 83.8065C95.2311 84.2185 95.0022 84.6334 94.7733 85.0484C94.3946 85.7348 94.016 86.4211 93.6144 87.0934C91.291 90.9919 88.2839 94.1958 84.2457 96.3263C82.7529 97.1128 81.2153 97.7893 79.5489 98.123C78.9833 98.2349 78.5322 98.5524 78.219 99.0395C77.9684 99.4291 77.7196 99.8242 77.5191 100.241C77.034 101.246 76.2249 101.69 75.1492 101.704C74.7743 101.709 74.3986 101.708 74.0233 101.707C73.8627 101.706 73.7022 101.706 73.5418 101.706C70.327 101.486 67.3682 102.355 64.8014 104.242C62.6141 105.85 60.3069 106.138 57.7741 105.62C57.0678 105.475 56.3915 105.233 55.7165 104.99C55.5516 104.931 55.3868 104.872 55.2216 104.814C54.008 104.392 52.9877 104.59 52.0874 105.541C51.5289 106.131 51.1011 106.135 50.4317 105.653C50.1954 105.482 49.9658 105.303 49.7363 105.123C49.5067 104.944 49.2772 104.764 49.0409 104.594C48.4198 104.145 47.7521 104.024 47.0164 104.325C46.6009 104.497 46.1689 104.631 45.7386 104.765C45.6573 104.79 45.576 104.816 45.495 104.841C44.3369 105.206 43.2665 105.045 42.2748 104.32C41.4604 103.726 40.5905 103.248 39.5702 103.107C38.8177 103.005 38.0865 103.132 37.3536 103.26L37.3507 103.261C36.1657 103.468 35.2475 103.024 34.5315 102.103C34.0088 101.432 33.6687 100.656 33.4969 99.8296C33.3412 99.0828 32.917 98.5632 32.3603 98.1122C31.2487 97.2138 29.985 96.5716 28.7106 95.9528C26.4856 94.8722 24.2124 93.8945 21.8998 93.025C18.1516 91.616 15.1337 89.2258 12.5687 86.1987C11.1994 84.5823 10.0127 82.8468 9.20362 80.866C8.76867 79.7999 8.11712 78.8456 7.27942 78.0735C6.01392 76.9081 5.41071 75.4793 5.25856 73.798C5.20307 73.1702 5.03661 72.5587 4.81286 71.9669C4.61955 71.4564 4.36358 70.9747 3.93936 70.6266C2.82422 69.7102 2.67565 68.5538 3.06944 67.2531C3.21443 66.7769 3.42923 66.3295 3.72636 65.9308C4.18101 65.3192 4.23471 64.677 3.94294 63.9807C3.3988 62.68 2.96384 61.345 2.74725 59.9415C2.51882 58.4509 2.56531 56.9556 2.61181 55.46C2.61523 55.3501 2.61865 55.2402 2.62196 55.1303C2.64523 54.3474 2.65239 53.568 2.579 52.7887C2.51277 52.0653 2.3105 51.3888 1.97399 50.7358C0.917918 48.6792 0.359452 46.5126 0.699543 44.1782C0.81589 43.3755 1.12734 42.6503 1.65717 42.0315C1.98671 41.6469 2.31894 41.264 2.65124 40.881C3.08424 40.382 3.51735 39.8828 3.94473 39.3796C4.84329 38.3207 5.3409 37.1336 5.38744 35.6977C5.44293 33.9929 6.03719 32.3982 6.86594 30.9279C7.41367 29.9556 7.63204 28.9255 7.7645 27.8503C7.7756 27.7608 7.78721 27.6712 7.79882 27.5816C7.849 27.1943 7.89931 26.8061 7.90949 26.4179C7.91844 26.077 8.06521 25.9218 8.36235 25.81C8.73824 25.6693 9.08191 25.4546 9.40768 25.2129C9.9572 24.8052 10.3116 24.3073 10.4029 23.5857C10.6034 21.9837 11.4303 20.6776 12.6743 19.7341C14.2487 18.5395 15.725 17.2317 17.2011 15.9239C17.749 15.4386 18.2969 14.9532 18.8497 14.4737C19.8002 13.6511 20.8401 12.9475 21.9034 12.2782C23.2494 11.4285 24.0513 10.2505 24.1515 8.6071C24.2303 7.30642 24.9356 6.81934 26.2118 7.11159C26.4587 7.16751 26.7047 7.23065 26.9507 7.29381C27.1808 7.35289 27.411 7.41198 27.642 7.46517C28.5566 7.67624 29.3549 7.48141 29.9886 6.74718C30.0174 6.71359 30.0481 6.68162 30.0788 6.64962C30.1207 6.606 30.1626 6.56233 30.1998 6.51446C31.5924 4.70506 33.5166 3.90589 35.686 3.54329C36.4547 3.4153 37.229 3.35819 38.0033 3.30109C38.6695 3.25195 39.3357 3.20281 39.998 3.10853C41.7235 2.86318 43.2915 2.29312 44.4998 0.956361C45.1388 0.249195 45.912 0.0255005 46.8446 0.204096C47.8917 0.404339 48.8494 0.797609 49.6584 1.49034C50.7628 2.43564 52.0301 2.52583 53.3654 2.29492C54.2318 2.14519 54.8475 1.64007 55.227 0.837298C55.6047 0.0363249 55.9967 -0.147683 56.8397 0.10668C57.2801 0.240176 57.715 0.402536 58.1339 0.593759C58.9716 0.976206 59.8415 1.10609 60.749 0.999658C62.9345 0.743491 65.0377 1.08986 67.0246 2.00809C69.3282 3.07245 71.7536 3.71106 74.2094 4.26308C75.33 4.51564 76.3574 4.92695 77.1933 5.77843C77.8502 6.44772 78.738 6.71651 79.6187 6.96005C79.6882 6.9793 79.7577 6.99837 79.8273 7.01745C80.3313 7.15563 80.8361 7.29403 81.3174 7.50486C82.6061 8.0677 83.4259 9.04366 83.7839 10.4021C83.8699 10.734 83.9486 10.8459 84.3263 10.8008C85.275 10.6889 86.2308 10.6943 87.1526 11.0244C88.2248 11.4087 88.7725 12.1357 88.7081 13.2704C88.6419 14.4322 89.1126 15.2963 89.9539 16.0179C90.5124 16.4978 91.1335 16.8874 91.7832 17.2212C92.3453 17.5116 92.7713 17.9247 93.1293 18.4389C93.4621 18.917 93.7753 19.4088 94.0885 19.9007C94.5553 20.6338 95.0223 21.3671 95.5547 22.0559C96.0344 22.6764 96.5767 23.214 97.2641 23.6163C98.1519 24.1359 98.7533 24.9441 99.2581 25.8244C100.284 27.6104 100.869 29.5605 101.32 31.5539C101.411 31.9532 101.499 32.3531 101.587 32.753C102.027 34.7524 102.468 36.7518 103.194 38.6761ZM100.387 39.4869C100.953 40.9845 101.579 42.4583 102.373 43.8386C103.506 45.811 103.849 47.872 103.425 50.0845C103.071 51.9472 103.043 53.8314 103.016 55.7185C103.011 56.0279 103.007 56.3374 103.001 56.6469C102.886 62.6018 101.886 68.3899 99.4549 73.8648C98.6865 75.5973 97.8219 77.2822 96.7226 78.8326C95.9661 79.9014 95.0695 80.7983 93.8199 81.268C93.4706 81.399 93.3015 81.6983 93.1347 81.9936C93.1216 82.0167 93.1086 82.0398 93.0954 82.0628C92.8747 82.4513 92.6587 82.8428 92.4428 83.2342C92.0855 83.8818 91.7283 84.5293 91.3494 85.1636C89.1575 88.8414 86.3206 91.8639 82.5111 93.8738C81.1028 94.6159 79.6522 95.2541 78.0801 95.5689C77.5465 95.6744 77.1209 95.974 76.8254 96.4335C76.589 96.8011 76.3543 97.1738 76.1652 97.5669C75.7076 98.5149 74.9443 98.9335 73.9294 98.9471C73.5759 98.9519 73.2215 98.9508 72.8674 98.9498C72.7159 98.9493 72.5644 98.9489 72.413 98.9489C69.3802 98.7412 66.5889 99.5615 64.1674 101.342C62.1039 102.858 59.9272 103.13 57.5378 102.642C56.8715 102.505 56.2335 102.276 55.5966 102.047C55.4411 101.991 55.2856 101.936 55.1298 101.881C53.9849 101.483 53.0224 101.67 52.173 102.567C51.6462 103.124 51.2426 103.127 50.611 102.673C50.3881 102.512 50.1716 102.342 49.955 102.173C49.7384 102.004 49.5219 101.834 49.299 101.674C48.713 101.25 48.0831 101.136 47.3891 101.42C46.9971 101.582 46.5896 101.709 46.1837 101.835C46.1069 101.859 46.0303 101.883 45.9538 101.907C44.8612 102.251 43.8514 102.099 42.9159 101.415C42.1476 100.855 41.3269 100.404 40.3644 100.271C39.6544 100.174 38.9647 100.295 38.2733 100.415L38.2705 100.416C37.1526 100.612 36.2863 100.193 35.6109 99.3233C35.1178 98.6902 34.7969 97.9584 34.6348 97.1789C34.4879 96.4743 34.0877 95.9842 33.5625 95.5587C32.5139 94.7112 31.3217 94.1053 30.1194 93.5215C28.0204 92.5021 25.8759 91.5797 23.6941 90.7594C20.1581 89.4302 17.3111 87.1752 14.8913 84.3195C13.5995 82.7946 12.4799 81.1574 11.7166 79.2887C11.3063 78.2829 10.6916 77.3826 9.90135 76.6542C8.70748 75.5548 8.13841 74.2069 7.99487 72.6208C7.94253 72.0285 7.78548 71.4516 7.5744 70.8933C7.39203 70.4117 7.15056 69.9573 6.75035 69.6288C5.69833 68.7643 5.55817 67.6734 5.92967 66.4463C6.06645 65.997 6.26909 65.575 6.5494 65.1989C6.97831 64.6219 7.02897 64.0161 6.75373 63.3591C6.24038 62.1321 5.83004 60.8727 5.62572 59.5486C5.41021 58.1424 5.45407 56.7317 5.49794 55.3208C5.50117 55.2171 5.50439 55.1134 5.50751 55.0097C5.52946 54.2711 5.53622 53.5359 5.46698 52.8007C5.4045 52.1182 5.21369 51.48 4.89622 50.8639C3.89993 48.9238 3.37307 46.8798 3.69391 44.6776C3.80368 43.9202 4.0975 43.2361 4.59734 42.6523C4.90824 42.2895 5.22169 41.9282 5.5352 41.5669C5.94367 41.0962 6.35224 40.6253 6.75541 40.1506C7.60311 39.1516 8.07255 38.0317 8.11646 36.677C8.1688 35.0688 8.72943 33.5643 9.51127 32.1773C10.028 31.26 10.234 30.2882 10.359 29.2739C10.3694 29.1894 10.3804 29.1049 10.3913 29.0204C10.4387 28.655 10.4861 28.2888 10.4957 27.9226C10.5042 27.6009 10.6427 27.4546 10.923 27.349C11.2776 27.2163 11.6018 27.0138 11.9091 26.7857C12.4275 26.4011 12.7619 25.9314 12.848 25.2506C13.0371 23.7393 13.8173 22.5072 14.9909 21.6171C16.4761 20.4901 17.8688 19.2563 19.2614 18.0226C19.7783 17.5647 20.2951 17.1068 20.8167 16.6544C21.7134 15.8784 22.6945 15.2146 23.6975 14.5832C24.9674 13.7816 25.7239 12.6703 25.8184 11.1199C25.8927 9.89285 26.5581 9.43334 27.7621 9.70904C27.995 9.7618 28.2271 9.82137 28.4591 9.88095C28.6762 9.93669 28.8934 9.99243 29.1113 10.0426C29.9742 10.2417 30.7273 10.0579 31.3251 9.36526C31.3522 9.33358 31.3812 9.30341 31.4102 9.27322C31.4497 9.23207 31.4893 9.19088 31.5244 9.14572C32.8381 7.43873 34.6534 6.6848 36.7 6.34272C37.4252 6.22198 38.1557 6.1681 38.8861 6.11423C39.5147 6.06787 40.1431 6.02152 40.7679 5.93257C42.3958 5.70112 43.875 5.16332 45.0149 3.90223C45.6177 3.23509 46.3472 3.02406 47.227 3.19254C48.2148 3.38145 49.1183 3.75246 49.8815 4.40598C50.9234 5.29777 52.119 5.38286 53.3787 5.16502C54.196 5.02377 54.7769 4.54724 55.1349 3.7899C55.4912 3.03427 55.861 2.86068 56.6563 3.10064C57.0718 3.22658 57.4821 3.37975 57.8772 3.56015C58.6675 3.92095 59.4882 4.04348 60.3443 3.94307C62.4062 3.70141 64.3903 4.02817 66.2647 4.89442C68.438 5.89853 70.7261 6.501 73.0429 7.02177C74.1 7.26004 75.0692 7.64806 75.8578 8.45135C76.4776 9.08275 77.3151 9.33633 78.1459 9.56608C78.2115 9.58425 78.2771 9.60224 78.3427 9.62024C78.8182 9.75059 79.2944 9.88116 79.7485 10.0801C80.9643 10.611 81.7377 11.5318 82.0754 12.8133C82.1565 13.1264 82.2308 13.2319 82.5871 13.1894C83.482 13.0839 84.3838 13.089 85.2534 13.4004C86.2649 13.7629 86.7816 14.4488 86.7208 15.5193C86.6584 16.6153 87.1025 17.4305 87.8961 18.1112C88.423 18.5639 89.009 18.9315 89.6219 19.2464C90.1522 19.5204 90.5541 19.9101 90.8918 20.3952C91.2058 20.8462 91.5012 21.3102 91.7967 21.7743C92.2371 22.4659 92.6777 23.1577 93.1799 23.8074C93.6324 24.3929 94.1441 24.9 94.7925 25.2796C95.6301 25.7697 96.1975 26.5321 96.6737 27.3626C97.6413 29.0475 98.1934 30.8872 98.619 32.7678C98.7043 33.1445 98.7874 33.5218 98.8705 33.899C99.2861 35.7853 99.7017 37.6715 100.387 39.4869Z" fill="#037847"/>
<path d="M44.2159 45.7464C43.9323 45.7464 43.781 45.6288 43.705 45.5278C43.5854 45.3715 43.5632 45.1569 43.6369 44.891L43.6899 44.6985C44.0385 43.4391 44.1977 42.8646 45.9949 41.7914C46.4796 41.501 46.9945 41.3472 47.48 41.3472C48.1549 41.3472 48.6959 41.6573 48.8582 42.1355C48.9398 42.3761 49.0293 43.0153 48.0971 43.7247C47.0285 44.5382 45.1132 45.7463 44.2158 45.7463L44.2159 45.7464ZM44.1668 45.1798C44.1771 45.1798 44.1929 45.1806 44.2159 45.1806C44.7838 45.1806 46.3711 44.3252 47.7541 43.2742C48.1992 42.9356 48.4115 42.5782 48.322 42.3162C48.2404 42.0755 47.9022 41.9122 47.4816 41.9122C47.2147 41.9122 46.7901 41.9753 46.2879 42.2752C44.6855 43.2323 44.5731 43.6395 44.2381 44.8475L44.1834 45.0424C44.1628 45.1134 44.1605 45.1576 44.1605 45.1789C44.1636 45.1797 44.1652 45.1797 44.1668 45.1797L44.1668 45.1798Z" fill="#222222" stroke="#222222" stroke-width="0.5"/>
<path d="M40.4818 48.3117C40.1151 48.3117 39.8553 48.2044 39.7095 47.9929C39.5471 47.7562 39.5519 47.4311 39.7206 46.9987C40.5317 44.9376 42.6197 42.3257 42.7068 42.2144C44.2554 40.5794 46.882 38.9082 48.6254 38.9082C49.7312 38.9082 51.0666 39.3722 51.4825 40.2567C51.6457 40.6063 51.7257 41.1595 51.176 41.8136C51.0318 41.984 50.8742 42.1782 50.7039 42.3873C49.473 43.9023 47.6108 46.1906 45.4192 46.8384C44.8766 46.9994 44.2493 47.2243 43.6433 47.4413C42.399 47.8887 41.2226 48.3116 40.4821 48.3116L40.4818 48.3117ZM48.6268 39.4732C47.0585 39.4732 44.5563 41.0885 43.1369 42.5853C43.1314 42.5932 41.0291 45.2247 40.2506 47.2037C40.1453 47.4728 40.1461 47.6243 40.1793 47.6732C40.2031 47.708 40.2966 47.7458 40.4827 47.7458C41.1235 47.7458 42.3077 47.3205 43.4529 46.9086C44.0676 46.6877 44.7013 46.4604 45.2597 46.2955C47.2835 45.6982 49.0775 43.4911 50.265 42.0298C50.4361 41.8183 50.5969 41.6226 50.7418 41.4482C51.0333 41.1018 51.1078 40.7885 50.9691 40.4942C50.7054 39.9316 49.6535 39.4731 48.6269 39.4731L48.6268 39.4732Z" fill="#222222" stroke="#222222" stroke-width="0.5"/>
<path d="M37.647 52.1455C37.1931 52.1455 36.8517 52.0043 36.6315 51.7273C36.3226 51.3367 36.2783 50.7039 36.4977 49.7893L36.5167 49.7104C37.4909 45.6529 37.8941 43.9739 41.5005 41.0155C45.7396 37.538 48.0296 36.4215 51.3034 36.2407C52.5652 36.1673 53.4848 36.6873 53.9062 37.6721C54.6761 39.4728 53.5291 42.3443 50.9842 44.9853C47.0483 49.0704 46.234 49.3031 44.0605 49.9241C43.845 49.9864 43.6145 50.0519 43.3666 50.1253C42.7337 50.3139 41.982 50.6445 41.186 50.9949C39.8988 51.5599 38.5665 52.1454 37.647 52.1454L37.647 52.1455ZM51.522 36.7994C51.461 36.7994 51.3984 36.8002 51.3343 36.8041C48.2038 36.977 45.9893 38.0635 41.8601 41.4503C38.4009 44.287 38.0382 45.7996 37.0679 49.8405L37.0489 49.9194C36.8319 50.8214 36.9443 51.2104 37.0758 51.3761C37.1835 51.5126 37.3697 51.5797 37.6445 51.5797C38.4461 51.5797 39.7222 51.0186 40.9571 50.4765C41.7689 50.1191 42.5365 49.7821 43.2034 49.5825C43.4545 49.5075 43.6858 49.4413 43.9044 49.3789C45.9708 48.7887 46.744 48.567 50.5752 44.5916C53.4767 41.5813 53.9011 39.1019 53.3847 37.8923C53.0781 37.1774 52.4342 36.7994 51.5217 36.7994L51.522 36.7994Z" fill="#222222" stroke="#222222" stroke-width="0.5"/>
<path d="M33.4016 57.6926C33.0958 57.6926 32.8511 57.5901 32.6705 57.3881C32.3307 57.0077 32.2443 56.292 32.3869 55.0642C32.9675 50.1104 35.7493 44.8589 38.2507 41.8527C40.5161 39.1288 43.3288 36.3394 48.5265 34.391C51.0192 33.4567 53.8327 32.502 55.8051 32.502C56.8895 32.502 57.6483 32.7987 58.0601 33.3818C58.556 34.0833 58.5393 35.1406 58.0079 36.6122C55.6926 43.033 50.6565 50.7241 43.4635 53.0558C40.7015 53.9507 38.3808 55.2716 36.6864 56.2366C35.206 57.0825 34.1367 57.6925 33.4016 57.6925L33.4016 57.6926ZM55.8061 33.0683C53.9249 33.0683 51.1717 34.0049 48.7272 34.921C43.6546 36.8227 40.9054 39.5498 38.6891 42.2138C36.2425 45.1562 33.5192 50.2908 32.9537 55.1302C32.8356 56.1394 32.8832 56.7715 33.097 57.0106C33.1446 57.065 33.2222 57.1258 33.4036 57.1258C33.9857 57.1258 35.0543 56.5174 36.4079 55.7465C38.1235 54.7688 40.4745 53.4305 43.291 52.5184C50.2946 50.2483 55.3094 42.4277 57.4765 36.4219C57.9327 35.153 57.9739 34.24 57.5977 33.7067C57.2975 33.2846 56.6955 33.0684 55.806 33.0684L55.8061 33.0683Z" fill="#222222" stroke="#222222" stroke-width="0.5"/>
<path d="M26.597 66.5974C26.528 66.5974 26.4583 66.5721 26.4037 66.5224C26.2888 66.4159 26.2825 66.2376 26.3879 66.1224C28.9773 63.3353 32.0077 61.066 35.3971 59.378C37.8882 58.1368 39.9642 57.2119 41.797 56.3952C45.2981 54.8352 47.8288 53.7084 50.3318 51.6449C54.2336 48.4253 58.6684 43.0045 59.7807 38.1469C60.1007 36.7487 60.3169 35.6194 60.5054 34.6229C60.9981 32.0332 61.2682 30.6081 62.5997 28.884C63.2832 27.9994 64.2916 26.4559 65.3616 24.8219C65.7854 24.1725 66.2203 23.5096 66.6472 22.8657C66.7359 22.7355 66.9118 22.7008 67.0409 22.7852C67.1716 22.8713 67.208 23.0464 67.1217 23.1766C66.6939 23.8205 66.2607 24.4818 65.8377 25.1304C64.7636 26.7741 63.7473 28.3261 63.0512 29.2289C61.8028 30.8465 61.5407 32.2242 61.0662 34.7281C60.8753 35.7294 60.6599 36.8649 60.3375 38.2734C59.1177 43.6005 54.3818 49.0413 50.697 52.0801C48.1337 54.1932 45.5745 55.3334 42.0316 56.9116C40.2059 57.7252 38.1345 58.6468 35.6546 59.8833C32.3263 61.5404 29.3504 63.7687 26.8078 66.5052C26.7492 66.5676 26.6747 66.5976 26.5971 66.5976L26.597 66.5974Z" fill="#222222" stroke="#222222" stroke-width="0.5"/>
<path d="M25.707 64.0478C25.6468 64.0478 25.5874 64.0289 25.5359 63.9902C25.4107 63.8963 25.3862 63.7188 25.4812 63.5941C25.9446 62.9834 26.2773 62.5478 26.5284 62.2219C27.2793 61.2426 27.2793 61.2426 27.8306 60.3636L28.446 59.3907C29.7134 57.3974 30.5229 54.4755 31.3062 51.6507C31.9002 49.5084 32.461 47.4843 33.1874 45.9978C35.0448 42.1991 37.7632 37.4511 42.3264 34.4211C44.7193 32.8326 47.063 32.3836 49.3292 31.9505C51.5763 31.5205 53.7 31.1149 55.8877 29.6804C58.7178 27.8253 61.3222 24.5774 63.4149 21.9679C63.5147 21.8471 63.6929 21.8266 63.8149 21.9237C63.9361 22.0207 63.9567 22.1999 63.8592 22.3222C61.7413 24.9624 59.1052 28.2498 56.1999 30.1545C53.917 31.6498 51.6399 32.087 49.4355 32.5083C47.2249 32.9312 44.938 33.3691 42.6402 34.8937C38.1911 37.8489 35.524 42.514 33.6968 46.2478C32.9927 47.6871 32.439 49.6866 31.8513 51.803C31.0576 54.6682 30.2354 57.6296 28.9236 59.6953L28.309 60.6659C27.7426 61.5662 27.7426 61.5662 26.9759 62.566C26.7264 62.8926 26.3937 63.3274 25.9303 63.9358C25.8773 64.0092 25.7933 64.0478 25.707 64.0478L25.707 64.0478Z" fill="#222222" stroke="#222222" stroke-width="0.5"/>
<path d="M29.7475 72.2849C29.6865 72.2849 29.6247 72.2643 29.5724 72.2249C29.4489 72.1286 29.4267 71.9511 29.5233 71.8264C31.8457 68.8697 33.7363 66.9058 35.304 65.8254C37.0371 64.6284 39.9138 63.4573 43.2446 62.1003C48.855 59.8144 55.2154 57.2237 57.9076 53.7328C62.0748 48.33 63.9434 40.7122 65.6408 32.7243C66.1849 30.152 67.7936 27.3766 70.4202 24.4777C70.5271 24.3625 70.7061 24.353 70.8218 24.4572C70.9374 24.5613 70.9469 24.7396 70.8424 24.8564C68.2831 27.6813 66.7204 30.3665 66.196 32.8403C64.4859 40.8944 62.5984 48.5793 58.3598 54.075C55.5733 57.6867 49.1382 60.3095 43.4606 62.6223C40.2977 63.9108 37.3109 65.1275 35.6276 66.2876C34.1084 67.3363 32.2589 69.2618 29.9712 72.1735C29.9142 72.2453 29.831 72.2831 29.7471 72.2831L29.7475 72.2849Z" fill="#222222" stroke="#222222" stroke-width="0.5"/>
<path d="M31.5338 74.2751C31.4736 74.2751 31.4134 74.2562 31.3612 74.2159C31.236 74.122 31.2123 73.9445 31.3081 73.8198C33.3819 71.1148 35.1815 69.2905 36.9724 68.0768C39.385 66.4418 42.5026 65.3033 45.8034 64.0959C50.5361 62.367 55.4305 60.579 57.9057 57.2389C58.2772 56.7386 58.6384 56.2572 58.9869 55.7901C62.6322 50.9246 65.0393 47.7099 66.1126 40.5387C66.6805 36.7582 69.3205 31.5558 73.3555 26.2635C73.4521 26.1388 73.6288 26.1167 73.7539 26.209C73.8775 26.3029 73.9028 26.4813 73.8086 26.6059C69.8299 31.8241 67.2296 36.9326 66.675 40.6232C65.5803 47.9356 63.139 51.1954 59.4441 56.1287C59.0939 56.5951 58.7344 57.0756 58.3645 57.5759C55.787 61.0518 50.8119 62.8699 45.9999 64.6279C42.7342 65.8226 39.649 66.9493 37.294 68.5458C35.5554 69.7247 33.7978 71.5096 31.7621 74.1633C31.7035 74.2367 31.6196 74.2754 31.534 74.2754L31.5338 74.2751Z" fill="#222222" stroke="#222222" stroke-width="0.5"/>
<path d="M53.1736 84.9995C53.1023 84.9995 53.0294 84.9727 52.974 84.9183C52.8631 84.8086 52.8615 84.6295 52.9716 84.5182C54.8013 82.6733 61.8549 76.3701 63.7764 77.0535C63.9491 77.1158 64.2469 77.2934 64.2896 77.7866C64.4449 79.5478 63.8706 82.0208 62.8283 84.0867C62.7578 84.2256 62.5867 84.2792 62.4465 84.2122C62.3071 84.1419 62.25 83.9715 62.3205 83.8318C63.3202 81.8536 63.8706 79.499 63.7241 77.8341C63.7059 77.6274 63.6227 77.5974 63.5831 77.5832C62.3863 77.1602 56.5509 81.7101 53.3747 84.9137C53.32 84.9713 53.2472 84.9997 53.1735 84.9997L53.1736 84.9995Z" fill="#222222" stroke="#222222" stroke-width="0.5"/>
<path d="M59.8438 84.8315C59.8026 84.8315 59.7622 84.8228 59.7226 84.8047C59.5808 84.7376 59.5206 84.5695 59.5887 84.4283C60.0592 83.4419 60.0632 82.9014 59.9111 82.7246C59.7828 82.5755 59.4636 82.652 59.3344 82.6907C58.4259 82.9622 57.8184 83.3685 56.2397 84.7588C56.1217 84.8614 55.9419 84.8519 55.8389 84.7352C55.7343 84.6176 55.7454 84.4385 55.8627 84.3351C57.3811 82.9968 58.109 82.4665 59.1697 82.1494C59.8541 81.9458 60.197 82.1912 60.3396 82.3561C60.7032 82.7783 60.62 83.5792 60.0988 84.6721C60.0521 84.7715 59.9507 84.8315 59.8438 84.8315L59.8438 84.8315Z" fill="#222222" stroke="#222222" stroke-width="0.5"/>
<path d="M51.3135 84.6966C51.2431 84.6966 51.1726 84.6714 51.1179 84.6201C51.0046 84.5112 50.9999 84.3328 51.1076 84.22C55.2637 79.8658 58.0273 77.1238 61.3611 75.754C62.2308 75.3989 63.1662 75.0722 64.0724 74.7582C67.7746 73.4743 71.602 72.1446 73.27 68.0873C74.1452 65.9538 75.2518 61.8757 76.4209 57.5554C78.1278 51.2601 80.0613 44.1229 81.9615 40.3385C82.3987 39.469 82.9254 38.4818 83.5726 37.3226C83.6486 37.1869 83.8237 37.1356 83.9583 37.2129C84.0953 37.2887 84.1445 37.4607 84.0692 37.5972C83.4268 38.75 82.9033 39.7294 82.4692 40.5901C80.5943 44.3256 78.6688 51.4321 76.969 57.7021C75.7951 62.0382 74.6845 66.1334 73.7951 68.2995C72.0296 72.5945 68.0802 73.966 64.2593 75.2915C63.3199 75.6174 62.432 75.9251 61.5796 76.2755C58.3478 77.6027 55.624 80.3085 51.5202 84.6066C51.4632 84.6665 51.3879 84.6965 51.3135 84.6965L51.3135 84.6966Z" fill="#222222" stroke="#222222" stroke-width="0.5"/>
<path d="M48.1401 84.0982C48.0696 84.0982 47.9983 84.0722 47.9437 84.0201C47.8304 83.9112 47.8265 83.7329 47.9358 83.62C52.1172 79.2816 55.4289 76.1246 58.0047 74.8146C59.1881 74.2126 60.5601 73.8488 62.0119 73.4653C64.3057 72.8593 66.6765 72.2312 68.465 70.593C71.4243 67.8778 73.8852 60.4802 74.9181 54.7538C75.7537 50.1289 78.7629 40.9544 81.9097 34.6646C81.9802 34.5242 82.1537 34.4681 82.2899 34.5376C82.4309 34.6078 82.4872 34.7759 82.4174 34.9163C79.2927 41.1627 76.3048 50.2679 75.4771 54.8532C74.4276 60.6703 71.9057 68.2061 68.8488 71.0081C66.9589 72.741 64.5192 73.3879 62.1581 74.0113C60.7355 74.3877 59.3907 74.7436 58.261 75.3181C55.7571 76.5932 52.486 79.7149 48.3441 84.0113C48.2887 84.0682 48.2134 84.0981 48.1398 84.0981L48.1401 84.0982Z" fill="#222222" stroke="#222222" stroke-width="0.5"/>
<path d="M36.9483 79.0715C36.8778 79.0715 36.8089 79.0462 36.7542 78.9957C36.6394 78.8884 36.6339 78.7093 36.7416 78.5956C39.8132 75.3312 42.9714 72.9031 46.1278 71.3772L47.4664 70.7325C52.2807 68.4157 56.8281 66.2292 60.6151 62.8866C64.3291 59.6103 67.2202 53.9479 69.2109 46.0548C69.4303 45.1813 69.6275 44.3827 69.8081 43.6473C71.0841 38.4663 71.6125 36.3222 74.2501 32.6223C74.978 31.6004 75.9126 30.3394 76.8845 29.0714C76.9788 28.9468 77.157 28.9231 77.2821 29.0186C77.4073 29.1133 77.431 29.2908 77.3352 29.4155C76.3681 30.678 75.4366 31.9335 74.7133 32.9506C72.1367 36.5622 71.6543 38.5285 70.3583 43.7831C70.1777 44.5193 69.9805 45.3178 69.7595 46.1938C67.7413 54.1998 64.7908 59.9578 60.9896 63.3113C57.1431 66.7035 52.5625 68.9074 47.7119 71.2424L46.3741 71.8863C43.2794 73.3816 40.1775 75.7702 37.1525 78.9825C37.1003 79.0425 37.0242 79.0717 36.9482 79.0717L36.9483 79.0715Z" fill="#222222" stroke="#222222" stroke-width="0.5"/>
<path d="M40.6027 81.2807C40.5417 81.2807 40.4799 81.2602 40.4276 81.2199C40.3041 81.1237 40.2835 80.9461 40.3801 80.823C41.9984 78.7723 43.3315 77.254 46.9727 74.9459C52.3067 71.5648 54.9427 70.3992 59.9336 68.2876C64.6339 66.2999 66.6979 62.8951 68.866 57.3068C70.15 53.9966 71.1425 50.0741 72.1025 46.2794C72.653 44.0984 73.1742 42.0381 73.7358 40.1451C74.4526 37.7273 76.1731 34.3643 78.581 30.6753C78.6674 30.5443 78.8424 30.5088 78.9747 30.5925C79.1054 30.6777 79.1426 30.8529 79.0579 30.9839C76.6777 34.6286 74.9825 37.9389 74.2815 40.3054C73.7231 42.1889 73.2043 44.242 72.653 46.4184C71.6891 50.2281 70.6918 54.1688 69.3961 57.5097C67.5204 62.3467 65.53 66.5361 60.1548 68.8087C55.1924 70.9069 52.5729 72.0652 47.2771 75.4227C43.7111 77.6819 42.4081 79.1661 40.8264 81.172C40.771 81.243 40.687 81.2809 40.6031 81.2809L40.6027 81.2807Z" fill="#222222" stroke="#222222" stroke-width="0.5"/>
<path d="M65.5957 83.6061C65.5696 83.6061 65.5426 83.6029 65.5149 83.5934C65.3652 83.5492 65.2789 83.3922 65.324 83.2415C65.461 82.7767 65.5798 82.3238 65.6939 81.8827C66.0979 80.3321 66.4805 78.866 67.5933 77.4117C68.6532 76.0269 70.0234 75.1777 71.3487 74.3564C73.0644 73.2927 74.6849 72.2883 75.5285 70.2193C76.0972 68.8227 76.8275 66.173 77.6726 63.1065C79.1229 57.8419 80.9282 51.2901 83.0303 46.9177C83.9095 45.0831 84.6905 43.2476 85.4026 41.5377C85.462 41.3925 85.6299 41.3246 85.7725 41.3846C85.9182 41.4446 85.9863 41.6095 85.9261 41.7547C85.2117 43.4733 84.4299 45.3158 83.5427 47.1629C81.4635 51.4903 79.6663 58.0136 78.2207 63.2571C77.3716 66.3417 76.6365 69.0063 76.0551 70.4337C75.1418 72.6739 73.3675 73.7739 71.6502 74.8398C70.3678 75.6337 69.0428 76.4567 68.0469 77.757C67.0022 79.1213 66.6513 80.4675 66.245 82.0276C66.1277 82.4758 66.0089 82.9327 65.8687 83.4053C65.8315 83.526 65.719 83.6057 65.5954 83.6057L65.5957 83.6061Z" fill="#222222" stroke="#222222" stroke-width="0.5"/>
<path d="M67.5426 83.0722C67.5188 83.0722 67.4959 83.069 67.4721 83.0635C67.32 83.0249 67.2289 82.8702 67.2677 82.7187C67.682 81.1161 68.1065 79.9577 70.1556 78.5081C71.4317 77.6054 72.6777 77.0333 73.7756 76.5283C75.8856 75.5585 77.5514 74.7931 78.3767 72.2523C78.73 71.1688 79.1672 69.2434 79.7232 66.8052C81.1799 60.4105 83.3819 50.7442 86.4434 46.3441C86.5321 46.2155 86.7079 46.1855 86.8386 46.2731C86.9669 46.3623 87.0002 46.5375 86.9091 46.6669C83.9103 50.9768 81.7242 60.5783 80.2762 66.932C79.7185 69.3837 79.2766 71.3201 78.9178 72.4271C78.0164 75.2031 76.1604 76.0553 74.0131 77.0425C72.9374 77.5381 71.7185 78.0983 70.4836 78.9703C68.5881 80.3109 68.2127 81.3335 67.8175 82.8597C67.7842 82.9867 67.6694 83.0727 67.5426 83.0727L67.5426 83.0722Z" fill="#222222" stroke="#222222" stroke-width="0.5"/>
<path d="M81.4998 71.9119C81.4761 71.9119 81.4507 71.9087 81.4269 71.9016C81.2749 71.8606 81.1854 71.7059 81.2258 71.5552C81.4357 70.7772 81.7303 69.3372 82.1026 67.5135C83.2242 62.0301 84.9201 53.7456 87.0635 49.5476C87.134 49.4071 87.305 49.3543 87.4452 49.4245C87.5846 49.4947 87.6409 49.6651 87.5688 49.8048C85.461 53.934 83.7066 62.5075 82.6586 67.6285C82.284 69.46 81.9877 70.9079 81.7731 71.7034C81.739 71.8296 81.6257 71.9117 81.4998 71.9117L81.4998 71.9119Z" fill="#222222" stroke="#222222" stroke-width="0.5"/>
<path d="M23.9631 56.3613C23.9156 56.3613 23.8665 56.3487 23.8221 56.3242C23.6859 56.2477 23.6384 56.0741 23.7168 55.9384C25.9195 52.1011 26.9754 48.9708 28.0931 45.6567C28.3869 44.7872 28.6855 43.8987 29.0143 42.9747C31.1807 36.8616 35.168 30.149 39.1917 28.9338C40.5723 28.5163 42.1826 28.3206 43.8871 28.1115C47.08 27.7209 50.3822 27.3161 52.653 25.4325C53.861 24.4288 54.9596 23.3794 56.2302 22.1633C56.5969 21.8114 56.9747 21.4508 57.37 21.0775C57.4832 20.9702 57.663 20.9749 57.7716 21.0878C57.8793 21.2006 57.8745 21.3797 57.7605 21.4879C57.3668 21.8611 56.9898 22.2209 56.6238 22.5713C55.3454 23.7951 54.2404 24.8517 53.0175 25.868C50.6183 27.8588 47.2322 28.2731 43.9567 28.6732C42.2775 28.8792 40.6911 29.0733 39.3578 29.4749C35.5234 30.6325 31.6691 37.1834 29.5503 43.1632C29.2231 44.0841 28.9261 44.9694 28.633 45.8373C27.5067 49.1791 26.4413 52.3354 24.2101 56.22C24.1571 56.3107 24.0604 56.3612 23.963 56.3612L23.9631 56.3613Z" fill="#222222" stroke="#222222" stroke-width="0.5"/>
<path d="M37.2484 27.1191C37.109 27.1191 36.987 27.0173 36.968 26.8745C36.9466 26.7198 37.0552 26.577 37.2096 26.5557L38.2488 26.4145C42.3899 25.8542 48.0635 25.0888 50.6338 23.0594C51.5273 22.3531 51.8568 22.0683 52.7938 21.089C52.9031 20.9746 53.0821 20.9722 53.1954 21.0788C53.3087 21.1861 53.3134 21.3652 53.2057 21.4788C52.2441 22.4841 51.9059 22.7785 50.9871 23.5029C48.2941 25.6286 42.5333 26.4067 38.3257 26.9756L37.2881 27.1168C37.2762 27.1176 37.2628 27.1192 37.2485 27.1192L37.2484 27.1191Z" fill="#222222" stroke="#222222" stroke-width="0.5"/>
<path d="M23.8835 49.6562C23.8416 49.6562 23.7996 49.6475 23.76 49.6278C23.619 49.5599 23.5604 49.3911 23.6285 49.2498C26.1141 44.1286 29.0843 37.4309 29.9644 33.9906C30.0032 33.8391 30.1608 33.7475 30.3097 33.7862C30.4618 33.8249 30.5537 33.9787 30.5149 34.1302C29.6246 37.6108 26.6384 44.3497 24.14 49.4959C24.0917 49.5985 23.9895 49.6561 23.8834 49.6561L23.8835 49.6562Z" fill="#222222" stroke="#222222" stroke-width="0.5"/>
</svg>
