<svg width="93" height="93" viewBox="0 0 93 93" fill="none" xmlns="http://www.w3.org/2000/svg">
<path d="M47.354 58.8274C57.1846 58.2289 64.9995 50.0404 64.9995 40.0621C64.9995 39.4893 64.5776 39.0032 64.0096 38.923C60.1625 38.3831 56.839 38.7273 54.0545 39.9065C53.9013 36.8397 52.7935 30.8515 46.904 26.288C46.4893 25.9671 45.9101 25.9671 45.4954 26.288C39.6058 30.8517 38.4981 36.839 38.3449 39.9056C35.5613 38.7264 32.2396 38.3815 28.3898 38.923C27.8219 39.0024 27.3999 39.4893 27.3999 40.0621C27.3999 50.0434 35.2187 58.2328 45.0542 58.8274V66.205C45.0542 66.8403 45.5692 67.3553 46.2045 67.3553C46.8399 67.3553 47.3549 66.8411 47.3549 66.205L47.354 58.8274ZM45.0542 56.5227C36.8231 55.9555 30.234 49.3263 29.7311 41.0784C34.1863 40.6404 37.7505 41.5493 40.339 43.793C44.5441 47.4373 44.9996 53.5916 45.0487 54.7652C45.0463 54.8695 45.0455 54.9369 45.0455 54.9617C45.0455 55.0115 45.0479 55.0596 45.0543 55.1069L45.0542 56.5227ZM46.1997 48.7175C45.412 46.4649 44.0876 44.0031 41.8599 42.0666C41.466 41.724 41.0529 41.412 40.6246 41.1208C40.5628 39.3352 40.797 33.3333 46.1996 28.6815C51.6029 33.3333 51.8364 39.336 51.7754 41.1216C51.3471 41.412 50.934 41.7248 50.5401 42.0666C48.3116 44.003 46.9872 46.4649 46.1995 48.7175L46.1997 48.7175ZM52.0483 43.8033C54.6384 41.5515 58.209 40.6387 62.6683 41.079C62.1653 49.323 55.5802 55.9513 47.354 56.5216V54.9614C47.354 54.9357 47.3532 54.8659 47.3508 54.7568C47.3981 53.5672 47.8449 47.4562 52.0484 43.8031L52.0483 43.8033Z" fill="#037847"/>
<path d="M31.3259 21.7585C31.3652 21.7617 31.4037 21.7641 31.443 21.7641C31.8971 21.7641 32.3142 21.4945 32.4979 21.071C32.6062 20.8215 35.1195 14.9031 32.611 10.6268C30.1026 6.35122 23.7117 5.65486 23.4406 5.62672C22.944 5.58822 22.4683 5.85455 22.2694 6.3142C22.1611 6.56366 19.6478 12.4821 22.1563 16.7584C24.6639 21.0348 31.0557 21.7303 31.3259 21.7585L31.3259 21.7585ZM24.0783 8.05335C25.7043 8.367 29.1713 9.30876 30.6265 11.7898C32.076 14.2605 31.2064 17.7556 30.6882 19.3311C29.0622 19.0175 25.596 18.0765 24.14 15.5947C22.6905 13.124 23.5601 9.62967 24.0783 8.05335Z" fill="#037847"/>
<path d="M0.42795 45.8757C0.135152 46.2824 0.139177 46.8311 0.436774 47.2338C0.598812 47.452 4.44123 52.5562 9.37698 52.5546H9.42591C14.3834 52.5209 18.1809 47.3332 18.3404 47.1126C18.6332 46.7059 18.6292 46.1573 18.3316 45.7545C18.1696 45.5364 14.3272 40.4346 9.39142 40.4346H9.34249C4.38579 40.4667 0.587512 45.6543 0.42795 45.8757ZM9.35768 42.7344H9.35848H9.39218C12.2431 42.7344 14.8198 45.2196 15.9203 46.4509C14.8357 47.7031 12.2865 50.2348 9.40984 50.2547H9.37614C6.52518 50.2547 3.94857 47.7681 2.84806 46.5374C3.93341 45.2844 6.48103 42.7535 9.35766 42.7342L9.35768 42.7344Z" fill="#037847"/>
<path d="M22.0089 86.9512C22.1958 87.3667 22.6089 87.6298 23.0574 87.6298C23.1015 87.6298 23.1456 87.6274 23.1897 87.6218C23.46 87.5905 29.8406 86.8084 32.2911 82.4984C34.7402 78.1867 32.1467 72.3043 32.0352 72.0564C31.8299 71.6007 31.3494 71.3272 30.8552 71.3858C30.5849 71.4163 24.2035 72.1976 21.7538 76.5092C19.3031 80.8201 21.8966 86.7025 22.0089 86.9512L22.0089 86.9512ZM23.7528 77.6453C25.1679 75.1545 28.6292 74.1606 30.252 73.8213C30.7934 75.3871 31.7127 78.8589 30.2913 81.3618C28.8754 83.8518 25.4141 84.8465 23.7905 85.1858C23.2498 83.6199 22.3305 80.1473 23.7528 77.6453H23.7528Z" fill="#037847"/>
<path d="M68.9597 87.7765C68.999 87.7797 69.0375 87.7821 69.0768 87.7821C69.5308 87.7821 69.948 87.5126 70.1317 87.0891C70.24 86.8396 72.7533 80.9212 70.2448 76.6448C67.7363 72.3685 61.3454 71.6729 61.0744 71.6448C60.5762 71.6007 60.1021 71.8726 59.9032 72.3323C59.7949 72.5817 57.2816 78.5002 59.7901 82.7765C62.2977 87.052 68.6894 87.7484 68.9597 87.7765L68.9597 87.7765ZM61.712 74.0723C63.3381 74.3859 66.8043 75.3269 68.2603 77.8087C69.7098 80.2794 68.8402 83.7745 68.322 85.35C66.696 85.0364 63.229 84.0946 61.7738 81.6136C60.3243 79.1429 61.1938 75.6478 61.712 74.0723Z" fill="#037847"/>
<path d="M91.9718 47.5265C92.2646 47.1198 92.2606 46.5712 91.963 46.1685C91.8009 45.9503 87.9585 40.8477 83.0228 40.8477H82.9738C78.0163 40.8813 74.2189 46.0691 74.0593 46.2896C73.7665 46.6963 73.7705 47.245 74.0681 47.6477C74.2302 47.8659 78.0726 52.9677 83.0083 52.9677H83.0573C88.014 52.9356 91.8122 47.7479 91.9718 47.5265ZM83.0421 50.6679H83.0413C80.1936 50.643 77.5849 48.1884 76.4795 46.9513C77.564 45.6991 80.1133 43.1674 82.9899 43.1475H83.0236C85.8746 43.1475 88.4512 45.6342 89.5517 46.8649C88.4663 48.1179 85.9187 50.6488 83.0421 50.6681L83.0421 50.6679Z" fill="#037847"/>
<path d="M70.3909 6.45208C70.1855 5.99644 69.7099 5.7221 69.2101 5.78147C68.9398 5.81275 62.5592 6.59487 60.1087 10.9049C57.6596 15.2166 60.2531 21.099 60.3646 21.3469C60.5515 21.7624 60.9646 22.0255 61.413 22.0255C61.4571 22.0255 61.5013 22.0231 61.5454 22.0175C61.8157 21.987 68.1971 21.2057 70.6468 16.8941C73.0967 12.5832 70.5032 6.70078 70.3909 6.45209L70.3909 6.45208ZM68.647 15.758C67.2319 18.2488 63.7706 19.2427 62.1478 19.582C61.6064 18.0161 60.6871 14.5444 62.1085 12.0415C63.5244 9.55153 66.9858 8.55678 68.6093 8.21753C69.15 9.78338 70.0693 13.256 68.647 15.758H68.647Z" fill="#037847"/>
<path d="M47.35 9.98532V1.85052C47.35 1.21519 46.835 0.700195 46.1996 0.700195C45.5643 0.700195 45.0493 1.21439 45.0493 1.85052V9.98614C45.0493 10.6215 45.5643 11.1365 46.1996 11.1365C46.835 11.1357 47.35 10.6215 47.35 9.98534V9.98532Z" fill="#037847"/>
<path d="M6.36269 23.7013C6.04583 24.2516 6.23355 24.9543 6.78384 25.2727L13.8294 29.3406C14.0107 29.4449 14.2081 29.4946 14.403 29.4946C14.8009 29.4946 15.1867 29.2877 15.4001 28.9195C15.717 28.3692 15.5292 27.6665 14.979 27.348L7.93336 23.2801C7.38227 22.9624 6.68036 23.1518 6.36272 23.7013H6.36269Z" fill="#037847"/>
<path d="M13.8294 64.0618L6.78384 68.1297C6.23355 68.4474 6.04583 69.1501 6.36269 69.7003C6.57608 70.0702 6.96273 70.2755 7.35981 70.2755C7.55474 70.2755 7.75288 70.2258 7.93337 70.1215L14.979 66.0536C15.5292 65.7359 15.717 65.0324 15.4001 64.4821C15.0832 63.931 14.3789 63.7433 13.8294 64.0618H13.8294Z" fill="#037847"/>
<path d="M46.1999 82.2647C45.5646 82.2647 45.0496 82.7789 45.0496 83.415V91.5498C45.0496 92.1851 45.5646 92.7001 46.1999 92.7001C46.8352 92.7001 47.3502 92.1859 47.3502 91.5498V83.4142C47.3502 82.7788 46.8352 82.2646 46.1999 82.2646V82.2647Z" fill="#037847"/>
<path d="M78.5704 64.0619C78.0185 63.7442 77.3174 63.9335 76.9989 64.483C76.6821 65.0333 76.8698 65.736 77.4201 66.0544L84.4657 70.1224C84.647 70.2258 84.8443 70.2756 85.0392 70.2756C85.4371 70.2756 85.8229 70.0686 86.0363 69.7004C86.3532 69.1501 86.1655 68.4474 85.6152 68.129L78.5704 64.0619Z" fill="#037847"/>
<path d="M84.4662 23.28L77.4206 27.3479C76.8703 27.6656 76.6825 28.3691 76.9994 28.9193C77.2128 29.2891 77.5994 29.4945 77.9965 29.4945C78.1915 29.4945 78.3896 29.4448 78.5701 29.3405L85.6157 25.2726C86.1668 24.9541 86.3545 24.2514 86.0376 23.7011C85.7191 23.15 85.0148 22.9623 84.4662 23.28H84.4662Z" fill="#037847"/>
</svg>
