<svg width="93" height="93" viewBox="0 0 93 93" fill="none" xmlns="http://www.w3.org/2000/svg">
<path d="M30.2353 36.2731C29.8277 36.2731 29.6102 36.104 29.5009 35.9589C29.3289 35.7343 29.2971 35.4257 29.403 35.0435L29.4792 34.7667C29.9802 32.9564 30.2091 32.1306 32.7926 30.5878C33.4894 30.1704 34.2295 29.9492 34.9275 29.9492C35.8976 29.9492 36.6753 30.395 36.9087 31.0824C37.026 31.4283 37.1546 32.3471 35.8145 33.3669C34.2785 34.5363 31.5252 36.273 30.2351 36.273L30.2353 36.2731ZM30.1647 35.4586C30.1795 35.4586 30.2023 35.4598 30.2353 35.4598C31.0517 35.4598 33.3335 34.2302 35.3214 32.7193C35.9613 32.2326 36.2665 31.7188 36.1378 31.3422C36.0206 30.9963 35.5344 30.7615 34.9298 30.7615C34.5461 30.7615 33.9357 30.8522 33.2139 31.2832C30.9104 32.6592 30.7488 33.2445 30.2672 34.981L30.1887 35.2611C30.1591 35.3632 30.1556 35.4267 30.1556 35.4574C30.1602 35.4585 30.1625 35.4585 30.1648 35.4585L30.1647 35.4586Z" fill="#037847" stroke="#037847" stroke-width="0.5"/>
<path d="M24.8674 39.9609C24.3403 39.9609 23.9668 39.8067 23.7573 39.5027C23.5239 39.1624 23.5307 38.6951 23.7732 38.0734C24.9392 35.1107 27.9406 31.356 28.066 31.196C30.292 28.8457 34.0677 26.4434 36.5739 26.4434C38.1634 26.4434 40.0831 27.1103 40.681 28.3819C40.9155 28.8844 41.0305 29.6796 40.2403 30.6199C40.0331 30.8649 39.8065 31.1439 39.5617 31.4445C37.7923 33.6224 35.1154 36.9118 31.965 37.8431C31.185 38.0745 30.2832 38.3977 29.4122 38.7097C27.6234 39.3528 25.9324 39.9608 24.8679 39.9608L24.8674 39.9609ZM36.5759 27.2556C34.3214 27.2556 30.7246 29.5775 28.6842 31.7292C28.6762 31.7405 25.6542 35.5233 24.5351 38.3682C24.3837 38.755 24.3848 38.9728 24.4327 39.0431C24.4668 39.093 24.6012 39.1474 24.8688 39.1474C25.7899 39.1474 27.4922 38.536 29.1385 37.944C30.022 37.6263 30.9329 37.2997 31.7357 37.0626C34.6449 36.2039 37.2238 33.0312 38.9308 30.9306C39.1767 30.6266 39.4078 30.3453 39.6162 30.0946C40.0352 29.5967 40.1423 29.1463 39.943 28.7232C39.5638 27.9145 38.0518 27.2554 36.576 27.2554L36.5759 27.2556Z" fill="#037847" stroke="#037847" stroke-width="0.5"/>
<path d="M20.7924 45.4721C20.14 45.4721 19.6492 45.2691 19.3327 44.8709C18.8887 44.3094 18.8249 43.3997 19.1403 42.0851L19.1676 41.9716C20.5681 36.139 21.1477 33.7254 26.3318 29.4727C32.4256 24.4738 35.7174 22.8688 40.4235 22.6089C42.2373 22.5035 43.5593 23.251 44.165 24.6666C45.2718 27.2551 43.623 31.3828 39.9647 35.1793C34.3069 41.0517 33.1363 41.3862 30.0118 42.2788C29.7021 42.3684 29.3708 42.4626 29.0144 42.5681C28.1046 42.8392 27.0241 43.3144 25.8797 43.8181C24.0295 44.6302 22.1143 45.4719 20.7924 45.4719L20.7924 45.4721ZM40.7378 23.4121C40.6501 23.4121 40.5601 23.4132 40.4679 23.4189C35.9679 23.6673 32.7846 25.2292 26.8487 30.0977C21.8762 34.1755 21.3548 36.3499 19.96 42.1587L19.9327 42.2721C19.6207 43.5686 19.7824 44.1278 19.9714 44.366C20.1262 44.5623 20.3938 44.6587 20.7889 44.6587C21.9412 44.6587 23.7755 43.8522 25.5507 43.0729C26.7178 42.5591 27.8211 42.0747 28.7798 41.7878C29.1407 41.68 29.4732 41.5847 29.7874 41.4951C32.758 40.6466 33.8694 40.3279 39.3768 34.6133C43.5477 30.2861 44.1578 26.7219 43.4154 24.9831C42.9747 23.9554 42.049 23.4121 40.7373 23.4121L40.7378 23.4121Z" fill="#037847" stroke="#037847" stroke-width="0.5"/>
<path d="M14.6898 53.446C14.2503 53.446 13.8984 53.2985 13.6388 53.0082C13.1503 52.4614 13.0262 51.4326 13.2312 49.6676C14.0658 42.5466 18.0646 34.9975 21.6604 30.676C24.9169 26.7605 28.9601 22.7506 36.4318 19.9499C40.0151 18.6069 44.0595 17.2344 46.8948 17.2344C48.4536 17.2344 49.5443 17.6609 50.1364 18.4991C50.8492 19.5075 50.8253 21.0275 50.0613 23.1429C46.7331 32.3727 39.4937 43.4287 29.1537 46.7806C25.1834 48.0669 21.8473 49.9658 19.4117 51.3529C17.2836 52.5689 15.7465 53.4457 14.6898 53.4457L14.6898 53.446ZM46.8962 18.0484C44.192 18.0484 40.2343 19.3948 36.7204 20.7118C29.4285 23.4455 25.4765 27.3656 22.2906 31.1952C18.7735 35.4249 14.8588 42.8058 14.0459 49.7625C13.8762 51.2132 13.9445 52.1218 14.252 52.4655C14.3203 52.5438 14.4319 52.6311 14.6926 52.6311C15.5295 52.6311 17.0655 51.7566 19.0113 50.6484C21.4775 49.243 24.8571 47.3191 28.9058 46.0081C38.9735 42.7447 46.1823 31.5026 49.2974 22.8693C49.9533 21.0453 50.0125 19.7328 49.4716 18.9662C49.0401 18.3594 48.1747 18.0486 46.8961 18.0486L46.8962 18.0484Z" fill="#037847" stroke="#037847" stroke-width="0.5"/>
<path d="M4.90821 66.2463C4.80915 66.2463 4.70895 66.21 4.63039 66.1385C4.46529 65.9854 4.45618 65.729 4.60762 65.5634C8.32991 61.557 12.6862 58.2949 17.5584 55.8684C21.1393 54.0842 24.1236 52.7547 26.7583 51.5806C31.7912 49.3381 35.4289 47.7183 39.027 44.752C44.6358 40.1239 51.011 32.3315 52.6098 25.3487C53.0698 23.3387 53.3806 21.7154 53.6516 20.283C54.3598 16.5603 54.7481 14.5116 56.6621 12.0332C57.6447 10.7617 59.0942 8.54284 60.6324 6.19394C61.2416 5.26042 61.8667 4.30759 62.4804 3.382C62.6079 3.19484 62.8607 3.14493 63.0463 3.2663C63.2342 3.38994 63.2866 3.64176 63.1625 3.82891C62.5476 4.75451 61.9248 5.70504 61.3168 6.63746C59.7728 9.00021 58.3118 11.2313 57.3111 12.529C55.5167 14.8543 55.1398 16.8348 54.4577 20.4341C54.1833 21.8735 53.8736 23.5057 53.4102 25.5306C51.6567 33.1882 44.8489 41.0094 39.552 45.3776C35.8673 48.4153 32.1884 50.0542 27.0956 52.323C24.471 53.4924 21.4935 54.8173 17.9286 56.5948C13.1441 58.9768 8.86623 62.18 5.21127 66.1138C5.12701 66.2034 5.01998 66.2465 4.90838 66.2465L4.90821 66.2463Z" fill="#037847" stroke="#037847" stroke-width="0.5"/>
<path d="M3.62869 62.5816C3.54216 62.5816 3.45676 62.5544 3.38275 62.4988C3.20285 62.3638 3.16755 62.1086 3.30419 61.9294C3.97029 61.0515 4.44851 60.4253 4.80946 59.9569C5.88887 58.5492 5.88886 58.5492 6.68136 57.2856L7.56608 55.887C9.38788 53.0217 10.5515 48.8214 11.6775 44.7607C12.5315 41.6812 13.3376 38.7716 14.3817 36.6346C17.0518 31.174 20.9594 24.3489 27.5191 19.9931C30.9589 17.7098 34.3279 17.0644 37.5856 16.4418C40.8158 15.8236 43.8686 15.2406 47.0135 13.1785C51.0818 10.5117 54.8256 5.84284 57.8338 2.09168C57.9772 1.91813 58.2334 1.88864 58.4088 2.02816C58.583 2.16768 58.6126 2.42517 58.4725 2.601C55.428 6.39629 51.6386 11.122 47.4622 13.86C44.1806 16.0095 40.9072 16.6379 37.7385 17.2435C34.5607 17.8515 31.2733 18.481 27.9701 20.6726C21.5746 24.9206 17.7407 31.6267 15.1141 36.9941C14.1018 39.0631 13.306 41.9373 12.4611 44.9796C11.3202 49.0984 10.1383 53.3554 8.25258 56.3249L7.36903 57.7201C6.5549 59.0143 6.5549 59.0143 5.45273 60.4514C5.09405 60.9211 4.61584 61.546 3.94976 62.4206C3.87347 62.5261 3.75278 62.5816 3.62866 62.5816L3.62869 62.5816Z" fill="#037847" stroke="#037847" stroke-width="0.5"/>
<path d="M9.43705 74.4223C9.34938 74.4223 9.26056 74.3928 9.18542 74.3361C9.00779 74.1977 8.97591 73.9425 9.11482 73.7633C12.4532 69.5129 15.1711 66.6898 17.4245 65.1369C19.9159 63.4161 24.0512 61.7327 28.8392 59.7819C36.9041 56.496 46.0472 52.7718 49.9172 47.7537C55.9076 39.9872 58.5937 29.0366 61.0337 17.554C61.8159 13.8563 64.1284 9.86674 67.9041 5.69947C68.0578 5.53386 68.3151 5.52025 68.4813 5.66998C68.6476 5.8197 68.6613 6.07604 68.511 6.24394C64.8321 10.3046 62.5856 14.1647 61.8318 17.7207C59.3735 29.2985 56.6602 40.3455 50.5673 48.2457C46.5617 53.4374 37.3113 57.2077 29.1496 60.5323C24.603 62.3846 20.3094 64.1336 17.8898 65.8013C15.7059 67.3088 13.0473 70.0766 9.75874 74.2621C9.67675 74.3654 9.55719 74.4198 9.43649 74.4198L9.43705 74.4223Z" fill="#037847" stroke="#037847" stroke-width="0.5"/>
<path d="M12.0048 77.2829C11.9182 77.2829 11.8317 77.2557 11.7566 77.1979C11.5767 77.0629 11.5425 76.8077 11.6803 76.6285C14.6613 72.74 17.2483 70.1175 19.8227 68.3729C23.2908 66.0226 27.7724 64.3859 32.5173 62.6503C39.3206 60.1651 46.3562 57.5948 49.9144 52.7933C50.4484 52.0742 50.9676 51.3822 51.4686 50.7107C56.7087 43.7166 60.1689 39.0955 61.7118 28.7869C62.5282 23.3524 66.3231 15.8739 72.1234 8.26618C72.2623 8.08696 72.5163 8.0552 72.6961 8.18791C72.8738 8.3229 72.9102 8.57926 72.7747 8.75846C67.0554 16.2596 63.3174 23.6031 62.5202 28.9083C60.9466 39.4199 57.4372 44.1058 52.1257 51.1975C51.6224 51.8679 51.1055 52.5587 50.5738 53.2778C46.8687 58.2744 39.717 60.8879 32.7997 63.4151C28.1053 65.1324 23.6704 66.7521 20.285 69.047C17.7857 70.7416 15.2592 73.3075 12.333 77.1222C12.2487 77.2277 12.128 77.2833 12.005 77.2833L12.0048 77.2829Z" fill="#037847" stroke="#037847" stroke-width="0.5"/>
<path d="M43.1119 92.6997C43.0094 92.6997 42.9047 92.6611 42.8249 92.5828C42.6655 92.4252 42.6633 92.1677 42.8215 92.0077C45.4517 89.3557 55.5913 80.2949 58.3534 81.2772C58.6017 81.3669 59.0298 81.6221 59.0913 82.331C59.3144 84.8628 58.4889 88.4177 56.9905 91.3874C56.8892 91.5871 56.6432 91.6642 56.4417 91.5678C56.2413 91.4668 56.1593 91.2218 56.2607 91.0211C57.6976 88.1773 58.4889 84.7927 58.2783 82.3993C58.2521 82.1021 58.1326 82.059 58.0756 82.0386C56.3552 81.4306 47.9668 87.9711 43.401 92.5763C43.3224 92.6591 43.2177 92.6999 43.1118 92.6999L43.1119 92.6997Z" fill="#037847" stroke="#037847" stroke-width="0.5"/>
<path d="M52.7003 92.4581C52.6411 92.4581 52.583 92.4456 52.5261 92.4195C52.3223 92.3231 52.2357 92.0815 52.3337 91.8785C53.01 90.4606 53.0157 89.6836 52.7971 89.4295C52.6126 89.2151 52.1538 89.3251 51.9681 89.3807C50.6621 89.7709 49.7888 90.3551 47.5195 92.3536C47.3498 92.5011 47.0913 92.4875 46.9433 92.3196C46.793 92.1506 46.8089 91.8931 46.9775 91.7445C49.1602 89.8207 50.2066 89.0585 51.7313 88.6026C52.7151 88.3099 53.2081 88.6627 53.4131 88.8998C53.9357 89.5066 53.8161 90.6579 53.0669 92.229C52.9997 92.3719 52.854 92.4581 52.7003 92.4581L52.7003 92.4581Z" fill="#037847" stroke="#037847" stroke-width="0.5"/>
<path d="M40.4382 92.2639C40.3368 92.2639 40.2355 92.2276 40.1569 92.1539C39.9941 91.9973 39.9873 91.741 40.1421 91.5788C46.1165 85.3196 50.0892 81.3779 54.8815 79.4088C56.1317 78.8984 57.4764 78.4288 58.779 77.9774C64.101 76.1318 69.6028 74.2204 72.0006 68.3881C73.2587 65.3211 74.8494 59.4588 76.53 53.2484C78.9837 44.199 81.7631 33.9392 84.4946 28.4992C85.1231 27.2492 85.8803 25.8302 86.8105 24.1638C86.9198 23.9687 87.1715 23.8949 87.365 24.0061C87.562 24.115 87.6326 24.3623 87.5244 24.5585C86.601 26.2157 85.8484 27.6235 85.2244 28.8608C82.5293 34.2305 79.7614 44.4462 77.3178 53.4593C75.6304 59.6924 74.0339 65.5793 72.7555 68.6931C70.2175 74.8672 64.5402 76.8386 59.0477 78.7441C57.6973 79.2125 56.4209 79.6549 55.1957 80.1585C50.55 82.0664 46.6344 85.956 40.7353 92.1345C40.6533 92.2207 40.5451 92.2638 40.4381 92.2638L40.4382 92.2639Z" fill="#037847" stroke="#037847" stroke-width="0.5"/>
<path d="M35.8764 91.4039C35.7751 91.4039 35.6726 91.3664 35.594 91.2916C35.4312 91.135 35.4255 90.8787 35.5826 90.7165C41.5934 84.4799 46.354 79.9419 50.0567 78.0587C51.7578 77.1932 53.7301 76.6704 55.8171 76.1191C59.1144 75.2479 62.5225 74.345 65.0934 71.9901C69.3474 68.0871 72.8849 57.453 74.3697 49.2213C75.571 42.573 79.8966 29.3847 84.4202 20.3431C84.5215 20.1412 84.7709 20.0606 84.9667 20.1605C85.1694 20.2614 85.2503 20.503 85.1501 20.7049C80.6582 29.6841 76.3632 42.7728 75.1733 49.3642C73.6646 57.7263 70.0393 68.559 65.6452 72.5869C62.9284 75.0778 59.4213 76.0079 56.0273 76.904C53.9823 77.4451 52.049 77.9566 50.4252 78.7824C46.8259 80.6155 42.1236 85.1029 36.1697 91.279C36.09 91.3607 35.9818 91.4038 35.8759 91.4038L35.8764 91.4039Z" fill="#037847" stroke="#037847" stroke-width="0.5"/>
<path d="M19.7881 84.1779C19.6868 84.1779 19.5877 84.1416 19.5092 84.069C19.3441 83.9147 19.3361 83.6572 19.491 83.4939C23.9064 78.8013 28.4463 75.3109 32.9836 73.1174L34.9079 72.1906C41.8284 68.8602 48.3653 65.7171 53.8091 60.9122C59.148 56.2025 63.304 48.0628 66.1656 36.7164C66.481 35.4607 66.7645 34.3128 67.0241 33.2556C68.8584 25.8079 69.6179 22.7258 73.4094 17.4072C74.4558 15.9382 75.7994 14.1256 77.1964 12.3028C77.3319 12.1236 77.5881 12.0896 77.768 12.2268C77.9479 12.3629 77.9821 12.6182 77.8443 12.7974C76.454 14.6123 75.115 16.417 74.0753 17.8791C70.3714 23.0708 69.678 25.8974 67.8151 33.4508C67.5555 34.5091 67.2719 35.657 66.9543 36.9162C64.0531 48.4249 59.8117 56.702 54.3474 61.5226C48.8182 66.399 42.2335 69.567 35.2608 72.9236L33.3377 73.8492C28.889 75.9987 24.4301 79.4323 20.0817 84.05C20.0066 84.1362 19.8973 84.1782 19.788 84.1782L19.7881 84.1779Z" fill="#037847" stroke="#037847" stroke-width="0.5"/>
<path d="M25.0414 87.3535C24.9537 87.3535 24.8649 87.324 24.7897 87.2661C24.6121 87.1278 24.5825 86.8725 24.7214 86.6956C27.0476 83.7476 28.964 81.5651 34.1982 78.2472C41.8658 73.3868 45.6552 71.7113 52.8295 68.6759C59.5862 65.8186 62.5533 60.9242 65.6699 52.8911C67.5156 48.1326 68.9424 42.4939 70.3223 37.0391C71.1136 33.9039 71.8629 30.9423 72.6701 28.2211C73.7006 24.7455 76.1738 19.9112 79.6352 14.6083C79.7593 14.42 80.011 14.3689 80.2011 14.4892C80.389 14.6117 80.4425 14.8635 80.3207 15.0518C76.8992 20.2912 74.4624 25.0496 73.4547 28.4515C72.652 31.159 71.9062 34.1104 71.1137 37.239C69.728 42.7153 68.2945 48.3801 66.4318 53.1827C63.7356 60.1359 60.8743 66.1581 53.1476 69.4249C46.014 72.4411 42.2486 74.1062 34.6358 78.9326C29.5097 82.1803 27.6366 84.3137 25.363 87.1972C25.2833 87.2993 25.1626 87.3537 25.0419 87.3537L25.0414 87.3535Z" fill="#037847" stroke="#037847" stroke-width="0.5"/>
<path d="M60.9688 90.6964C60.9313 90.6964 60.8925 90.6918 60.8527 90.6782C60.6375 90.6147 60.5134 90.389 60.5783 90.1723C60.7753 89.5042 60.9461 88.8531 61.11 88.219C61.6907 85.9901 62.2407 83.8825 63.8404 81.792C65.3639 79.8013 67.3336 78.5807 69.2388 77.4C71.705 75.871 74.0346 74.4271 75.2472 71.453C76.0648 69.4452 77.1145 65.6363 78.3294 61.2283C80.4142 53.6604 83.0092 44.2421 86.0311 37.9568C87.295 35.3196 88.4176 32.6812 89.4412 30.2231C89.5266 30.0144 89.768 29.9168 89.9729 30.003C90.1824 30.0892 90.2804 30.3263 90.1938 30.535C89.1668 33.0055 88.043 35.6541 86.7677 38.3094C83.7788 44.53 81.1953 53.9073 79.1173 61.4447C77.8967 65.8788 76.8401 69.7093 76.0042 71.7611C74.6914 74.9814 72.1408 76.5626 69.6722 78.0949C67.8288 79.236 65.924 80.4191 64.4925 82.2883C62.9907 84.2495 62.4863 86.1847 61.9021 88.4273C61.7336 89.0716 61.5628 89.7284 61.3613 90.4078C61.3078 90.5813 61.1461 90.6959 60.9684 90.6959L60.9688 90.6964Z" fill="#037847" stroke="#037847" stroke-width="0.5"/>
<path d="M63.7673 89.929C63.7332 89.929 63.7002 89.9245 63.666 89.9165C63.4474 89.861 63.3164 89.6386 63.3722 89.4209C63.9677 87.1171 64.578 85.4519 67.5236 83.3681C69.3579 82.0705 71.1491 81.2481 72.7272 80.5222C75.7604 79.1281 78.155 78.0278 79.3414 74.3753C79.8492 72.8179 80.4777 70.0501 81.277 66.5452C83.371 57.3529 86.5363 43.4575 90.9372 37.1324C91.0647 36.9475 91.3175 36.9044 91.5054 37.0303C91.6898 37.1585 91.7377 37.4103 91.6067 37.5963C87.2959 43.7919 84.1534 57.5941 82.0719 66.7274C81.2703 70.2518 80.6349 73.0354 80.1191 74.6267C78.8234 78.6171 76.1555 79.8423 73.0686 81.2614C71.5224 81.9737 69.7702 82.7791 67.995 84.0325C65.2703 85.9597 64.7306 87.4297 64.1625 89.6235C64.1147 89.8061 63.9496 89.9298 63.7674 89.9298L63.7673 89.929Z" fill="#037847" stroke="#037847" stroke-width="0.5"/>
<path d="M83.831 73.8862C83.7968 73.8862 83.7604 73.8816 83.7262 73.8714C83.5076 73.8124 83.379 73.5901 83.437 73.3735C83.7388 72.255 84.1623 70.1851 84.6975 67.5635C86.3097 59.6811 88.7477 47.7722 91.8287 41.7375C91.9301 41.5356 92.176 41.4596 92.3775 41.5606C92.5779 41.6615 92.6588 41.9065 92.5552 42.1073C89.5251 48.043 87.0032 60.3674 85.4968 67.7289C84.9582 70.3616 84.5324 72.4429 84.2238 73.5865C84.1748 73.7679 84.012 73.8859 83.831 73.8859L83.831 73.8862Z" fill="#037847" stroke="#037847" stroke-width="0.5"/>
<path d="M1.12187 51.5321C1.05355 51.5321 0.982957 51.514 0.919194 51.4788C0.723349 51.3688 0.655033 51.1192 0.767757 50.9241C3.93419 45.408 5.45196 40.9083 7.05864 36.1442C7.48107 34.8942 7.91034 33.617 8.38287 32.2888C11.4971 23.5013 17.2289 13.8519 23.0129 12.105C24.9975 11.5049 27.3124 11.2236 29.7626 10.923C34.3524 10.3615 39.0992 9.77965 42.3636 7.07198C44.1 5.62913 45.6793 4.12054 47.5057 2.37244C48.0329 1.86653 48.5761 1.34818 49.1442 0.811636C49.307 0.657371 49.5655 0.664177 49.7215 0.826382C49.8764 0.988587 49.8695 1.24607 49.7056 1.40148C49.1397 1.93802 48.5977 2.45525 48.0716 2.95889C46.2339 4.7182 44.6455 6.23701 42.8875 7.69792C39.4387 10.5598 34.5711 11.1552 29.8627 11.7305C27.4488 12.0265 25.1683 12.3056 23.2518 12.8829C17.7397 14.547 12.1991 23.9639 9.15339 32.5598C8.68313 33.8835 8.25616 35.1562 7.83488 36.4039C6.21575 41.2077 4.68419 45.7449 1.47695 51.3289C1.40066 51.4594 1.26175 51.532 1.12168 51.532L1.12187 51.5321Z" fill="#037847" stroke="#037847" stroke-width="0.5"/>
<path d="M20.2194 9.49646C20.019 9.49646 19.8437 9.35013 19.8164 9.14483C19.7856 8.92251 19.9416 8.71719 20.1636 8.68658L21.6575 8.48354C27.6103 7.6782 35.7661 6.57791 39.461 3.66059C40.7453 2.64539 41.219 2.23592 42.5659 0.828232C42.723 0.663757 42.9804 0.660357 43.1432 0.813486C43.306 0.967752 43.3129 1.22525 43.158 1.38859C41.7757 2.8337 41.2895 3.25679 39.9688 4.29822C36.0976 7.3539 27.8164 8.47245 21.7681 9.29017L20.2765 9.49321C20.2594 9.49434 20.24 9.49661 20.2195 9.49661L20.2194 9.49646Z" fill="#037847" stroke="#037847" stroke-width="0.5"/>
<path d="M1.00755 41.8932C0.947201 41.8932 0.886851 41.8808 0.829918 41.8524C0.627244 41.7548 0.542984 41.5121 0.640907 41.3091C4.21396 33.9473 8.48367 24.3194 9.74873 19.3739C9.80452 19.1561 10.0311 19.0245 10.2452 19.0801C10.4638 19.1357 10.5958 19.3569 10.5401 19.5747C9.26025 24.5779 4.96769 34.2651 1.37627 41.6629C1.30681 41.8103 1.15993 41.8931 1.00737 41.8931L1.00755 41.8932Z" fill="#037847" stroke="#037847" stroke-width="0.5"/>
</svg>
