<svg width="65" height="65" viewBox="0 0 65 65" fill="none" xmlns="http://www.w3.org/2000/svg">
<path d="M32.2495 64.6001C14.605 64.6001 0.249512 50.2446 0.249512 32.6001C0.249512 14.9556 14.605 0.600098 32.2495 0.600098C49.894 0.600098 64.2495 14.9556 64.2495 32.6001C64.2495 50.2446 49.894 64.6001 32.2495 64.6001ZM32.2495 1.68505C15.2036 1.68505 1.33446 15.5542 1.33446 32.6001C1.33446 49.646 15.2036 63.5151 32.2495 63.5151C49.2955 63.5151 63.1646 49.646 63.1646 32.6001C63.1646 15.5542 49.2955 1.68505 32.2495 1.68505Z" fill="#037847"/>
<path d="M47.9032 23.9036H29.3969C29.0974 23.9036 28.855 23.6617 28.855 23.3617C28.855 23.0622 29.0969 22.8198 29.3969 22.8198H47.9032C48.2028 22.8198 48.4451 23.0617 48.4451 23.3617C48.4451 23.6617 48.2032 23.9036 47.9032 23.9036Z" fill="#037847"/>
<path d="M47.9032 32.6214H29.3969C29.0974 32.6214 28.855 32.3795 28.855 32.0795C28.855 31.78 29.0969 31.5376 29.3969 31.5376H47.9032C48.2028 31.5376 48.4451 31.7795 48.4451 32.0795C48.4451 32.379 48.2032 32.6214 47.9032 32.6214Z" fill="#037847"/>
<path d="M44.1974 47.8319C43.8816 47.8319 43.6288 47.7434 43.3759 47.5438L35.284 41.542H31.2744C31.0559 41.542 30.8597 41.4105 30.774 41.2101C30.6897 41.0096 30.7335 40.7772 30.8859 40.6201L35.0002 36.3991L27.2649 35.2277C26.3659 35.0763 25.583 34.481 25.1626 33.6329L21.2064 24.4958C21.1778 24.4277 21.1616 24.3539 21.1616 24.2806V18.0277C21.1616 15.4472 23.3025 13.3491 25.9316 13.3491H51.3354C53.9658 13.3491 56.1054 15.4634 56.1054 18.0615V36.8628C56.1054 39.4614 53.9645 41.5752 51.3354 41.5752H45.5359V46.5023C45.5373 47.249 44.9482 47.8323 44.1974 47.8323L44.1974 47.8319ZM32.5612 40.4572H35.4636C35.5798 40.4572 35.6941 40.4943 35.7869 40.5638L44.0355 46.6824C44.1174 46.7462 44.1346 46.7462 44.1974 46.7462C44.2922 46.7462 44.4522 46.6947 44.4522 46.5019V41.0334C44.4522 40.7338 44.6941 40.4915 44.9941 40.4915H51.3364C53.3683 40.4915 55.0226 38.8638 55.0226 36.8638L55.023 18.0625C55.023 16.0625 53.3698 14.4348 51.3369 14.4348H25.9331C23.935 14.4348 22.247 16.0805 22.247 18.0286V24.1695L26.1465 33.1777C26.4012 33.6896 26.8879 34.0662 27.437 34.1581L36.2084 35.4863C36.4098 35.5163 36.5774 35.6568 36.6412 35.8501C36.7065 36.043 36.6574 36.2553 36.5155 36.4015L32.5612 40.4572Z" fill="#037847"/>
<path d="M12.7821 54.3911C12.6721 54.3911 12.5635 54.3582 12.4707 54.292C12.3011 54.1725 12.2135 53.9668 12.2469 53.7606L13.7435 44.5744C13.8354 43.9473 13.6506 43.3444 13.2349 42.9315L6.89586 36.4282C6.75395 36.282 6.70491 36.0696 6.77015 35.8767C6.83539 35.6839 7.00158 35.5439 7.20301 35.5129L15.9826 34.1839C16.5459 34.092 17.0288 33.722 17.2688 33.1953L21.2078 24.0625C21.293 23.8639 21.4892 23.7349 21.7049 23.7349C21.9216 23.7349 22.1168 23.8639 22.203 24.0611L26.1464 33.1725C26.4012 33.6844 26.8878 34.061 27.4369 34.1529L36.2083 35.4811C36.4097 35.5111 36.5773 35.6516 36.6412 35.8449C36.7064 36.0378 36.6573 36.2501 36.5154 36.3963L30.154 42.9235C30.1521 42.9254 30.1506 42.9278 30.1487 42.9297C29.7325 43.3425 29.5473 43.944 29.6411 44.5811L31.1364 53.7587C31.1693 53.9644 31.0831 54.1706 30.9126 54.2901C30.7421 54.4097 30.5202 54.4216 30.3378 54.3201L22.5074 49.9692C21.9826 49.695 21.4355 49.6888 20.8927 49.9754L13.0441 54.3211C12.9622 54.3687 12.8717 54.3911 12.7822 54.3911L12.7821 54.3911ZM8.40876 36.4296L14.0044 42.1691C14.6616 42.822 14.9592 43.7614 14.8149 44.7419L13.4964 52.8324L20.3773 49.0224C21.254 48.5605 22.1639 48.5671 23.0215 49.0171L29.8844 52.8304L28.5682 44.7505C28.423 43.7628 28.7196 42.8252 29.3811 42.1657L35.0015 36.3982L27.2663 35.2267C26.3672 35.0753 25.5843 34.4801 25.1639 33.632L21.7068 25.6457L18.2592 33.6362C17.8644 34.5034 17.0773 35.1063 16.1491 35.2567L8.40876 36.4296Z" fill="#037847"/>
</svg>
