<svg width="65" height="65" viewBox="0 0 65 65" fill="none" xmlns="http://www.w3.org/2000/svg">
<path d="M32.2495 64.6001C14.605 64.6001 0.249512 50.2446 0.249512 32.6001C0.249512 14.9556 14.605 0.600098 32.2495 0.600098C49.894 0.600098 64.2495 14.9556 64.2495 32.6001C64.2495 50.2446 49.894 64.6001 32.2495 64.6001ZM32.2495 1.68505C15.2036 1.68505 1.33446 15.5542 1.33446 32.6001C1.33446 49.646 15.2036 63.5151 32.2495 63.5151C49.2955 63.5151 63.1646 49.646 63.1646 32.6001C63.1646 15.5542 49.2955 1.68505 32.2495 1.68505Z" fill="#037847"/>
<path d="M15.7157 38.481C15.5421 38.4807 15.3764 38.4108 15.2551 38.2866L12.4117 35.4432C7.3792 30.4211 9.49663 23.455 13.8644 18.781C15.1682 17.3583 16.6826 16.1442 18.3545 15.1805C20.7479 13.8607 27.2844 12.3777 31.5394 16.51L40.0904 25.0513C40.5277 25.3995 40.7909 25.9216 40.8106 26.4801C40.8301 27.0387 40.6046 27.5778 40.1928 27.956C38.7814 29.3778 35.0274 29.8482 32.7257 27.5776L30.5778 25.4601C29.4731 24.4372 28.2355 24.7544 26.3227 25.3374C24.144 25.992 21.4335 26.8103 18.467 24.468C18.3327 24.3633 18.2459 24.2089 18.2267 24.0394C18.2076 23.8703 18.2572 23.7002 18.3646 23.5679C18.5831 23.2899 18.9847 23.2397 19.2647 23.4556C21.7094 25.3887 23.8675 24.7341 25.9541 24.1001C27.8157 23.5374 29.7386 22.9646 31.457 24.5194L33.6255 26.6571H33.6258C34.382 27.359 35.3558 27.7804 36.3851 27.8512C37.4146 27.922 38.437 27.6376 39.2822 27.0456C39.5379 26.79 39.7015 26.483 39.1903 25.9615L30.6393 17.4306C26.8853 13.7993 21.0654 15.1289 18.9891 16.2951C17.43 17.1955 16.0192 18.3304 14.8054 19.6603C11.1642 23.5676 8.5866 29.8173 13.3223 34.5426L16.166 37.3863C16.2885 37.5039 16.3578 37.6664 16.3578 37.8361C16.3578 38.0062 16.2885 38.1687 16.166 38.2862C16.0502 38.4118 15.8866 38.4823 15.7159 38.4806L15.7157 38.481Z" fill="#037847"/>
<path d="M48.981 37.1328C48.8098 37.1322 48.6453 37.0663 48.5208 36.9488C48.2753 36.6949 48.2753 36.2922 48.5208 36.0385L51.3642 33.2357C55.8649 28.7351 54.0135 22.7207 50.3413 19.0384C46.6694 15.356 40.4302 13.1875 35.7146 17.77L33.8017 19.6724C33.544 19.874 33.1764 19.8508 32.9462 19.6181C32.7161 19.3854 32.697 19.0174 32.9016 18.7621L34.8144 16.8699C39.9288 11.8884 46.9764 13.7296 51.2923 18.1176C55.3838 22.2091 57.4296 29.0012 52.3153 34.1149L49.3897 36.9486C49.2803 37.0577 49.1349 37.1232 48.9805 37.1325L48.981 37.1328Z" fill="#037847"/>
<path d="M17.4232 44.0558C16.6153 44.0471 15.8434 43.7201 15.2753 43.1456C14.5797 42.5115 14.1616 41.6291 14.112 40.6889C14.0621 39.7491 14.3845 38.8274 15.0092 38.1232L26.0153 26.5852C26.2657 26.3737 26.6354 26.3838 26.8737 26.609C27.1122 26.8345 27.1432 27.2027 26.9462 27.4648L15.9401 39.0028C15.5495 39.463 15.3545 40.0575 15.3966 40.6597C15.4387 41.2615 15.7146 41.8233 16.1653 42.2249C16.5501 42.6143 17.0887 42.8125 17.6344 42.7649C18.18 42.7176 18.6764 42.4295 18.9884 41.9794L24.1028 36.6604H24.1025C24.3541 36.4094 24.7615 36.4094 25.0131 36.6604C25.2586 36.9141 25.2586 37.3168 25.0131 37.5707L19.8987 42.8897C19.2676 43.6003 18.373 44.0217 17.4233 44.0556L17.4232 44.0558Z" fill="#037847"/>
<path d="M21.6173 47.9329C20.6141 47.9181 19.6548 47.5192 18.9372 46.8181C18.2509 46.2012 17.8589 45.3216 17.8589 44.3989C17.8589 43.4762 18.2509 42.5966 18.9372 41.98L24.5223 36.303C24.7736 36.052 25.181 36.052 25.4326 36.303C25.555 36.4208 25.6244 36.5833 25.6244 36.7531C25.6244 36.9228 25.555 37.0856 25.4326 37.2031L19.8989 42.9312C19.4439 43.2939 19.1723 43.8392 19.1566 44.421C19.1407 45.0025 19.3824 45.5616 19.8171 45.9484C20.2111 46.3866 20.7627 46.6507 21.3512 46.6834C21.9397 46.7159 22.5171 46.5143 22.957 46.1225L28.6236 40.3024H28.6239C28.8755 40.0514 29.2826 40.0514 29.5342 40.3024C29.6572 40.4217 29.7269 40.5859 29.7269 40.7574C29.7269 40.9289 29.6572 41.0932 29.5342 41.2127L23.8676 47.0429C23.271 47.6352 22.4577 47.957 21.6173 47.9329L21.6173 47.9329Z" fill="#037847"/>
<path d="M26.1511 51.4117C25.1799 51.3983 24.2501 51.0141 23.5531 50.3374C22.8727 49.713 22.4934 48.8262 22.5108 47.9029C22.5285 46.9795 22.9415 46.1079 23.6452 45.5098C23.8991 45.2643 24.3018 45.2643 24.5555 45.5098C24.8065 45.7614 24.8065 46.1685 24.5555 46.4201C24.1019 46.7715 23.8257 47.3042 23.8001 47.8776C23.7743 48.4507 24.0021 49.0061 24.4226 49.3967C24.8169 49.8134 25.3587 50.0595 25.9317 50.0824C26.5051 50.1053 27.0646 49.9031 27.4911 49.5192L30.3244 46.6551V46.6554C30.5783 46.4099 30.9811 46.4099 31.2347 46.6554C31.3581 46.7746 31.4274 46.9389 31.4274 47.1104C31.4274 47.2819 31.3581 47.4461 31.2347 47.5657L28.4014 50.4196V50.4193C27.8153 51.0394 27.0042 51.3972 26.1511 51.4116L26.1511 51.4117Z" fill="#037847"/>
<path d="M34.5201 55.4007C33.6536 55.4053 32.8211 55.0626 32.2086 54.4495L29.5798 51.8207C28.9652 51.2084 28.6196 50.3765 28.6196 49.5089C28.6196 48.6415 28.9652 47.8096 29.5798 47.1974L29.8866 46.8906V46.8903C30.448 46.3187 31.2039 45.9792 32.004 45.9391C31.5226 45.3063 31.2867 44.5207 31.3392 43.7274C31.3917 42.9341 31.7298 42.1866 32.2904 41.6228L32.5971 41.3262C33.1923 40.7392 33.9915 40.4055 34.8272 40.3954C34.2448 39.7915 33.9216 38.9839 33.9271 38.145C33.9218 37.2751 34.2645 36.4394 34.8783 35.823L35.185 35.5265H35.1853C35.7947 34.9075 36.6281 34.5608 37.4968 34.5651C38.3682 34.5617 39.2048 34.9078 39.8188 35.5265L40.5245 36.2322C40.546 35.404 40.887 34.6159 41.4758 34.0332L41.7828 33.7262C42.395 33.113 43.2275 32.7703 44.0943 32.7749C44.9611 32.7703 45.7936 33.113 46.4058 33.7262L50.3235 37.6438C50.9387 38.2578 51.2846 39.0912 51.2846 39.9606C51.2846 40.8297 50.9387 41.6634 50.3235 42.2774L50.0269 42.5842C49.4106 43.1982 48.5749 43.5406 47.7049 43.5354C47.4504 43.5342 47.1968 43.5067 46.9481 43.4538C46.989 43.659 47.0096 43.8682 47.0093 44.0777C47.0145 44.9474 46.6721 45.7834 46.0581 46.3994L45.7514 46.696L45.7511 46.6963C45.3298 47.1179 44.8017 47.4168 44.2231 47.5607C43.6447 47.705 43.038 47.689 42.4678 47.5146C42.6082 48.525 42.2675 49.5433 41.5473 50.2661L41.2406 50.5728H41.2403C40.8323 50.9793 40.3242 51.2706 39.7677 51.4181C39.2108 51.5652 38.6252 51.5631 38.0696 51.4117C38.0797 51.5614 38.0797 51.7117 38.0696 51.8617C38.0643 52.7204 37.7228 53.543 37.1184 54.153L36.8218 54.4496C36.2092 55.0566 35.3825 55.3982 34.5201 55.4008L34.5201 55.4007ZM30.7867 47.8013L30.4901 48.0979C30.1161 48.4702 29.9057 48.9762 29.9057 49.5044C29.9057 50.0322 30.1161 50.5383 30.4901 50.9106L33.1188 53.5393V53.5396C33.4877 53.9157 33.9934 54.1261 34.5201 54.1226C35.0502 54.1266 35.5592 53.9163 35.9318 53.5396L36.2284 53.2431V53.2428C36.6033 52.869 36.8131 52.3606 36.8113 51.8313C36.8151 51.3044 36.6047 50.7989 36.2284 50.4301L33.5996 47.8014C33.2273 47.427 32.721 47.2167 32.1931 47.2167C31.6653 47.2167 31.1592 47.427 30.7866 47.8014L30.7867 47.8013ZM34.9498 41.6641C34.4217 41.669 33.9159 41.8776 33.5381 42.247L33.2416 42.5436C32.8667 42.9176 32.6569 43.4257 32.6586 43.9553C32.6548 44.482 32.8655 44.9877 33.2416 45.3566L37.5174 49.6013C37.8896 49.9756 38.3957 50.186 38.9236 50.186C39.4517 50.186 39.9578 49.9756 40.3301 49.6013L40.6368 49.2946H40.6371C41.0111 48.9223 41.2215 48.4159 41.2215 47.8881C41.2215 47.3602 41.0111 46.8542 40.6371 46.4815L36.3512 42.2368C35.9818 41.8616 35.4766 41.6512 34.95 41.6538L34.9498 41.6641ZM37.4967 35.8339C36.9721 35.831 36.4677 36.037 36.0955 36.4067L35.7888 36.7134H35.7885C35.4231 37.0927 35.218 37.5981 35.2157 38.1248C35.2128 38.6497 35.4191 39.1538 35.7885 39.5263L42.0278 45.7657H42.0281C42.4085 46.1284 42.914 46.3307 43.4395 46.3307C43.9651 46.3307 44.4705 46.1284 44.851 45.7657L45.1475 45.4692H45.1478C45.5245 45.0966 45.7348 44.5873 45.7308 44.0574C45.7343 43.5308 45.5239 43.025 45.1478 42.6562L38.9084 36.4067H38.9082C38.5292 36.041 38.0234 35.8359 37.4967 35.8338L37.4967 35.8339ZM44.0941 34.0336C43.5646 34.0319 43.0564 34.2417 42.6827 34.6166L42.3862 34.9233H42.3859C42.0147 35.2872 41.8049 35.7846 41.8029 36.3043C41.8012 36.8339 42.011 37.342 42.3859 37.7157L46.3239 41.6435C46.6965 42.0132 47.2008 42.2192 47.7254 42.2163C48.2521 42.2143 48.7576 42.0092 49.1368 41.6435L49.4435 41.3368H49.4438C49.8034 40.957 50.0039 40.4535 50.0039 39.9303C50.0039 39.4071 49.8034 38.904 49.4438 38.5238L45.516 34.6061V34.6064C45.1423 34.2248 44.6281 34.0142 44.0941 34.0232L44.0941 34.0336Z" fill="#037847"/>
</svg>
