<svg width="65" height="65" viewBox="0 0 65 65" fill="none" xmlns="http://www.w3.org/2000/svg">
<path d="M32.2494 0.600348C23.7624 0.600348 15.6236 3.97171 9.62206 9.9729C3.6205 15.9741 0.249512 24.1131 0.249512 32.6002C0.249512 41.0873 3.62088 49.226 9.62206 55.2275C15.6233 61.2291 23.7623 64.6001 32.2494 64.6001C40.7365 64.6001 48.8751 61.2287 54.8767 55.2275C60.8783 49.2264 64.2493 41.0873 64.2493 32.6002C64.24 24.1161 60.8657 15.982 54.8665 9.98289C48.8673 3.98383 40.7338 0.60934 32.2491 0.600098L32.2494 0.600348ZM32.2494 63.5512C24.0409 63.5512 16.1682 60.2901 10.364 54.486C4.55989 48.6814 1.29882 40.8092 1.29882 32.6006C1.29882 24.392 4.55989 16.5194 10.364 10.7152C16.1686 4.9111 24.0408 1.65003 32.2494 1.65003C40.458 1.65003 48.3306 4.9111 54.1348 10.7152C59.9389 16.5198 63.2 24.392 63.2 32.6006C63.1907 40.8066 59.9266 48.673 54.1245 54.476C48.322 60.2781 40.4552 63.5422 32.2491 63.5514L32.2494 63.5512Z" fill="#037847"/>
<path d="M36.1392 8.23811L33.9216 7.66433L32.6907 5.73372C32.5882 5.5932 32.4243 5.51025 32.2501 5.51025C32.0759 5.51025 31.912 5.5932 31.8095 5.73372L30.5786 7.66433L28.361 8.23811C28.1859 8.28007 28.0454 8.40985 27.9897 8.5811C27.9341 8.75236 27.9712 8.9402 28.0883 9.0773L29.55 10.8469L29.4032 13.1341C29.3919 13.3132 29.4739 13.4849 29.6203 13.5889C29.7667 13.6938 29.956 13.7172 30.1238 13.6518L32.2223 12.8053L34.3208 13.6518H34.3203C34.3837 13.6733 34.4496 13.6855 34.5164 13.6864C34.6267 13.6864 34.734 13.6523 34.8243 13.5889C34.9702 13.4849 35.0521 13.3132 35.0409 13.1341L34.894 10.8469L36.4471 9.0773C36.5637 8.9402 36.6013 8.75236 36.5456 8.5811C36.49 8.40985 36.349 8.28007 36.1738 8.23811H36.1392ZM34.0407 10.3366C33.9572 10.4386 33.9148 10.5684 33.9216 10.7001L34.0265 12.3717L32.4735 11.7559L32.474 11.7564C32.3476 11.7096 32.2086 11.7096 32.0822 11.7564L30.5292 12.3721L30.6341 10.7006V10.7001C30.6414 10.5684 30.5989 10.4386 30.5155 10.3366L29.4524 9.04948L31.0684 8.62988H31.0679C31.1986 8.60061 31.3123 8.51961 31.3826 8.40593L32.2779 7.00715L33.1732 8.40593C33.2439 8.51961 33.3571 8.6006 33.4878 8.62988L35.1038 9.04948L34.0407 10.3366Z" fill="#037847"/>
<path d="M36.1371 54.4442L33.9196 53.8777L32.6886 51.9471C32.5876 51.8036 32.4232 51.7183 32.2481 51.7183C32.0729 51.7183 31.9085 51.8036 31.8075 51.9471L30.5765 53.8777L28.359 54.4442C28.1853 54.4925 28.0468 54.6232 27.9882 54.794C27.935 54.9657 27.9721 55.1521 28.0863 55.2907L29.548 57.0813L29.4011 59.3685C29.3889 59.5495 29.4709 59.7242 29.6183 59.83C29.7734 59.9408 29.9764 59.9593 30.1496 59.8788L32.2481 59.0323L34.3466 59.8788C34.4114 59.8891 34.4773 59.8891 34.5422 59.8788C34.6525 59.8788 34.7598 59.8447 34.8501 59.7812C34.9974 59.6749 35.0794 59.5007 35.0667 59.3197L34.9481 57.0812L36.445 55.2906C36.5591 55.152 36.5962 54.9656 36.5425 54.7939C36.4781 54.6144 36.324 54.4816 36.1371 54.4441L36.1371 54.4442ZM34.0386 56.5426C33.9542 56.6441 33.9113 56.7744 33.9196 56.9066L34.0245 58.5782L32.4715 57.9625H32.472C32.3475 57.9064 32.2046 57.9064 32.0802 57.9625L30.5271 58.5782L30.632 56.9066C30.6403 56.7744 30.5979 56.6441 30.5135 56.5426L29.4503 55.2555L31.0663 54.8428H31.0658C31.1956 54.812 31.3088 54.7315 31.3805 54.6193L32.2758 53.2205L33.1711 54.6193C33.2433 54.7315 33.3561 54.812 33.4858 54.8428L35.1018 55.2555L34.0386 56.5426Z" fill="#037847"/>
<path d="M11.3711 36.3637C11.4306 36.3905 11.4945 36.4052 11.5599 36.4057C11.6716 36.4062 11.7799 36.3691 11.8678 36.3008C12.0151 36.1978 12.0971 36.0251 12.0844 35.8461L11.9658 33.5588L13.4207 31.7961H13.4202C13.5373 31.659 13.5744 31.4711 13.5183 31.2999C13.4622 31.1277 13.3226 30.9959 13.1475 30.9501L10.93 30.3836L9.69897 28.4461L9.69946 28.4456C9.59652 28.3051 9.43307 28.2222 9.25889 28.2222C9.08472 28.2222 8.92078 28.3051 8.81784 28.4456L7.58686 30.3831L5.36935 30.9496L5.36983 30.9501C5.19517 30.9945 5.05709 31.1272 5.00585 31.2999C4.95072 31.4702 4.98487 31.6565 5.09709 31.7961L6.55882 33.5588L6.37001 35.8461C6.3622 36.0202 6.44173 36.1871 6.58176 36.291C6.72227 36.3945 6.90474 36.4218 7.06916 36.3637L9.16765 35.5245L11.3711 36.3637ZM7.48937 35.0908L7.59427 33.4193V33.4188C7.60403 33.2846 7.56158 33.1514 7.47522 33.0485L6.41209 31.7613L8.02808 31.3486H8.02759C8.15932 31.3169 8.273 31.2339 8.34277 31.1178L9.23807 29.719L10.1334 31.1178C10.2027 31.2339 10.3163 31.3169 10.4481 31.3486L12.064 31.7613L11.0009 33.0485H11.0004C10.9165 33.1529 10.8746 33.2851 10.8819 33.4188L10.9868 35.0903L9.43373 34.4746V34.4751C9.37225 34.4473 9.30542 34.4327 9.23808 34.4331C9.17271 34.4331 9.1083 34.4473 9.04878 34.4751L7.48937 35.0908Z" fill="#037847"/>
<path d="M17.1614 43.092C17.2639 42.949 17.2893 42.7651 17.2292 42.5997C17.1692 42.4348 17.0312 42.3099 16.8609 42.2664L14.6643 41.6932L13.4402 39.7557C13.3421 39.6059 13.1753 39.5161 12.9962 39.5161C12.8172 39.5161 12.6503 39.6059 12.5522 39.7557L11.3281 41.6932L9.11056 42.2596H9.11105C8.93687 42.3055 8.79782 42.4362 8.74123 42.607C8.68463 42.7778 8.71878 42.9656 8.831 43.1061L10.2927 44.8689L10.1527 47.1561L10.1532 47.1556C10.14 47.3332 10.2195 47.5049 10.363 47.6103C10.4513 47.6781 10.5591 47.7147 10.6704 47.7152C10.7382 47.7157 10.805 47.7011 10.8665 47.6733L12.9996 46.8341L15.0981 47.6733C15.2625 47.7357 15.4474 47.7098 15.5889 47.6049C15.7304 47.5005 15.8089 47.3312 15.7977 47.1556L15.6577 44.8684L17.1614 43.092ZM14.7624 44.3649C14.6785 44.4698 14.6361 44.6015 14.6434 44.7357L14.7624 46.4004L13.2094 45.7846C13.0859 45.7363 12.9484 45.7363 12.8249 45.7846L11.2651 46.4004L11.37 44.7357C11.3774 44.6015 11.3349 44.4698 11.251 44.3649L10.1669 43.092L11.7896 42.6792C11.9174 42.6431 12.0267 42.5606 12.0975 42.4484L12.9996 41.0496L13.8881 42.4484C13.9627 42.5597 14.074 42.6416 14.2028 42.6792L15.8255 43.092L14.7624 44.3649Z" fill="#037847"/>
<path d="M10.2933 21.6536L10.1533 23.9408H10.1538C10.142 24.1179 10.2211 24.2891 10.3636 24.3955C10.4538 24.4579 10.5611 24.4921 10.6709 24.4936C10.7358 24.5072 10.8027 24.5072 10.8671 24.4936L13.0001 23.6471L15.0986 24.4936C15.2665 24.558 15.4553 24.5341 15.6021 24.4306C15.7446 24.3243 15.8236 24.153 15.8119 23.9759L15.6719 21.6887L17.1336 19.9191H17.1341C17.2468 19.781 17.282 19.5946 17.2268 19.4248C17.1717 19.255 17.0341 19.1253 16.8614 19.0799L14.637 18.5134L13.4407 16.5125C13.345 16.3598 13.1772 16.2671 12.9967 16.2671C12.8162 16.2671 12.6488 16.3598 12.5527 16.5125L11.3285 18.471L9.11103 19.0447H9.11152C8.93734 19.0882 8.7978 19.2175 8.74121 19.3877C8.68461 19.5575 8.71877 19.7449 8.83147 19.8839L10.2933 21.6536ZM11.7901 19.436V19.4365C11.9184 19.4058 12.0292 19.3253 12.098 19.2126L13.0001 17.8138L13.8886 19.2126C13.9618 19.3238 14.074 19.4038 14.2033 19.4365L15.826 19.8561L14.7629 21.1433C14.6785 21.2477 14.636 21.3799 14.6438 21.5136L14.7629 23.1783L13.2098 22.5625V22.563C13.0864 22.5142 12.9488 22.5142 12.8254 22.563L11.2656 23.1783L11.3705 21.5136C11.3778 21.3799 11.3354 21.2477 11.2515 21.1433L10.1815 19.8561L11.7901 19.436Z" fill="#037847"/>
<path d="M25.0311 50.8699L22.8136 50.3035L21.5826 48.3729H21.5831C21.4884 48.2197 21.3221 48.1265 21.142 48.1265C20.9625 48.1265 20.7956 48.2197 20.7015 48.3729L19.4705 50.3035L17.253 50.8699H17.2535C17.0793 50.9177 16.9407 51.049 16.8826 51.2193C16.8265 51.391 16.8636 51.5789 16.9807 51.716L18.4424 53.4787L18.2956 55.7659C18.2829 55.945 18.3649 56.1177 18.5122 56.2206C18.6 56.2889 18.7083 56.326 18.8201 56.3255C18.885 56.3353 18.9508 56.3353 19.0157 56.3255L21.1142 55.479L23.2127 56.3255C23.3815 56.388 23.5708 56.3616 23.7162 56.2553C23.8635 56.1528 23.946 55.9801 23.9328 55.801L23.8562 53.4786L25.318 51.7159C25.4326 51.5778 25.4692 51.3909 25.416 51.2192C25.355 51.0455 25.2101 50.9138 25.0311 50.8698L25.0311 50.8699ZM22.9326 52.9684V52.9679C22.8482 53.0699 22.8058 53.1997 22.814 53.3319L22.8906 54.9825L21.3376 54.3668L21.3381 54.3672C21.2122 54.318 21.0722 54.318 20.9463 54.3672L19.3933 54.9825L19.4982 53.3109C19.5065 53.1787 19.464 53.0489 19.3796 52.9469L18.3165 51.6531L19.9325 51.2403H19.932C20.0637 51.2091 20.1774 51.1257 20.2467 51.0095L21.142 49.6108L22.0373 51.0095C22.107 51.1257 22.2207 51.2091 22.3525 51.2403L23.9684 51.6531L22.9326 52.9684Z" fill="#037847"/>
<path d="M25.5209 10.7357L23.3034 10.1692L22.0792 8.23174V8.23125C21.9836 8.07853 21.8158 7.98584 21.6352 7.98584C21.4547 7.98584 21.2874 8.07854 21.1913 8.23125L19.9671 10.1687L17.7427 10.7352V10.7357C17.57 10.7825 17.4324 10.9143 17.3792 11.085C17.3236 11.2553 17.3578 11.4422 17.47 11.5817L18.9601 13.3445L18.82 15.6317C18.8083 15.8088 18.8874 15.98 19.0298 16.0864C19.1186 16.1518 19.2269 16.1864 19.3377 16.184C19.4045 16.1869 19.4714 16.1752 19.5333 16.1493L21.6318 15.3101L23.7303 16.1493C23.8977 16.2176 24.0884 16.1937 24.2338 16.0864C24.3763 15.98 24.4553 15.8088 24.4436 15.6317L24.3036 13.3445L25.8004 11.6168C25.9126 11.4773 25.9468 11.2904 25.8917 11.1201C25.8487 10.9333 25.7063 10.7849 25.5209 10.7357L25.5209 10.7357ZM23.4224 12.8342V12.8337C23.3385 12.9386 23.296 13.0708 23.3034 13.2045L23.4083 14.8692L21.8552 14.2535L21.8557 14.2539C21.7318 14.2052 21.5947 14.2052 21.4708 14.2539L19.9177 14.8697L20.0226 13.205L20.0231 13.2045C20.0304 13.0708 19.988 12.9386 19.9041 12.8337L18.8058 11.5471L20.4285 11.1343C20.5559 11.0977 20.6656 11.0157 20.7364 10.9035L21.6385 9.50473L22.527 10.9035C22.6016 11.0148 22.7129 11.0962 22.8417 11.1343L24.4644 11.5471L23.4224 12.8342Z" fill="#037847"/>
<path d="M54.8206 28.4447L53.5896 30.3822L51.3721 30.9486L51.3726 30.9491C51.1974 30.995 51.0579 31.1267 51.0018 31.2989C50.9457 31.4702 50.9828 31.658 51.0999 31.7951L52.5334 33.5579L52.3933 35.8451H52.3938C52.3811 36.0242 52.4631 36.1969 52.6104 36.2998C52.6983 36.3681 52.8066 36.4052 52.9183 36.4047C52.9837 36.4042 53.0476 36.3896 53.1071 36.3628L55.2402 35.5236L57.3387 36.3628C57.5031 36.4208 57.6861 36.3935 57.8261 36.2901C57.9666 36.1861 58.0461 36.0193 58.0383 35.8451L57.8915 33.5579L59.3532 31.7951C59.4654 31.6556 59.4996 31.4692 59.4439 31.2989C59.3932 31.1262 59.2547 30.9935 59.0805 30.9491L56.8629 30.3827L55.632 28.4452V28.4447C55.5285 28.33 55.3812 28.2642 55.2265 28.2642C55.0719 28.2642 54.924 28.33 54.8206 28.4447L54.8206 28.4447ZM56.4712 31.3472L58.0872 31.7599L57.024 33.0471V33.0475C56.9377 33.1505 56.8952 33.2837 56.905 33.4179L57.0099 35.0894L55.4501 34.4737L55.4506 34.4742C55.3281 34.4181 55.1876 34.4181 55.0656 34.4742L53.5126 35.0899L53.6175 33.4183V33.4179C53.6248 33.2842 53.5829 33.1519 53.4989 33.0475L52.4358 31.7604L54.0518 31.3477H54.0513C54.1831 31.3159 54.2967 31.233 54.366 31.1169L55.2613 29.7181L56.1566 31.1169C56.2264 31.233 56.3401 31.3159 56.4718 31.3477L56.4712 31.3472Z" fill="#037847"/>
<path d="M55.388 42.2665L53.171 41.6932L51.9468 39.7557C51.8429 39.6147 51.678 39.5317 51.5028 39.5317C51.3277 39.5317 51.1628 39.6147 51.0588 39.7557L49.8347 41.6932L47.6382 42.2665C47.4679 42.3099 47.3298 42.4348 47.2698 42.5997C47.2098 42.7651 47.2352 42.949 47.3376 43.092L48.7993 44.8547L48.6593 47.1419C48.6481 47.3171 48.7266 47.4864 48.8681 47.5913C49.0096 47.6957 49.1945 47.7216 49.359 47.6591L51.4575 46.8199L53.5559 47.6591H53.5555C53.6169 47.6874 53.6838 47.7016 53.7516 47.7011C53.8628 47.7006 53.9707 47.664 54.0594 47.5962C54.2029 47.4908 54.2819 47.319 54.2692 47.142L54.1292 44.8547L55.668 43.092C55.7802 42.9515 55.8144 42.7636 55.7578 42.5929C55.7012 42.4221 55.5621 42.2913 55.388 42.2455L55.388 42.2665ZM53.2895 44.3649H53.29C53.2061 44.4698 53.1636 44.6016 53.1709 44.7357L53.2339 46.4004L51.6808 45.7847C51.6159 45.7745 51.5501 45.7745 51.4852 45.7847C51.4227 45.775 51.3588 45.775 51.2964 45.7847L49.7366 46.4004L49.8415 44.7357C49.8488 44.6016 49.8064 44.4698 49.7224 44.3649L48.6735 43.0921L50.2962 42.6793C50.425 42.6417 50.5362 42.5598 50.6109 42.4485L51.4994 41.0497L52.4015 42.4485C52.4722 42.5607 52.5815 42.6432 52.7093 42.6793L54.3321 43.0921L53.2895 44.3649Z" fill="#037847"/>
<path d="M51.9453 16.5135C51.8414 16.373 51.6765 16.2896 51.5013 16.2896C51.3262 16.2896 51.1613 16.373 51.0574 16.5135L49.8332 18.451L47.6367 19.0457C47.464 19.0911 47.3264 19.2209 47.2712 19.3907C47.2161 19.5605 47.2512 19.7469 47.3639 19.8849L48.8257 21.6545L48.6856 23.9417H48.6861C48.6744 24.1189 48.7535 24.2901 48.8959 24.3965C49.0428 24.4999 49.2316 24.5238 49.3994 24.4594L51.4979 23.6129L53.5964 24.4594H53.5959C53.6608 24.4736 53.7277 24.4736 53.7921 24.4594C53.9018 24.4579 54.0092 24.4238 54.0999 24.3613C54.2424 24.255 54.3209 24.0842 54.3097 23.9066L54.1697 21.6194L55.6314 19.8498C55.7446 19.7107 55.7783 19.5239 55.7217 19.3536C55.6651 19.1838 55.5255 19.0545 55.3519 19.0106L53.1343 18.4368L51.9453 16.5135ZM53.2325 21.1441C53.1485 21.2485 53.1061 21.3808 53.1134 21.5144L53.2325 23.1791L51.6794 22.5634V22.5639C51.6145 22.5532 51.5487 22.5532 51.4838 22.5639C51.4213 22.5537 51.3574 22.5537 51.295 22.5639L49.7352 23.1791L49.8401 21.5144C49.8479 21.3808 49.8054 21.2485 49.721 21.1441L48.6511 19.857L50.2738 19.4374C50.4031 19.4047 50.5153 19.3247 50.5885 19.2135L51.4769 17.8147L52.3791 19.2135C52.4479 19.3262 52.5586 19.4067 52.6869 19.4374L54.3097 19.857L53.2325 21.1441Z" fill="#037847"/>
<path d="M47.2461 50.8694L45.0286 50.303L43.7976 48.3724H43.7981C43.6971 48.2289 43.5327 48.1431 43.3575 48.1431C43.1819 48.1431 43.0175 48.2289 42.9165 48.3724L41.6855 50.303L39.468 50.8694H39.4685C39.2948 50.9173 39.1557 51.0485 39.0977 51.2188C39.0445 51.3905 39.0811 51.5774 39.1957 51.7155L40.6434 53.4782L40.4965 55.7654C40.4838 55.9445 40.5663 56.1172 40.7136 56.2202C40.859 56.326 41.0478 56.3524 41.2171 56.2899L43.3156 55.4434L45.4141 56.2899H45.4136C45.4785 56.3002 45.5449 56.3002 45.6097 56.2899C45.721 56.2904 45.8293 56.2533 45.9176 56.185C46.0645 56.0821 46.1469 55.9094 46.1342 55.7303L45.9874 53.4431L47.4491 51.6803V51.6808C47.5662 51.5432 47.6033 51.3554 47.5472 51.1841C47.495 51.0417 47.3857 50.928 47.2461 50.8695L47.2461 50.8694ZM45.1476 52.9679L45.1481 52.9674C45.0632 53.0694 45.0208 53.1992 45.0291 53.3314L45.1062 54.982L43.5531 54.3663V54.3668C43.4287 54.3102 43.2858 54.3102 43.1613 54.3668L41.6088 54.982L41.7137 53.3104C41.722 53.1782 41.6791 53.0484 41.5947 52.9465L40.5315 51.6526L42.1475 51.2398H42.147C42.2788 51.2086 42.3924 51.1252 42.4622 51.0091L43.3575 49.6103L44.2528 51.0091C44.3221 51.1252 44.4358 51.2086 44.5675 51.2398L46.1835 51.6526L45.1476 52.9679Z" fill="#037847"/>
<path d="M40.0204 15.6318C40.0091 15.8089 40.0877 15.9801 40.2302 16.0865C40.3756 16.1938 40.5668 16.2177 40.7342 16.1494L42.8327 15.3102L44.9311 16.1494H44.9306C44.9926 16.1753 45.0594 16.187 45.1268 16.1841C45.237 16.1865 45.3454 16.1518 45.4342 16.0865C45.5766 15.9801 45.6557 15.8089 45.644 15.6318L45.5391 13.3445L47.0291 11.6169C47.1414 11.4773 47.1755 11.2905 47.1199 11.1202C47.0667 10.9494 46.9291 10.8172 46.7564 10.7704L44.532 10.2039L43.3079 8.26643C43.2039 8.12543 43.039 8.04248 42.8639 8.04248C42.6887 8.04248 42.5238 8.12542 42.4199 8.26643L41.1957 10.2039L38.9782 10.7704C38.8021 10.8138 38.6611 10.9465 38.6074 11.1202C38.5523 11.2905 38.5864 11.4773 38.6987 11.6169L40.1604 13.3796L40.0204 15.6318ZM40.0204 11.5471L41.6431 11.1343C41.7748 11.1031 41.8914 11.026 41.9719 10.9172L42.8604 9.5184L43.7625 10.9172C43.8333 11.0294 43.9431 11.1119 44.0704 11.148L45.6931 11.5607L44.6232 12.8479H44.6227C44.5388 12.9527 44.4968 13.0845 44.5041 13.2187L44.609 14.8834L43.056 14.2676C42.993 14.2457 42.9272 14.2335 42.8603 14.233C42.7959 14.2345 42.732 14.2462 42.6715 14.2676L41.1185 14.8834L41.2234 13.2187C41.2307 13.0845 41.1882 12.9528 41.1043 12.8479L40.0204 11.5471Z" fill="#037847"/>
</svg>
