<svg width="93" height="93" viewBox="0 0 93 93" fill="none" xmlns="http://www.w3.org/2000/svg">
<path d="M38.7881 66.9943C38.7881 71.4584 42.4101 75.0909 46.8633 75.0909C51.3156 75.0909 54.9385 71.4593 54.9385 66.9943C54.9385 62.5286 51.3165 58.897 46.8633 58.897C42.4101 58.897 38.7881 62.5286 38.7881 66.9943ZM41.0819 66.9943C41.0819 63.7985 43.6749 61.197 46.8625 61.197C50.0501 61.197 52.6431 63.7985 52.6431 66.9943C52.6431 70.1901 50.0501 72.7902 46.8625 72.7902C43.6749 72.7902 41.0819 70.1903 41.0819 66.9943Z" fill="#087A4A"/>
<path d="M46.8641 54.9192C46.2296 54.9192 45.7168 54.405 45.7168 53.7688V50.2553C45.7168 49.6192 46.2296 49.105 46.8641 49.105C47.4986 49.105 48.0114 49.6192 48.0114 50.2553V53.7688C48.0114 54.405 47.4978 54.9192 46.8641 54.9192Z" fill="#087A4A"/>
<path d="M41.9628 55.9619C41.8115 56.0301 41.6531 56.0606 41.4979 56.0606C41.0571 56.0606 40.6386 55.8063 40.4482 55.3771L39.0233 52.1675C38.7665 51.5875 39.0265 50.9073 39.6058 50.6498C40.1842 50.3923 40.8619 50.6546 41.1195 51.2338L42.5444 54.4434C42.802 55.0241 42.542 55.7044 41.9628 55.9619L41.9628 55.9619Z" fill="#087A4A"/>
<path d="M37.0615 59.2952C36.7887 59.2952 36.5135 59.1974 36.2943 59L33.6892 56.6497C33.2187 56.2253 33.1811 55.4977 33.6044 55.026C34.0276 54.5536 34.7533 54.5151 35.2237 54.941L37.8288 57.2914C38.2992 57.7157 38.3369 58.4433 37.9136 58.915C37.6872 59.1677 37.3744 59.2952 37.0615 59.2952L37.0615 59.2952Z" fill="#087A4A"/>
<path d="M31.3407 60.7285L34.6731 61.8139C35.274 62.0104 35.6044 62.6594 35.4092 63.2643C35.2508 63.7496 34.8028 64.0576 34.3187 64.0576C34.2003 64.0576 34.0827 64.0392 33.9635 64.0015L30.6311 62.9161C30.0302 62.7196 29.6998 62.0706 29.895 61.4658C30.0918 60.8633 30.7351 60.532 31.3407 60.7285V60.7285Z" fill="#087A4A"/>
<path d="M33.6264 67.2345C34.2457 67.1623 34.8201 67.6251 34.8873 68.2581C34.9553 68.8894 34.4961 69.4549 33.8664 69.5223L30.382 69.8889C30.342 69.8937 30.302 69.8961 30.2612 69.8961C29.6812 69.8961 29.1843 69.4565 29.1219 68.8653C29.0539 68.234 29.5132 67.6685 30.1428 67.6011L33.6264 67.2345Z" fill="#087A4A"/>
<path d="M31.8325 74.3666L34.8671 72.609C35.4151 72.293 36.1176 72.4783 36.4336 73.0302C36.7504 73.5797 36.5624 74.284 36.0136 74.6009L32.979 76.3585C32.799 76.4627 32.6013 76.5125 32.4069 76.5125C32.0101 76.5125 31.6244 76.3063 31.4124 75.9373C31.0964 75.3894 31.2844 74.6859 31.8325 74.3666H31.8325Z" fill="#087A4A"/>
<path d="M38.1838 77.0162C38.555 76.502 39.2719 76.3896 39.7847 76.7619C40.296 77.1341 40.4112 77.8528 40.0383 78.367L37.9781 81.21C37.754 81.5205 37.4044 81.6841 37.0492 81.6841C36.8156 81.6841 36.5803 81.6127 36.3755 81.4643C35.8643 81.0921 35.749 80.3734 36.1219 79.8592L38.1838 77.0162Z" fill="#087A4A"/>
<path d="M42.9972 79.6907C43.13 79.0698 43.7405 78.6751 44.3589 78.8043C44.9782 78.9366 45.3742 79.5471 45.243 80.1696L44.5134 83.6061C44.3974 84.1467 43.9213 84.5166 43.3917 84.5166C43.3124 84.5166 43.2324 84.5085 43.1516 84.4925C42.5324 84.3601 42.1363 83.7497 42.2675 83.1272L42.9972 79.6907Z" fill="#087A4A"/>
<path d="M49.365 78.8038C49.9835 78.6763 50.5932 79.0685 50.7268 79.6902L51.4564 83.1267C51.5868 83.7476 51.1924 84.3581 50.5723 84.4921C50.4923 84.5097 50.4115 84.5161 50.3323 84.5161C49.8027 84.5161 49.3266 84.1455 49.2106 83.6056L48.4809 80.1691C48.3505 79.5466 48.7458 78.9362 49.365 78.8038L49.365 78.8038Z" fill="#087A4A"/>
<path d="M55.5425 77.0158L57.6028 79.8588C57.9756 80.373 57.862 81.0918 57.3491 81.464C57.1451 81.6124 56.9099 81.6838 56.6755 81.6838C56.3202 81.6838 55.9714 81.5193 55.7466 81.2097L53.6863 78.3667C53.3135 77.8525 53.4271 77.1337 53.9399 76.7615C54.4552 76.3885 55.172 76.5024 55.5425 77.0158H55.5425Z" fill="#087A4A"/>
<path d="M57.2914 73.032C57.609 72.4801 58.3123 72.294 58.8579 72.6108L61.8925 74.3685C62.4422 74.6861 62.6302 75.3904 62.3126 75.9391C62.0989 76.3081 61.7149 76.5143 61.3181 76.5143C61.1228 76.5143 60.926 76.4646 60.746 76.3603L57.7114 74.6027C57.1625 74.285 56.9745 73.5815 57.2914 73.032H57.2914Z" fill="#087A4A"/>
<path d="M58.8399 68.2569C58.9063 67.6248 59.4808 67.1595 60.1008 67.2333L63.5852 67.5999C64.2149 67.6665 64.6725 68.232 64.6061 68.8641C64.5445 69.4553 64.0477 69.8949 63.4668 69.8949C63.4268 69.8949 63.3868 69.8925 63.346 69.8877L59.8616 69.5211C59.2312 69.4537 58.7719 68.8882 58.8399 68.2569L58.8399 68.2569Z" fill="#087A4A"/>
<path d="M63.0941 62.9158L59.7625 64.002C59.6433 64.0397 59.5249 64.0581 59.4073 64.0581C58.9232 64.0581 58.4744 63.7485 58.3168 63.2647C58.1207 62.6607 58.4512 62.0109 59.0528 61.8144L62.3853 60.729C62.9933 60.5325 63.6342 60.8638 63.8318 61.467C64.0254 62.0703 63.695 62.7185 63.0941 62.9158L63.0941 62.9158Z" fill="#087A4A"/>
<path d="M57.4308 58.9994C57.2115 59.1976 56.9363 59.2946 56.6635 59.2946C56.3507 59.2946 56.037 59.1671 55.8114 58.9136C55.3881 58.4419 55.4258 57.7143 55.8962 57.29L58.5013 54.9396C58.9717 54.5152 59.6966 54.553 60.1206 55.0246C60.5439 55.4963 60.5063 56.2239 60.0358 56.6483L57.4308 58.9994Z" fill="#087A4A"/>
<path d="M53.2747 55.381C53.0843 55.8101 52.6659 56.0644 52.225 56.0644C52.069 56.0644 51.9122 56.0331 51.7602 55.9658C51.181 55.7067 50.9217 55.0272 51.1777 54.448L52.6027 51.2384C52.8611 50.6585 53.5364 50.3977 54.1164 50.6544C54.6957 50.9135 54.9549 51.593 54.6989 52.1722L53.2747 55.381Z" fill="#087A4A"/>
<path d="M0.947737 13.9352C0.748517 14.2905 0.750119 14.7253 0.954937 15.0775L23.8947 54.6894C23.9315 54.7528 23.9795 54.8041 24.0251 54.8587C22.1593 58.4373 21.0968 62.5003 21.0968 66.8104C21.0968 81.0854 32.6812 92.7002 46.9184 92.7002C61.1558 92.7002 72.7399 81.0852 72.7399 66.8104C72.7399 62.4241 71.643 58.2921 69.7156 54.6685L92.6451 15.0771C92.8459 14.7298 92.8515 14.3022 92.6603 13.95L85.7779 1.29942C85.7643 1.27536 85.7435 1.2561 85.7283 1.23284C85.7091 1.20156 85.6867 1.17428 85.6643 1.1446C85.5875 1.04673 85.5003 0.961701 85.3979 0.895127C85.3891 0.889512 85.3843 0.879083 85.3747 0.873467C85.3723 0.872665 85.3691 0.872665 85.3667 0.870258C85.2523 0.800469 85.1235 0.756347 84.9891 0.729876C84.9555 0.722657 84.9251 0.721052 84.8914 0.716239C84.8498 0.711426 84.8114 0.700195 84.7698 0.700195H9.06865C9.03184 0.700195 8.99744 0.711426 8.96064 0.715437C8.92544 0.718646 8.89183 0.722657 8.85743 0.729074C8.72461 0.754744 8.59581 0.795656 8.4814 0.864645C8.479 0.865447 8.4766 0.865447 8.4742 0.867051C8.4662 0.871864 8.463 0.879887 8.455 0.885502C8.34939 0.952084 8.25978 1.03952 8.18058 1.1382C8.15898 1.16547 8.13818 1.19114 8.11898 1.22002C8.10297 1.24328 8.08377 1.26173 8.06857 1.2866L0.947737 13.9352ZM35.5745 43.5604L18.9882 16.0709H74.6151L57.7486 43.3181C54.4523 41.7843 50.7839 40.9211 46.918 40.9211C42.8505 40.9211 38.9997 41.8733 35.5737 43.5604H35.5745ZM11.1027 2.99972H82.7075L76.0396 13.7698H17.6006L11.1027 2.99972ZM68.3681 52.4135C66.1638 49.1222 63.2236 46.3689 59.7896 44.3804L84.7039 4.13187L90.3331 14.4802L68.3681 52.4135ZM23.3918 66.8111C23.3918 53.8036 33.9464 43.2214 46.9194 43.2214C59.8927 43.2214 70.447 53.8038 70.447 66.8111C70.447 79.8186 59.8925 90.4008 46.9194 90.4008C33.9462 90.4008 23.3918 79.8184 23.3918 66.8111ZM3.26916 14.4915L9.10405 4.12715L33.5615 44.6612C30.2701 46.6658 27.461 49.3892 25.3456 52.6092L3.26916 14.4915Z" fill="#087A4A"/>
</svg>
