<svg width="107" height="106" viewBox="0 0 107 106" fill="none" xmlns="http://www.w3.org/2000/svg">
<path fill-rule="evenodd" clip-rule="evenodd" d="M102.994 38.6761C103.594 40.2636 104.258 41.8258 105.099 43.2889C106.3 45.3797 106.663 47.5643 106.214 49.9095C105.839 51.8841 105.81 53.8812 105.781 55.8816C105.776 56.2096 105.771 56.5377 105.765 56.8657C105.643 63.1779 104.583 69.3133 102.006 75.1167C101.192 76.9532 100.275 78.7391 99.1098 80.3826C98.3079 81.5155 97.3574 82.4662 96.0329 82.9641C95.6627 83.103 95.4834 83.4203 95.3065 83.7333C95.2927 83.7577 95.2789 83.7822 95.265 83.8065C95.031 84.2185 94.802 84.6334 94.5731 85.0484C94.1944 85.7348 93.8158 86.4211 93.4142 87.0934C91.0908 90.9919 88.0837 94.1958 84.0455 96.3263C82.5527 97.1128 81.0151 97.7893 79.3487 98.123C78.7831 98.2349 78.332 98.5524 78.0188 99.0395C77.7682 99.4291 77.5194 99.8242 77.3189 100.241C76.8338 101.246 76.0247 101.69 74.949 101.704C74.5741 101.709 74.1984 101.708 73.8231 101.707C73.6625 101.706 73.502 101.706 73.3416 101.706C70.1268 101.486 67.168 102.355 64.6012 104.242C62.4139 105.85 60.1067 106.138 57.5739 105.62C56.8676 105.475 56.1913 105.233 55.5163 104.99C55.3514 104.931 55.1866 104.872 55.0214 104.814C53.8078 104.392 52.7875 104.59 51.8872 105.541C51.3287 106.131 50.9009 106.135 50.2315 105.653C49.9952 105.482 49.7656 105.303 49.5361 105.123C49.3065 104.944 49.077 104.764 48.8407 104.594C48.2196 104.145 47.5519 104.024 46.8162 104.325C46.4007 104.497 45.9687 104.631 45.5384 104.765C45.4571 104.79 45.3758 104.816 45.2948 104.841C44.1367 105.206 43.0663 105.045 42.0747 104.32C41.2602 103.726 40.3903 103.248 39.37 103.107C38.6175 103.005 37.8863 103.132 37.1534 103.26L37.1505 103.261C35.9655 103.468 35.0473 103.024 34.3313 102.103C33.8086 101.432 33.4685 100.656 33.2967 99.8296C33.141 99.0828 32.7168 98.5632 32.1601 98.1122C31.0485 97.2138 29.7848 96.5716 28.5104 95.9528C26.2855 94.8722 24.0122 93.8945 21.6996 93.025C17.9514 91.616 14.9336 89.2258 12.3685 86.1987C10.9992 84.5823 9.81249 82.8468 9.00343 80.866C8.56847 79.7999 7.91693 78.8456 7.07923 78.0735C5.81373 76.9081 5.21051 75.4793 5.05837 73.798C5.00288 73.1702 4.83641 72.5587 4.61267 71.9669C4.41935 71.4564 4.16339 70.9747 3.73917 70.6266C2.62403 69.7102 2.47546 68.5538 2.86925 67.2531C3.01424 66.7769 3.22903 66.3295 3.52616 65.9308C3.98081 65.3192 4.03451 64.677 3.74275 63.9807C3.1986 62.68 2.76364 61.345 2.54706 59.9415C2.31862 58.4509 2.36511 56.9556 2.41162 55.46C2.41504 55.3501 2.41845 55.2402 2.42176 55.1303C2.44503 54.3474 2.45219 53.568 2.3788 52.7887C2.31257 52.0653 2.11031 51.3888 1.7738 50.7358C0.717723 48.6792 0.159256 46.5126 0.499348 44.1782C0.615695 43.3755 0.927147 42.6503 1.45697 42.0315C1.78651 41.6469 2.11875 41.264 2.45104 40.881C2.88405 40.382 3.31716 39.8828 3.74454 39.3796C4.6431 38.3207 5.1407 37.1336 5.18724 35.6977C5.24273 33.9929 5.837 32.3982 6.66575 30.9279C7.21347 29.9556 7.43185 28.9255 7.5643 27.8503C7.57541 27.7608 7.58701 27.6712 7.59863 27.5816C7.64881 27.1943 7.69912 26.8061 7.70929 26.4179C7.71824 26.077 7.86502 25.9218 8.16215 25.81C8.53804 25.6693 8.88171 25.4546 9.20748 25.2129C9.757 24.8052 10.1114 24.3073 10.2027 23.5857C10.4032 21.9837 11.2301 20.6776 12.4742 19.7341C14.0485 18.5395 15.5248 17.2317 17.0009 15.9239C17.5488 15.4386 18.0967 14.9532 18.6495 14.4737C19.6 13.6511 20.6399 12.9475 21.7032 12.2782C23.0492 11.4285 23.8511 10.2505 23.9514 8.6071C24.0301 7.30642 24.7354 6.81934 26.0116 7.11159C26.2585 7.16751 26.5045 7.23065 26.7505 7.29381C26.9806 7.35289 27.2108 7.41198 27.4418 7.46517C28.3564 7.67624 29.1548 7.48141 29.7884 6.74718C29.8172 6.71359 29.8479 6.68162 29.8786 6.64962C29.9205 6.606 29.9624 6.56233 29.9996 6.51446C31.3922 4.70506 33.3164 3.90589 35.4858 3.54329C36.2545 3.4153 37.0289 3.35819 37.8031 3.30109C38.4693 3.25195 39.1355 3.20281 39.7978 3.10853C41.5233 2.86318 43.0914 2.29312 44.2996 0.956361C44.9386 0.249195 45.7118 0.0255005 46.6444 0.204096C47.6915 0.404339 48.6492 0.797609 49.4582 1.49034C50.5626 2.43564 51.8299 2.52583 53.1652 2.29492C54.0316 2.14519 54.6473 1.64007 55.0268 0.837298C55.4045 0.0363249 55.7965 -0.147683 56.6395 0.10668C57.0799 0.240176 57.5148 0.402536 57.9337 0.593759C58.7714 0.976206 59.6413 1.10609 60.5488 0.999658C62.7343 0.743491 64.8375 1.08986 66.8244 2.00809C69.1281 3.07245 71.5534 3.71106 74.0093 4.26308C75.1298 4.51564 76.1572 4.92695 76.9931 5.77843C77.65 6.44772 78.5378 6.71651 79.4185 6.96005C79.488 6.9793 79.5575 6.99837 79.6271 7.01745C80.1311 7.15563 80.6359 7.29403 81.1172 7.50486C82.4059 8.0677 83.2257 9.04366 83.5837 10.4021C83.6697 10.734 83.7484 10.8459 84.1261 10.8008C85.0748 10.6889 86.0306 10.6943 86.9524 11.0244C88.0246 11.4087 88.5723 12.1357 88.5079 13.2704C88.4417 14.4322 88.9124 15.2963 89.7537 16.0179C90.3122 16.4978 90.9333 16.8874 91.5831 17.2212C92.1451 17.5116 92.5711 17.9247 92.9291 18.4389C93.2619 18.917 93.5751 19.4088 93.8883 19.9007C94.3551 20.6338 94.8221 21.3671 95.3545 22.0559C95.8342 22.6764 96.3765 23.214 97.0639 23.6163C97.9517 24.1359 98.5531 24.9441 99.0579 25.8244C100.084 27.6104 100.669 29.5605 101.12 31.5539C101.21 31.9532 101.298 32.3531 101.387 32.753C101.827 34.7524 102.268 36.7518 102.994 38.6761ZM100.187 39.4869C100.752 40.9845 101.379 42.4583 102.173 43.8386C103.306 45.811 103.648 47.872 103.225 50.0845C102.871 51.9472 102.843 53.8314 102.816 55.7185C102.811 56.0279 102.807 56.3374 102.801 56.6469C102.686 62.6018 101.686 68.3899 99.2547 73.8648C98.4863 75.5973 97.6217 77.2822 96.5224 78.8326C95.7659 79.9014 94.8693 80.7983 93.6197 81.268C93.2705 81.399 93.1013 81.6983 92.9345 81.9936C92.9214 82.0167 92.9084 82.0398 92.8952 82.0628C92.6745 82.4513 92.4585 82.8428 92.2426 83.2342C91.8853 83.8818 91.5281 84.5293 91.1492 85.1636C88.9574 88.8414 86.1204 91.8639 82.3109 93.8738C80.9026 94.6159 79.452 95.2541 77.8799 95.5689C77.3463 95.6744 76.9208 95.974 76.6252 96.4335C76.3888 96.8011 76.1541 97.1738 75.965 97.5669C75.5074 98.5149 74.7441 98.9335 73.7292 98.9471C73.3757 98.9519 73.0213 98.9508 72.6672 98.9498C72.5157 98.9493 72.3642 98.9489 72.2128 98.9489C69.18 98.7412 66.3887 99.5615 63.9672 101.342C61.9037 102.858 59.727 103.13 57.3376 102.642C56.6713 102.505 56.0333 102.276 55.3964 102.047C55.2409 101.991 55.0854 101.936 54.9296 101.881C53.7847 101.483 52.8222 101.67 51.9728 102.567C51.446 103.124 51.0424 103.127 50.4108 102.673C50.1879 102.512 49.9714 102.342 49.7548 102.173C49.5382 102.004 49.3217 101.834 49.0988 101.674C48.5128 101.25 47.8829 101.136 47.1889 101.42C46.7969 101.582 46.3894 101.709 45.9835 101.835C45.9067 101.859 45.8301 101.883 45.7536 101.907C44.661 102.251 43.6512 102.099 42.7157 101.415C41.9474 100.855 41.1267 100.404 40.1642 100.271C39.4542 100.174 38.7645 100.295 38.0731 100.415L38.0703 100.416C36.9524 100.612 36.0861 100.193 35.4107 99.3233C34.9176 98.6902 34.5967 97.9584 34.4346 97.1789C34.2877 96.4743 33.8875 95.9842 33.3623 95.5587C32.3137 94.7112 31.1215 94.1053 29.9192 93.5215C27.8202 92.5021 25.6757 91.5797 23.4939 90.7594C19.9579 89.4302 17.1109 87.1752 14.6911 84.3195C13.3993 82.7946 12.2797 81.1574 11.5164 79.2887C11.1061 78.2829 10.4914 77.3826 9.70115 76.6542C8.50728 75.5548 7.93821 74.2069 7.79468 72.6208C7.74233 72.0285 7.58529 71.4516 7.37421 70.8933C7.19183 70.4117 6.95036 69.9573 6.55015 69.6288C5.49813 68.7643 5.35797 67.6734 5.72948 66.4463C5.86625 65.997 6.06889 65.575 6.34921 65.1989C6.77812 64.6219 6.82878 64.0161 6.55353 63.3591C6.04018 62.1321 5.62985 60.8727 5.42552 59.5486C5.21001 58.1424 5.25388 56.7317 5.29775 55.3208C5.30097 55.2171 5.30419 55.1134 5.30732 55.0097C5.32927 54.2711 5.33602 53.5359 5.26679 52.8007C5.20431 52.1182 5.01349 51.48 4.69603 50.8639C3.69973 48.9238 3.17288 46.8798 3.49372 44.6776C3.60348 43.9202 3.8973 43.2361 4.39714 42.6523C4.70804 42.2895 5.02149 41.9282 5.335 41.5669C5.74348 41.0962 6.15205 40.6253 6.55522 40.1506C7.40292 39.1516 7.87236 38.0317 7.91626 36.677C7.96861 35.0688 8.52924 33.5643 9.31108 32.1773C9.8278 31.26 10.0338 30.2882 10.1588 29.2739C10.1692 29.1894 10.1802 29.1049 10.1912 29.0204C10.2385 28.655 10.286 28.2888 10.2956 27.9226C10.304 27.6009 10.4425 27.4546 10.7228 27.349C11.0774 27.2163 11.4016 27.0138 11.7089 26.7857C12.2274 26.4011 12.5617 25.9314 12.6478 25.2506C12.837 23.7393 13.6171 22.5072 14.7907 21.6171C16.2759 20.4901 17.6686 19.2563 19.0612 18.0226C19.5781 17.5647 20.0949 17.1068 20.6165 16.6544C21.5132 15.8784 22.4943 15.2146 23.4973 14.5832C24.7672 13.7816 25.5237 12.6703 25.6182 11.1199C25.6925 9.89285 26.3579 9.43334 27.5619 9.70904C27.7948 9.7618 28.0269 9.82137 28.2589 9.88095C28.476 9.93669 28.6932 9.99243 28.9111 10.0426C29.774 10.2417 30.5271 10.0579 31.1249 9.36526C31.152 9.33358 31.181 9.30341 31.21 9.27322C31.2495 9.23207 31.2891 9.19088 31.3242 9.14572C32.6379 7.43873 34.4532 6.6848 36.4998 6.34272C37.225 6.22198 37.9555 6.1681 38.6859 6.11423C39.3145 6.06787 39.9429 6.02152 40.5678 5.93257C42.1956 5.70112 43.6749 5.16332 44.8147 3.90223C45.4175 3.23509 46.147 3.02406 47.0268 3.19254C48.0146 3.38145 48.9181 3.75246 49.6813 4.40598C50.7232 5.29777 51.9188 5.38286 53.1785 5.16502C53.9958 5.02377 54.5767 4.54724 54.9347 3.7899C55.291 3.03427 55.6608 2.86068 56.4562 3.10064C56.8716 3.22658 57.2819 3.37975 57.677 3.56015C58.4673 3.92095 59.288 4.04348 60.1441 3.94307C62.206 3.70141 64.1901 4.02817 66.0645 4.89442C68.2378 5.89853 70.5259 6.501 72.8427 7.02177C73.8998 7.26004 74.869 7.64806 75.6576 8.45135C76.2774 9.08275 77.1149 9.33633 77.9457 9.56608C78.0113 9.58425 78.0769 9.60224 78.1425 9.62024C78.618 9.75059 79.0942 9.88116 79.5483 10.0801C80.7641 10.611 81.5375 11.5318 81.8752 12.8133C81.9563 13.1264 82.0306 13.2319 82.3869 13.1894C83.2818 13.0839 84.1836 13.089 85.0532 13.4004C86.0647 13.7629 86.5814 14.4488 86.5206 15.5193C86.4582 16.6153 86.9023 17.4305 87.6959 18.1112C88.2228 18.5639 88.8088 18.9315 89.4217 19.2464C89.952 19.5204 90.3539 19.9101 90.6916 20.3952C91.0056 20.8462 91.301 21.3102 91.5965 21.7743C92.0369 22.4659 92.4775 23.1577 92.9797 23.8074C93.4322 24.3929 93.9439 24.9 94.5923 25.2796C95.4299 25.7697 95.9973 26.5321 96.4735 27.3626C97.4411 29.0475 97.9932 30.8872 98.4188 32.7678C98.5041 33.1445 98.5872 33.5218 98.6703 33.899C99.0859 35.7853 99.5015 37.6715 100.187 39.4869Z" fill="#037847"/>
<path d="M24.951 65.0081L38.5686 73.4976L38.7349 73.6077C39.4385 74.0707 40.1025 74.5085 40.2 75.2L42.0064 85.1008L42.0059 85.1003C42.0482 85.3318 42.2496 85.4998 42.4846 85.5002C42.5142 85.5002 42.5438 85.4976 42.573 85.492C42.8371 85.4441 43.0129 85.1908 42.9646 84.9263V84.9254L41.1617 75.0447C41.0072 73.9376 40.0851 73.3296 39.2713 72.7936L25.4955 64.1995C25.1082 63.9154 24.8849 63.4593 24.8975 62.9789L24.9267 41.2858C24.9254 40.6261 25.1778 39.9912 25.6312 39.5125C26.0847 39.0334 26.7048 38.7466 27.3636 38.7118C28.0177 38.6922 28.6504 38.9481 29.1068 39.4172C29.5777 39.888 29.8344 40.5312 29.8179 41.197L29.5846 53.7041C29.7291 53.5478 29.8836 53.4016 30.0476 53.2663C30.2134 53.1336 30.3897 53.0148 30.5746 52.9112L30.7931 41.2152H30.7926C30.8148 40.3148 30.478 39.4428 29.857 38.7909C29.2361 38.1386 28.3814 37.76 27.4811 37.7382C27.4371 37.7373 27.3927 37.7369 27.3488 37.7378V37.7373C26.4363 37.7787 25.5751 38.169 24.9427 38.8279C24.31 39.4867 23.9554 40.3635 23.9519 41.2765L23.9227 62.9696C23.9088 63.7768 24.293 64.5397 24.951 65.0084L24.951 65.0081Z" fill="#262325" stroke="#262325"/>
<path d="M29.256 56.8308C29.2094 57.9065 29.6259 58.9505 30.4001 59.699C30.4192 59.7172 30.4401 59.7342 30.4619 59.7494L38.1594 65.0367C38.3814 65.1885 38.6842 65.132 38.8361 64.9105C38.9884 64.689 38.9327 64.3861 38.7117 64.2334L31.0485 58.9697C30.4928 58.4161 30.1956 57.6546 30.2295 56.8709C30.2635 56.0549 30.6455 55.293 31.2783 54.7773C32.3605 53.897 34.293 54.2899 35.4179 55.2116V55.2111C35.4318 55.2225 35.4462 55.2329 35.4614 55.2425L47.6521 63.1684C48.1103 63.4635 48.4754 63.8821 48.7047 64.3765L48.7743 64.531V64.5314C48.8657 64.7394 48.9328 64.957 48.9745 65.1807L51.2265 77.3167L52.6886 84.14C52.7369 84.3646 52.9349 84.5247 53.1647 84.5251C53.1991 84.5251 53.2339 84.5217 53.2674 84.5143C53.5302 84.4581 53.6978 84.1992 53.6416 83.9364V83.9355L52.1821 77.1252L49.9328 65.0025V65.003C49.8775 64.7057 49.7883 64.4159 49.6669 64.1396L49.5912 63.9712V63.9708C49.2852 63.3084 48.797 62.7471 48.1834 62.3524L36.015 54.4399C34.565 53.2668 32.1756 52.7906 30.6634 54.0218C29.814 54.7137 29.3018 55.7368 29.2565 56.8312L29.256 56.8308Z" fill="#262325" stroke="#262325"/>
<path d="M80.1809 53.2651C80.3449 53.4004 80.4999 53.547 80.6443 53.7033L80.4111 41.1963C80.3945 40.5305 80.6517 39.8873 81.1221 39.4164C81.5782 38.9464 82.2113 38.6901 82.8658 38.711C83.5233 38.7454 84.1421 39.0309 84.5955 39.5082C85.0489 39.9851 85.3018 40.6183 85.3022 41.2763L85.3314 62.9861V62.9866C85.344 63.4526 85.1321 63.896 84.7622 64.1798L71.1211 72.6846L70.9584 72.7921C70.1446 73.3286 69.2225 73.9362 69.0711 75.0236L67.2647 84.9243C67.2417 85.0514 67.2695 85.1824 67.3431 85.2886C67.4162 85.3947 67.5289 85.4674 67.6555 85.4909H67.6564C67.6855 85.4966 67.7151 85.4992 67.7447 85.4992C67.9797 85.4987 68.1812 85.3308 68.2234 85.0993L70.0328 75.1784C70.1263 74.5074 70.7908 74.0696 71.4945 73.6062L85.3071 64.9879C85.9481 64.5205 86.321 63.7698 86.3067 62.977L86.2775 41.2671V41.2667C86.2723 40.355 85.9168 39.4804 85.2845 38.8232C84.6526 38.1661 83.7919 37.7771 82.8811 37.7362C81.9808 37.7231 81.1117 38.0678 80.4659 38.6953C79.8197 39.3224 79.4494 40.1809 79.4359 41.0813C79.4355 41.1257 79.4355 41.1701 79.4363 41.214L79.6548 52.9089C79.8397 53.0129 80.016 53.1317 80.1813 53.264L80.1809 53.2651Z" fill="#262325" stroke="#262325"/>
<path d="M62.0459 62.3518C61.4328 62.7465 60.9445 63.3079 60.6381 63.9697L60.562 64.1394V64.1399C60.441 64.4162 60.3518 64.7056 60.2965 65.0024L58.0498 77.1117L56.5877 83.935C56.5311 84.1978 56.6982 84.4568 56.961 84.5133H56.9619V84.5138C56.9954 84.5212 57.0302 84.5246 57.0646 84.5246C57.2944 84.5242 57.4924 84.3641 57.5407 84.1395L59.0058 77.3027L61.2551 65.18V65.1805C61.2965 64.9572 61.3635 64.7401 61.4544 64.5321L61.5245 64.3759C61.7538 63.882 62.1189 63.4633 62.5771 63.1687L74.7678 55.2428V55.2423C74.783 55.2327 74.7974 55.2223 74.8113 55.211C75.9353 54.2902 77.8675 53.8951 78.9505 54.7771C79.5837 55.2928 79.9657 56.0548 79.9997 56.8707C80.0336 57.6544 79.7364 58.4159 79.1807 58.9695L71.5175 64.2332C71.4109 64.3063 71.3374 64.4186 71.3134 64.5457C71.2895 64.6727 71.3169 64.8041 71.39 64.9107C71.5419 65.1331 71.8452 65.1901 72.0676 65.0382L72.0697 65.0369L79.7673 59.7493C79.7891 59.7341 79.81 59.7171 79.8291 59.6988C80.6033 58.9503 81.0198 57.9064 80.9732 56.8307C80.928 55.7358 80.4158 54.7132 79.5659 54.0212C78.0537 52.791 75.6651 53.2667 74.2147 54.4394L62.0459 62.3518Z" fill="#262325" stroke="#262325"/>
<path d="M53.9973 65.4345C54.2754 65.7635 54.684 65.9537 55.1153 65.9537C55.5461 65.9537 55.9551 65.7635 56.2327 65.4345L71.7431 47.0366C72.4668 46.1946 73.0934 45.2743 73.6113 44.292C74.5869 42.5397 75.0978 40.5667 75.0947 38.5614C75.0425 35.7351 73.9316 33.0318 71.9816 30.9857C70.0317 28.9396 67.3845 27.6998 64.5643 27.5118C60.5561 27.2972 57.1483 30.0487 55.1148 32.8851C53.0817 30.0487 49.6687 27.3159 45.6649 27.5118C42.8842 27.7267 40.2788 28.9526 38.3402 30.957C36.4012 32.9613 35.2637 35.6062 35.1414 38.3926C35.0191 41.1785 35.9212 43.913 37.6766 46.0792L53.9973 65.4345ZM45.7167 28.4861C45.8437 28.4796 45.9704 28.4761 46.0966 28.4761C49.7941 28.4761 52.9516 31.302 54.7062 34.0153H54.7058C54.8011 34.1463 54.9534 34.2237 55.1153 34.2237C55.2771 34.2237 55.4295 34.1463 55.5248 34.0153C57.3394 31.209 60.6727 28.2795 64.5138 28.4861H64.5134C67.0887 28.6602 69.5052 29.7942 71.284 31.6645C73.063 33.5348 74.0752 36.0048 74.12 38.5853C74.1182 40.4269 73.6452 42.2371 72.7462 43.8442C72.2614 44.7615 71.6752 45.6218 70.9985 46.4087L55.487 64.8066C55.3926 64.9132 55.2572 64.9741 55.1149 64.9741C54.9722 64.9741 54.8369 64.9132 54.7424 64.8066L38.4222 45.4517C36.8504 43.5157 36.0293 41.0774 36.1101 38.5848C36.155 36.0044 37.1672 33.5344 38.9461 31.6645C40.725 29.7942 43.141 28.6601 45.7163 28.4861L45.7167 28.4861Z" fill="#262325" stroke="#262325"/>
</svg>
