<svg width="65" height="65" viewBox="0 0 65 65" fill="none" xmlns="http://www.w3.org/2000/svg">
<path d="M32.2495 64.6001C14.605 64.6001 0.249512 50.2446 0.249512 32.6001C0.249512 14.9556 14.605 0.600098 32.2495 0.600098C49.894 0.600098 64.2495 14.9556 64.2495 32.6001C64.2495 50.2446 49.894 64.6001 32.2495 64.6001ZM32.2495 1.68505C15.2036 1.68505 1.33446 15.5542 1.33446 32.6001C1.33446 49.646 15.2036 63.5151 32.2495 63.5151C49.2955 63.5151 63.1646 49.646 63.1646 32.6001C63.1646 15.5542 49.2955 1.68505 32.2495 1.68505Z" fill="#037847"/>
<path d="M29.1232 53.3889H29.0213C26.5525 53.0215 23.1144 52.0933 20.7781 49.757H20.7778C17.9563 46.8199 16.3211 42.9427 16.187 38.8721V26.0891C16.3407 22.1366 17.9798 18.3873 20.7768 15.5903C23.5735 12.7932 27.3228 11.1542 31.2756 11.0005H33.1427C37.0898 11.1618 40.8312 12.8041 43.622 15.6001C46.4124 18.3965 48.0473 22.1414 48.2004 26.0892V38.8722C48.1597 39.1932 47.8866 39.4339 47.5628 39.4339C47.2392 39.4339 46.9658 39.1932 46.9252 38.8722V26.0892C46.7683 22.4825 45.2665 19.065 42.7155 16.5105C40.1645 13.9557 36.7493 12.4488 33.1425 12.2865H31.2754C27.6633 12.4415 24.2407 13.9452 21.6837 16.5007C19.1264 19.0561 17.6201 22.4777 17.4626 26.0891V38.8721C17.6039 42.6001 19.1023 46.1484 21.6758 48.8491C23.767 50.8895 26.9193 51.777 29.2045 52.1237H29.2048C29.5541 52.1491 29.8167 52.4529 29.7913 52.8022C29.7659 53.1515 29.4623 53.4141 29.1131 53.3887L29.1232 53.3889Z" fill="#037847"/>
<path d="M37.5498 31.2926C37.1164 31.2951 36.6998 31.1252 36.3915 30.8204C36.0835 30.5156 35.9091 30.1006 35.9076 29.6671C35.9057 29.2334 36.0762 28.8171 36.3819 28.5098C36.6874 28.2021 37.1027 28.0287 37.5361 28.0281C37.9698 28.0271 38.3858 28.1986 38.6926 28.5047C38.9996 28.8111 39.172 29.2267 39.172 29.6602C39.172 30.0914 39.0015 30.5051 38.6976 30.8108C38.3935 31.1166 37.981 31.2897 37.5498 31.2925L37.5498 31.2926ZM37.5498 29.3134C37.3583 29.3134 37.203 29.4687 37.203 29.6601C37.203 30.0478 37.8968 30.0478 37.8968 29.6601C37.8711 29.4887 37.7232 29.3623 37.5498 29.3642L37.5498 29.3134ZM26.8689 31.2926C26.4361 31.2926 26.0207 31.1205 25.7147 30.8144C25.4086 30.5083 25.2368 30.093 25.2368 29.6602C25.2368 29.2274 25.4086 28.8121 25.7147 28.506C26.0208 28.2 26.4361 28.0278 26.8689 28.0278C27.302 28.0278 27.717 28.1999 28.023 28.506C28.3291 28.8121 28.5012 29.2274 28.5012 29.6602C28.5012 30.093 28.3291 30.5083 28.023 30.8144C27.7169 31.1204 27.3019 31.2926 26.8689 31.2926ZM26.8689 29.3134C26.6774 29.3134 26.5221 29.4687 26.5221 29.6601C26.5221 30.0478 27.2159 30.0478 27.2159 29.6601C27.1902 29.4887 27.0422 29.3623 26.8689 29.3642L26.8689 29.3134Z" fill="#037847"/>
<path d="M32.2245 42.453C29.0925 42.453 26.4094 40.7187 25.716 38.2192C25.6686 38.0569 25.6886 37.8826 25.7712 37.735C25.8534 37.5873 25.9916 37.4791 26.1544 37.4337C26.4945 37.3413 26.847 37.5353 26.9502 37.8725C27.4807 39.7903 29.7047 41.1677 32.2245 41.1677C34.7444 41.1677 36.9784 39.7906 37.5091 37.8725C37.6078 37.5318 37.9638 37.3352 38.3048 37.4337C38.4677 37.4791 38.6058 37.5873 38.688 37.735C38.7706 37.8826 38.7906 38.0569 38.7433 38.2192C37.9987 40.7187 35.3668 42.453 32.2246 42.453H32.2245ZM48.037 39.7087C47.716 39.668 47.4749 39.395 47.4749 39.0711C47.4749 38.7475 47.7159 38.4741 48.037 38.4335C49.6506 38.2433 51.1344 37.4562 52.1972 36.2273C53.2602 34.9982 53.8247 33.4163 53.7806 31.7922C53.8273 30.1665 53.2637 28.5818 52.2009 27.3507C51.1378 26.1196 49.6522 25.3312 48.0369 25.1407C47.8661 25.1331 47.7057 25.0556 47.5939 24.9264C47.4819 24.7972 47.4282 24.6273 47.4453 24.4571C47.4825 24.111 47.781 23.8528 48.1286 23.8656C50.0671 24.0792 51.8548 25.0121 53.1392 26.4797C54.4232 27.947 55.111 29.8426 55.0659 31.7921C55.1107 33.7408 54.4226 35.6347 53.1382 37.1008C51.8538 38.5665 50.0662 39.4971 48.1286 39.7086L48.037 39.7087ZM16.412 39.7087C14.4672 39.5067 12.6697 38.5802 11.3768 37.1136C10.0838 35.6466 9.39032 33.7469 9.43421 31.7922C9.38913 29.8426 10.0766 27.947 11.3609 26.4798C12.6453 25.0122 14.433 24.0793 16.3711 23.8656C16.7207 23.8475 17.0224 24.1085 17.0548 24.4572C17.0716 24.6274 17.0179 24.7972 16.9062 24.9265C16.7941 25.0557 16.634 25.1332 16.4629 25.1408C14.8477 25.3313 13.3623 26.1197 12.2992 27.3508C11.2362 28.5819 10.6725 30.1666 10.7195 31.7923C10.675 33.4164 11.2399 34.9983 12.3027 36.2274C13.3654 37.4562 14.8495 38.2434 16.4629 38.4336C16.7842 38.4742 17.0249 38.7476 17.0249 39.0712C17.0249 39.395 16.7842 39.6681 16.4629 39.7088L16.412 39.7087Z" fill="#037847"/>
<path d="M32.2245 56.5208C31.2319 56.5208 30.28 56.1255 29.5796 55.4221C28.8791 54.7191 28.4873 53.7659 28.4907 52.773C28.4946 51.7805 28.8934 50.8301 29.5989 50.1322C30.3048 49.4343 31.2596 49.046 32.2522 49.0533C33.2447 49.0606 34.1935 49.4626 34.8889 50.171C35.5843 50.8791 35.9691 51.8352 35.9583 52.8277C35.9449 53.8102 35.5461 54.7478 34.8476 55.4387C34.1491 56.1296 33.2069 56.5183 32.2245 56.5208ZM32.2245 50.3285C31.5749 50.3285 30.9516 50.5856 30.4909 51.0438C30.0304 51.502 29.7698 52.124 29.7663 52.7737C29.7628 53.4233 30.0165 54.0479 30.4721 54.5111C30.9278 54.9741 31.5482 55.2383 32.1978 55.2453C32.8475 55.2526 33.4733 55.0023 33.9391 54.5492C34.4049 54.0961 34.6723 53.4772 34.6831 52.8276C34.6942 52.1684 34.4398 51.5327 33.9775 51.0628C33.5152 50.5929 32.8837 50.3281 32.2245 50.3284L32.2245 50.3285Z" fill="#037847"/>
<path d="M47.8639 25.5181H47.7413C45.5754 25.077 43.524 24.1943 41.7144 22.9255C39.9045 21.6563 38.376 20.028 37.2234 18.142C34.2536 20.9292 30.3294 22.4733 26.2563 22.4574C23.4824 22.4733 20.7514 21.7706 18.3297 20.417C18.1823 20.3344 18.0737 20.1969 18.0277 20.0341C17.9817 19.8715 18.0023 19.6975 18.0849 19.5498C18.2566 19.2428 18.645 19.1333 18.952 19.305C21.1832 20.5551 23.6989 21.2086 26.2562 21.2026C28.2481 21.2048 30.2196 20.8015 32.0507 20.0176C33.8815 19.2336 35.5339 18.0854 36.9069 16.6424C37.0523 16.4988 37.2545 16.4277 37.4577 16.4487C37.6587 16.4804 37.8327 16.6052 37.927 16.7852C38.9568 18.692 40.3919 20.3498 42.1317 21.6417C43.8714 22.9338 45.8734 23.8285 47.9963 24.2632C48.3052 24.3419 48.51 24.6356 48.4767 24.9528C48.4434 25.2704 48.1824 25.5152 47.8636 25.5282L47.8639 25.5181Z" fill="#037847"/>
</svg>
