<svg width="70" height="93" viewBox="0 0 70 93" fill="none" xmlns="http://www.w3.org/2000/svg">
<path d="M69.5679 58.1312C69.5679 39.4541 37.2379 2.62986 35.8617 1.07087C35.4244 0.576636 34.5747 0.576636 34.1374 1.07087C32.7606 2.62982 0.431152 39.4562 0.431152 58.1312C0.431152 77.1926 15.9389 92.7002 35.0001 92.7002C54.0623 92.7002 69.5691 77.1933 69.5691 58.1312H69.5679ZM2.73257 58.1312C2.73257 41.9559 29.7839 9.66484 35.001 3.58703C40.2186 9.66402 67.2695 41.9559 67.2695 58.1312C67.2695 75.9241 52.7943 90.3997 35.001 90.3997C17.2078 90.3997 2.73257 75.9237 2.73257 58.1312Z" fill="#037847"/>
<path d="M59.4706 57.8005C59.4706 57.165 58.9554 56.6499 58.32 56.6499C57.6845 56.6499 57.1694 57.165 57.1694 57.8005C57.1694 70.0265 47.2235 79.9735 34.9964 79.9735C22.7703 79.9735 12.8234 70.0276 12.8234 57.8005C12.8234 57.165 12.3083 56.6499 11.6728 56.6499C11.0373 56.6499 10.5222 57.165 10.5222 57.8005C10.5222 71.2943 21.5007 82.2719 34.9937 82.2719C48.4891 82.2719 59.4672 71.2935 59.4672 57.8005H59.4706Z" fill="#037847"/>
</svg>
