<svg width="101" height="94" viewBox="0 0 101 94" fill="none" xmlns="http://www.w3.org/2000/svg">
<path d="M2.55392 60.1956L24.1544 73.6618L24.4181 73.8364C25.5342 74.5708 26.5875 75.2652 26.7421 76.362L29.6074 92.0667L29.6067 92.066C29.6736 92.4333 29.9932 92.6997 30.366 92.7004C30.4129 92.7004 30.4598 92.6962 30.5061 92.6873C30.9251 92.6113 31.2039 92.2096 31.1273 91.7899V91.7886L28.2675 76.1157C28.0225 74.3597 26.5598 73.3953 25.269 72.545L3.41762 58.9131C2.80328 58.4623 2.44918 57.7389 2.4692 56.9769L2.51545 22.5671C2.51338 21.5207 2.91373 20.5136 3.63297 19.7543C4.35221 18.9943 5.33583 18.5394 6.38092 18.4842C7.41837 18.4532 8.42204 18.859 9.146 19.6031C9.89286 20.35 10.3001 21.3702 10.2739 22.4263L9.90389 42.265C10.1331 42.0173 10.3781 41.7853 10.6383 41.5706C10.9013 41.3601 11.1808 41.1717 11.4742 41.0074L11.8207 22.4551H11.82C11.8552 21.027 11.321 19.6437 10.336 18.6096C9.35099 17.5749 7.99535 16.9744 6.56721 16.9399C6.4975 16.9385 6.42709 16.9378 6.35738 16.9392V16.9385C4.90991 17.0041 3.54388 17.6233 2.5409 18.6683C1.53726 19.7134 0.974704 21.1042 0.969191 22.5523L0.922944 56.9621C0.900856 58.2426 1.51035 59.4526 2.55402 60.196L2.55392 60.1956Z" fill="#037847" stroke="#037847"/>
<path d="M9.38303 47.2251C9.30918 48.9314 9.96975 50.5872 11.1978 51.7745C11.2282 51.8035 11.2613 51.8304 11.2958 51.8546L23.5058 60.2412C23.8578 60.4821 24.3382 60.3924 24.5791 60.041C24.8207 59.6897 24.7324 59.2093 24.3817 58.967L12.2263 50.6177C11.3449 49.7396 10.8735 48.5317 10.9273 47.2885C10.9811 45.9943 11.5872 44.7857 12.5908 43.9677C14.3075 42.5713 17.3728 43.1946 19.1572 44.6566V44.6559C19.1793 44.6738 19.202 44.6904 19.2262 44.7056L38.5631 57.2778C39.2899 57.7458 39.869 58.4098 40.2328 59.194L40.3432 59.439V59.4397C40.4882 59.7697 40.5945 60.1148 40.6607 60.4696L44.2328 79.7199L46.5521 90.5431C46.6287 90.8992 46.9428 91.1532 47.3072 91.1539C47.3618 91.1539 47.417 91.1484 47.4701 91.1367C47.8871 91.0476 48.1528 90.6369 48.0638 90.22V90.2186L45.7486 79.4161L42.1807 60.187V60.1877C42.093 59.7163 41.9515 59.2566 41.759 58.8183L41.6389 58.5511V58.5505C41.1536 57.4999 40.3791 56.6095 39.4058 55.9835L20.1043 43.4326C17.8043 41.5717 14.0142 40.8165 11.6156 42.7693C10.2682 43.8668 9.4557 45.4897 9.38395 47.2256L9.38303 47.2251Z" fill="#037847" stroke="#037847"/>
<path d="M90.1604 41.5691C90.4206 41.7837 90.6663 42.0164 90.8955 42.2642L90.5255 22.4255C90.4993 21.3694 90.9072 20.3492 91.6534 19.6022C92.3768 18.8568 93.3811 18.4502 94.4192 18.4833C95.4621 18.5379 96.4437 18.9907 97.1629 19.7479C97.8821 20.5044 98.2831 21.5087 98.2838 22.5524L98.3301 56.9887V56.9894C98.3501 57.7286 98.014 58.432 97.4272 58.8821L75.7897 72.3725L75.5315 72.543C74.2407 73.394 72.7781 74.3577 72.538 76.0825L69.6727 91.7872C69.6361 91.9888 69.6803 92.1965 69.7969 92.365C69.9129 92.5334 70.0917 92.6487 70.2925 92.6859H70.2939C70.3402 92.6949 70.3871 92.699 70.434 92.699C70.8068 92.6984 71.1264 92.4319 71.1933 92.0647L74.0634 76.3282C74.2118 75.2639 75.2658 74.5695 76.3819 73.8344L98.2916 60.1639C99.3084 59.4226 99.8999 58.2318 99.8771 56.9742L99.8309 22.5379V22.5372C99.8226 21.0911 99.2587 19.7037 98.2557 18.6613C97.2535 17.6191 95.8882 17.002 94.4435 16.9371C93.0153 16.9164 91.6369 17.4631 90.6125 18.4584C89.5875 19.4531 89.0001 20.815 88.9787 22.2431C88.978 22.3135 88.978 22.3839 88.9794 22.4536L89.3259 41.0041C89.6192 41.1691 89.8988 41.3576 90.1611 41.5674L90.1604 41.5691Z" fill="#037847" stroke="#037847"/>
<path d="M61.3941 55.9825C60.4216 56.6086 59.6471 57.499 59.1611 58.5488L59.0403 58.818V58.8187C58.8484 59.257 58.7069 59.716 58.6193 60.1868L55.0555 79.3947L52.7362 90.2179C52.6465 90.6348 52.9115 91.0455 53.3285 91.1352H53.3298V91.1359C53.383 91.1476 53.4382 91.1532 53.4927 91.1532C53.8572 91.1525 54.1712 90.8984 54.2479 90.5423L56.5719 79.6977L60.1398 60.4686V60.4693C60.2053 60.1152 60.3116 59.7708 60.4559 59.4408L60.567 59.193C60.9308 58.4096 61.5099 57.7456 62.2368 57.2783L81.5736 44.706V44.7053C81.5978 44.6902 81.6206 44.6736 81.6426 44.6556C83.4256 43.1951 86.4904 42.5684 88.2083 43.9675C89.2126 44.7854 89.8187 45.9941 89.8725 47.2883C89.9263 48.5314 89.4549 49.7394 88.5734 50.6174L76.4181 58.9667C76.2489 59.0827 76.1323 59.2608 76.0943 59.4623C76.0564 59.6639 76.0999 59.8724 76.2158 60.0415C76.4567 60.3942 76.9378 60.4846 77.2905 60.2437L77.294 60.2416L89.504 51.8543C89.5385 51.8302 89.5716 51.8032 89.602 51.7742C90.83 50.587 91.4906 48.9311 91.4168 47.2248C91.345 45.4881 90.5325 43.866 89.1844 42.7685C86.7858 40.8171 82.9969 41.5716 80.6964 43.4318L61.3941 55.9825Z" fill="#037847" stroke="#037847"/>
<path d="M48.6271 60.8722C49.0682 61.394 49.7163 61.6957 50.4004 61.6957C51.0837 61.6957 51.7326 61.394 52.1729 60.8722L76.7756 31.6893C77.9235 30.3537 78.9174 28.8938 79.7389 27.3358C81.2865 24.5562 82.0969 21.4266 82.0919 18.2459C82.0091 13.7627 80.2469 9.4748 77.1539 6.22926C74.0608 2.98371 69.862 1.01716 65.3885 0.718878C59.0306 0.378579 53.6252 4.74299 50.3996 9.24208C47.1748 4.74299 41.7611 0.40823 35.4101 0.718878C30.9993 1.05987 26.8667 3.00438 23.7917 6.18367C20.716 9.36295 18.9116 13.5583 18.7176 17.978C18.5237 22.3971 19.9546 26.7347 22.7391 30.1707L48.6271 60.8722ZM35.4923 2.26434C35.6938 2.25399 35.8947 2.24847 36.0949 2.24847C41.9599 2.24847 46.9684 6.73095 49.7515 11.0348H49.7508C49.902 11.2426 50.1436 11.3654 50.4004 11.3654C50.6571 11.3654 50.8987 11.2426 51.0499 11.0348C53.9283 6.5834 59.2156 1.93658 65.3084 2.26437H65.3077C69.3926 2.54047 73.2257 4.33924 76.0474 7.30595C78.8692 10.2727 80.4747 14.1906 80.5457 18.2838C80.543 21.2049 79.7927 24.0763 78.3666 26.6255C77.5977 28.0806 76.6679 29.4452 75.5945 30.6933L50.99 59.8761C50.8402 60.0452 50.6256 60.1419 50.3999 60.1419C50.1735 60.1419 49.9588 60.0452 49.809 59.8761L23.9217 29.1754C21.4285 26.1044 20.126 22.2368 20.2543 18.2831C20.3254 14.1899 21.931 10.2719 24.7527 7.30595C27.5745 4.33924 31.4067 2.54038 35.4916 2.26437L35.4923 2.26434Z" fill="#037847" stroke="#037847"/>
</svg>
