<svg width="107" height="106" viewBox="0 0 107 106" fill="none" xmlns="http://www.w3.org/2000/svg">
<path fill-rule="evenodd" clip-rule="evenodd" d="M102.794 38.6761C103.394 40.2636 104.058 41.8258 104.899 43.2889C106.1 45.3797 106.463 47.5643 106.014 49.9095C105.639 51.8841 105.61 53.8812 105.581 55.8816C105.576 56.2096 105.571 56.5377 105.565 56.8657C105.443 63.1779 104.384 69.3133 101.806 75.1167C100.992 76.9532 100.075 78.7391 98.9099 80.3826C98.108 81.5155 97.1575 82.4662 95.8329 82.9641C95.4627 83.103 95.2834 83.4203 95.1066 83.7333C95.0927 83.7577 95.0789 83.7822 95.065 83.8065C94.831 84.2185 94.6021 84.6334 94.3731 85.0484C93.9945 85.7348 93.6158 86.4211 93.2142 87.0934C90.8909 90.9919 87.8837 94.1958 83.8456 96.3263C82.3528 97.1128 80.8152 97.7893 79.1487 98.123C78.5831 98.2349 78.1321 98.5524 77.8188 99.0395C77.5682 99.4291 77.3194 99.8242 77.1189 100.241C76.6339 101.246 75.8248 101.69 74.749 101.704C74.3742 101.709 73.9985 101.708 73.6231 101.707C73.4625 101.706 73.302 101.706 73.1417 101.706C69.9269 101.486 66.9681 102.355 64.4013 104.242C62.214 105.85 59.9067 106.138 57.3739 105.62C56.6676 105.475 55.9914 105.233 55.3164 104.99C55.1515 104.931 54.9866 104.872 54.8215 104.814C53.6079 104.392 52.5876 104.59 51.6872 105.541C51.1288 106.131 50.701 106.135 50.0315 105.653C49.7953 105.482 49.5657 105.303 49.3361 105.123C49.1066 104.944 48.877 104.764 48.6407 104.594C48.0196 104.145 47.352 104.024 46.6163 104.325C46.2008 104.497 45.7688 104.631 45.3384 104.765C45.2571 104.79 45.1759 104.816 45.0948 104.841C43.9367 105.206 42.8663 105.045 41.8747 104.32C41.0603 103.726 40.1904 103.248 39.1701 103.107C38.4175 103.005 37.6864 103.132 36.9535 103.26L36.9505 103.261C35.7656 103.468 34.8473 103.024 34.1314 102.103C33.6087 101.432 33.2686 100.656 33.0968 99.8296C32.941 99.0828 32.5168 98.5632 31.9601 98.1122C30.8486 97.2138 29.5849 96.5716 28.3104 95.9528C26.0855 94.8722 23.8123 93.8945 21.4996 93.025C17.7515 91.616 14.7336 89.2258 12.1686 86.1987C10.7993 84.5823 9.61254 82.8468 8.80348 80.866C8.36852 79.7999 7.71697 78.8456 6.87927 78.0735C5.61378 76.9081 5.01056 75.4793 4.85841 73.798C4.80293 73.1702 4.63646 72.5587 4.41272 71.9669C4.2194 71.4564 3.96344 70.9747 3.53922 70.6266C2.42407 69.7102 2.27551 68.5538 2.6693 67.2531C2.81428 66.7769 3.02908 66.3295 3.32621 65.9308C3.78086 65.3192 3.83456 64.677 3.5428 63.9807C2.99865 62.68 2.56369 61.345 2.34711 59.9415C2.11867 58.4509 2.16516 56.9556 2.21167 55.46C2.21508 55.3501 2.2185 55.2402 2.22181 55.1303C2.24508 54.3474 2.25224 53.568 2.17885 52.7887C2.11262 52.0653 1.91036 51.3888 1.57385 50.7358C0.517771 48.6792 -0.0406949 46.5126 0.299397 44.1782C0.415744 43.3755 0.727196 42.6503 1.25702 42.0315C1.58656 41.6469 1.91879 41.264 2.25109 40.881C2.6841 40.382 3.11721 39.8828 3.54459 39.3796C4.44314 38.3207 4.94075 37.1336 4.98729 35.6977C5.04278 33.9929 5.63705 32.3982 6.4658 30.9279C7.01352 29.9556 7.2319 28.9255 7.36435 27.8503C7.37546 27.7608 7.38706 27.6712 7.39868 27.5816C7.44886 27.1943 7.49916 26.8061 7.50934 26.4179C7.51829 26.077 7.66507 25.9218 7.9622 25.81C8.33809 25.6693 8.68176 25.4546 9.00753 25.2129C9.55705 24.8052 9.91146 24.3073 10.0027 23.5857C10.2032 21.9837 11.0302 20.6776 12.2742 19.7341C13.8486 18.5395 15.3248 17.2317 16.801 15.9239C17.3488 15.4386 17.8967 14.9532 18.4496 14.4737C19.4 13.6511 20.44 12.9475 21.5032 12.2782C22.8493 11.4285 23.6512 10.2505 23.7514 8.6071C23.8302 7.30642 24.5354 6.81934 25.8116 7.11159C26.0586 7.16751 26.3045 7.23065 26.5505 7.29381C26.7807 7.35289 27.0108 7.41198 27.2418 7.46517C28.1565 7.67624 28.9548 7.48141 29.5884 6.74718C29.6172 6.71359 29.6479 6.68162 29.6787 6.64962C29.7206 6.606 29.7625 6.56233 29.7997 6.51446C31.1922 4.70506 33.1164 3.90589 35.2859 3.54329C36.0545 3.4153 36.8289 3.35819 37.6031 3.30109C38.2694 3.25195 38.9355 3.20281 39.5979 3.10853C41.3234 2.86318 42.8914 2.29312 44.0996 0.956361C44.7386 0.249195 45.5119 0.0255005 46.4445 0.204096C47.4916 0.404339 48.4492 0.797609 49.2583 1.49034C50.3627 2.43564 51.63 2.52583 52.9653 2.29492C53.8316 2.14519 54.4474 1.64007 54.8268 0.837298C55.2045 0.0363249 55.5965 -0.147683 56.4396 0.10668C56.8799 0.240176 57.3149 0.402536 57.7337 0.593759C58.5714 0.976206 59.4413 1.10609 60.3488 0.999658C62.5344 0.743491 64.6376 1.08986 66.6244 2.00809C68.9281 3.07245 71.3535 3.71106 73.8093 4.26308C74.9298 4.51564 75.9573 4.92695 76.7932 5.77843C77.4501 6.44772 78.3379 6.71651 79.2186 6.96005C79.288 6.9793 79.3576 6.99837 79.4271 7.01745C79.9311 7.15563 80.4359 7.29403 80.9172 7.50486C82.206 8.0677 83.0258 9.04366 83.3838 10.4021C83.4697 10.734 83.5485 10.8459 83.9261 10.8008C84.8748 10.6889 85.8307 10.6943 86.7525 11.0244C87.8247 11.4087 88.3724 12.1357 88.3079 13.2704C88.2417 14.4322 88.7125 15.2963 89.5538 16.0179C90.1122 16.4978 90.7333 16.8874 91.3831 17.2212C91.9451 17.5116 92.3711 17.9247 92.7291 18.4389C93.062 18.917 93.3751 19.4088 93.6884 19.9007C94.1552 20.6338 94.6222 21.3671 95.1545 22.0559C95.6342 22.6764 96.1766 23.214 96.8639 23.6163C97.7518 24.1359 98.3532 24.9441 98.8579 25.8244C99.8836 27.6104 100.469 29.5605 100.92 31.5539C101.01 31.9532 101.098 32.3531 101.187 32.753C101.627 34.7524 102.068 36.7518 102.794 38.6761ZM99.9868 39.4869C100.553 40.9845 101.179 42.4583 101.973 43.8386C103.106 45.811 103.449 47.872 103.025 50.0845C102.671 51.9472 102.643 53.8314 102.616 55.7185C102.611 56.0279 102.607 56.3374 102.601 56.6469C102.486 62.6018 101.486 68.3899 99.0547 73.8648C98.2864 75.5973 97.4218 77.2822 96.3225 78.8326C95.566 79.9014 94.6693 80.7983 93.4197 81.268C93.0705 81.399 92.9014 81.6983 92.7345 81.9936C92.7215 82.0167 92.7084 82.0398 92.6953 82.0628C92.4745 82.4513 92.2586 82.8428 92.0426 83.2342C91.6854 83.8818 91.3281 84.5293 90.9492 85.1636C88.7574 88.8414 85.9205 91.8639 82.1109 93.8738C80.7026 94.6159 79.2521 95.2541 77.6799 95.5689C77.1463 95.6744 76.7208 95.974 76.4253 96.4335C76.1889 96.8011 75.9542 97.1738 75.765 97.5669C75.3074 98.5149 74.5441 98.9335 73.5293 98.9471C73.1757 98.9519 72.8213 98.9508 72.4673 98.9498C72.3157 98.9493 72.1642 98.9489 72.0129 98.9489C68.9801 98.7412 66.1888 99.5615 63.7673 101.342C61.7037 102.858 59.5271 103.13 57.1377 102.642C56.4713 102.505 55.8333 102.276 55.1965 102.047C55.0409 101.991 54.8855 101.936 54.7297 101.881C53.5848 101.483 52.6222 101.67 51.7729 102.567C51.246 103.124 50.8424 103.127 50.2109 102.673C49.988 102.512 49.7714 102.342 49.5548 102.173C49.3383 102.004 49.1217 101.834 48.8988 101.674C48.3128 101.25 47.683 101.136 46.989 101.42C46.597 101.582 46.1895 101.709 45.7835 101.835C45.7068 101.859 45.6301 101.883 45.5536 101.907C44.4611 102.251 43.4513 102.099 42.5158 101.415C41.7474 100.855 40.9267 100.404 39.9642 100.271C39.2543 100.174 38.5645 100.295 37.8731 100.415L37.8703 100.416C36.7524 100.612 35.8862 100.193 35.2107 99.3233C34.7176 98.6902 34.3968 97.9584 34.2347 97.1789C34.0878 96.4743 33.6876 95.9842 33.1624 95.5587C32.1137 94.7112 30.9216 94.1053 29.7193 93.5215C27.6203 92.5021 25.4757 91.5797 23.294 90.7594C19.758 89.4302 16.9109 87.1752 14.4911 84.3195C13.1993 82.7946 12.0797 81.1574 11.3165 79.2887C10.9061 78.2829 10.2915 77.3826 9.5012 76.6542C8.30733 75.5548 7.73826 74.2069 7.59473 72.6208C7.54238 72.0285 7.38534 71.4516 7.17426 70.8933C6.99188 70.4117 6.75041 69.9573 6.3502 69.6288C5.29818 68.7643 5.15802 67.6734 5.52952 66.4463C5.6663 65.997 5.86894 65.575 6.14925 65.1989C6.57817 64.6219 6.62883 64.0161 6.35358 63.3591C5.84023 62.1321 5.42989 60.8727 5.22557 59.5486C5.01006 58.1424 5.05392 56.7317 5.0978 55.3208C5.10102 55.2171 5.10424 55.1134 5.10736 55.0097C5.12932 54.2711 5.13607 53.5359 5.06684 52.8007C5.00436 52.1182 4.81354 51.48 4.49608 50.8639C3.49978 48.9238 2.97293 46.8798 3.29377 44.6776C3.40353 43.9202 3.69735 43.2361 4.19719 42.6523C4.50809 42.2895 4.82154 41.9282 5.13505 41.5669C5.54352 41.0962 5.9521 40.6253 6.35527 40.1506C7.20296 39.1516 7.67241 38.0317 7.71631 36.677C7.76866 35.0688 8.32929 33.5643 9.11112 32.1773C9.62785 31.26 9.83386 30.2882 9.95882 29.2739C9.96929 29.1894 9.98024 29.1049 9.9912 29.0204C10.0385 28.655 10.086 28.2888 10.0956 27.9226C10.104 27.6009 10.2425 27.4546 10.5228 27.349C10.8774 27.2163 11.2017 27.0138 11.509 26.7857C12.0274 26.4011 12.3618 25.9314 12.4479 25.2506C12.637 23.7393 13.4172 22.5072 14.5908 21.6171C16.076 20.4901 17.4687 19.2563 18.8613 18.0226C19.3781 17.5647 19.895 17.1068 20.4166 16.6544C21.3132 15.8784 22.2943 15.2146 23.2974 14.5832C24.5672 13.7816 25.3237 12.6703 25.4183 11.1199C25.4926 9.89285 26.1579 9.43334 27.3619 9.70904C27.5949 9.7618 27.8269 9.82137 28.059 9.88095C28.2761 9.93669 28.4932 9.99243 28.7111 10.0426C29.574 10.2417 30.3272 10.0579 30.9249 9.36526C30.9521 9.33358 30.9811 9.30341 31.0101 9.27322C31.0496 9.23207 31.0891 9.19088 31.1242 9.14572C32.438 7.43873 34.2533 6.6848 36.2999 6.34272C37.025 6.22198 37.7556 6.1681 38.4859 6.11423C39.1145 6.06787 39.743 6.02152 40.3678 5.93257C41.9957 5.70112 43.4749 5.16332 44.6147 3.90223C45.2176 3.23509 45.9471 3.02406 46.8268 3.19254C47.8147 3.38145 48.7181 3.75246 49.4814 4.40598C50.5233 5.29777 51.7188 5.38286 52.9786 5.16502C53.7959 5.02377 54.3767 4.54724 54.7347 3.7899C55.091 3.03427 55.4608 2.86068 56.2562 3.10064C56.6716 3.22658 57.0819 3.37975 57.4771 3.56015C58.2674 3.92095 59.088 4.04348 59.9442 3.94307C62.006 3.70141 63.9902 4.02817 65.8645 4.89442C68.0378 5.89853 70.3259 6.501 72.6427 7.02177C73.6998 7.26004 74.6691 7.64806 75.4577 8.45135C76.0774 9.08275 76.915 9.33633 77.7458 9.56608C77.8113 9.58425 77.877 9.60224 77.9426 9.62024C78.4181 9.75059 78.8943 9.88116 79.3483 10.0801C80.5641 10.611 81.3375 11.5318 81.6753 12.8133C81.7563 13.1264 81.8306 13.2319 82.1869 13.1894C83.0819 13.0839 83.9836 13.089 84.8533 13.4004C85.8648 13.7629 86.3815 14.4488 86.3207 15.5193C86.2582 16.6153 86.7023 17.4305 87.496 18.1112C88.0229 18.5639 88.6088 18.9315 89.2218 19.2464C89.752 19.5204 90.1539 19.9101 90.4916 20.3952C90.8056 20.8462 91.1011 21.3102 91.3966 21.7743C91.837 22.4659 92.2775 23.1577 92.7797 23.8074C93.2323 24.3929 93.7439 24.9 94.3924 25.2796C95.2299 25.7697 95.7973 26.5321 96.2735 27.3626C97.2411 29.0475 97.7933 30.8872 98.2188 32.7678C98.3041 33.1445 98.3872 33.5218 98.4704 33.899C98.8859 35.7853 99.3015 37.6715 99.9868 39.4869Z" fill="#037847"/>
<path d="M53.9272 62.1451C60.1248 61.7679 65.0515 56.6055 65.0515 50.3149C65.0515 49.9538 64.7855 49.6473 64.4275 49.5967C62.0021 49.2564 59.9068 49.4733 58.1514 50.2167C58.0548 48.2833 57.3564 44.5082 53.6435 41.6312C53.382 41.4289 53.0169 41.4289 52.7554 41.6312C49.0424 44.5083 48.3441 48.2829 48.2475 50.2162C46.4926 49.4728 44.3985 49.2554 41.9715 49.5967C41.6134 49.6468 41.3474 49.9538 41.3474 50.3148C41.3474 56.6074 46.2766 61.7703 52.4773 62.1451V66.7963C52.4773 67.1968 52.802 67.5215 53.2025 67.5215C53.6031 67.5215 53.9277 67.1973 53.9277 66.7963L53.9272 62.1451ZM52.4773 60.6922C47.2881 60.3346 43.1341 56.1554 42.8171 50.9556C45.6258 50.6794 47.8728 51.2524 49.5047 52.667C52.1557 54.9644 52.4429 58.8443 52.4738 59.5842C52.4723 59.65 52.4718 59.6924 52.4718 59.7081C52.4718 59.7395 52.4733 59.7698 52.4774 59.7997L52.4773 60.6922ZM53.1995 55.7715C52.7029 54.3514 51.8679 52.7994 50.4635 51.5786C50.2152 51.3626 49.9548 51.1659 49.6847 50.9823C49.6458 49.8566 49.7934 46.0728 53.1994 43.1402C56.6059 46.0728 56.7531 49.8571 56.7146 50.9828C56.4446 51.1659 56.1841 51.3631 55.9358 51.5786C54.5309 52.7994 53.6959 54.3514 53.1993 55.7715L53.1995 55.7715ZM56.8866 52.6734C58.5195 51.2539 60.7705 50.6784 63.5818 50.956C63.2648 56.1533 59.1133 60.332 53.9272 60.6915V59.7079C53.9272 59.6917 53.9267 59.6477 53.9252 59.5789C53.955 58.829 54.2367 54.9764 56.8867 52.6733L56.8866 52.6734Z" fill="#262325"/>
<path d="M43.8227 38.7758C43.8475 38.7779 43.8718 38.7794 43.8965 38.7794C44.1828 38.7794 44.4458 38.6095 44.5616 38.3424C44.6298 38.1852 46.2143 34.454 44.6329 31.758C43.0515 29.0626 39.0224 28.6236 38.8515 28.6058C38.5385 28.5816 38.2386 28.7495 38.1132 29.0392C38.0449 29.1965 36.4604 32.9277 38.0419 35.6237C39.6228 38.3196 43.6523 38.7581 43.8227 38.7758L43.8227 38.7758ZM39.2535 30.1357C40.2786 30.3334 42.4644 30.9271 43.3818 32.4913C44.2956 34.0488 43.7474 36.2523 43.4207 37.2456C42.3956 37.0478 40.2104 36.4546 39.2925 34.89C38.3786 33.3324 38.9268 31.1294 39.2535 30.1357Z" fill="#262325"/>
<path d="M24.3436 53.9801C24.159 54.2365 24.1615 54.5824 24.3492 54.8363C24.4513 54.9738 26.8737 58.1917 29.9854 58.1907H30.0162C33.1416 58.1694 35.5357 54.8989 35.6363 54.7599C35.8209 54.5035 35.8183 54.1576 35.6307 53.9037C35.5285 53.7661 33.1062 50.5498 29.9945 50.5498H29.9636C26.8388 50.57 24.4442 53.8405 24.3436 53.9801ZM29.9732 51.9997H29.9737H29.995C31.7923 51.9997 33.4167 53.5664 34.1105 54.3427C33.4268 55.1321 31.8196 56.7282 30.0061 56.7408H29.9849C28.1875 56.7408 26.5631 55.1731 25.8693 54.3972C26.5536 53.6073 28.1597 52.0117 29.9732 51.9995L29.9732 51.9997Z" fill="#262325"/>
<path d="M37.9491 79.8756C38.0669 80.1375 38.3273 80.3034 38.61 80.3034C38.6379 80.3034 38.6657 80.3019 38.6935 80.2983C38.8639 80.2786 42.8864 79.7855 44.4313 77.0683C45.9753 74.3501 44.3403 70.6416 44.27 70.4853C44.1405 70.1981 43.8376 70.0256 43.5261 70.0626C43.3557 70.0818 39.3326 70.5744 37.7882 73.2926C36.2432 76.0103 37.8783 79.7188 37.9491 79.8756L37.9491 79.8756ZM39.0485 74.0088C39.9406 72.4385 42.1227 71.8119 43.1458 71.598C43.4871 72.5852 44.0667 74.7739 43.1706 76.3518C42.278 77.9216 40.0958 78.5487 39.0722 78.7626C38.7314 77.7754 38.1518 75.5861 39.0485 74.0088H39.0485Z" fill="#262325"/>
<path d="M67.5483 80.3961C67.5731 80.3981 67.5973 80.3996 67.6221 80.3996C67.9084 80.3996 68.1713 80.2297 68.2871 79.9627C68.3554 79.8054 69.9399 76.0742 68.3585 73.3783C66.777 70.6823 62.748 70.2438 62.5771 70.2261C62.263 70.1983 61.9642 70.3697 61.8388 70.6595C61.7705 70.8168 60.186 74.5479 61.7675 77.2439C63.3483 79.9394 67.3779 80.3784 67.5483 80.3961L67.5483 80.3961ZM62.9791 71.7564C64.0042 71.9542 66.1894 72.5474 67.1073 74.112C68.0212 75.6696 67.473 77.8731 67.1463 78.8663C66.1212 78.6686 63.9354 78.0749 63.0181 76.5107C62.1042 74.9532 62.6524 72.7497 62.9791 71.7564Z" fill="#262325"/>
<path d="M82.0562 55.0211C82.2408 54.7647 82.2382 54.4188 82.0506 54.165C81.9485 54.0274 79.5261 50.8105 76.4144 50.8105H76.3836C73.2582 50.8318 70.8641 54.1023 70.7635 54.2413C70.5789 54.4977 70.5815 54.8436 70.7691 55.0975C70.8712 55.2351 73.2936 58.4514 76.4053 58.4514H76.4361C79.561 58.4312 81.9556 55.1607 82.0562 55.0211ZM76.4266 57.0016H76.4261C74.6308 56.9859 72.9862 55.4384 72.2893 54.6585C72.973 53.8691 74.5802 52.273 76.3937 52.2605H76.4149C78.2123 52.2605 79.8367 53.8281 80.5305 54.604C79.8462 55.3939 78.2401 56.9895 76.4266 57.0017L76.4266 57.0016Z" fill="#262325"/>
<path d="M68.4507 29.1261C68.3213 28.8388 68.0214 28.6659 67.7063 28.7033C67.5359 28.723 63.5134 29.2161 61.9685 31.9333C60.4245 34.6515 62.0595 38.36 62.1298 38.5163C62.2476 38.7783 62.5081 38.9441 62.7908 38.9441C62.8186 38.9441 62.8464 38.9426 62.8742 38.9391C63.0446 38.9199 67.0677 38.4273 68.6121 35.7091C70.1566 32.9914 68.5215 29.2829 68.4507 29.1261L68.4507 29.1261ZM67.3513 34.9929C66.4592 36.5631 64.277 37.1898 63.254 37.4036C62.9127 36.4165 62.3331 34.2277 63.2292 32.6498C64.1218 31.0801 66.304 30.453 67.3275 30.2391C67.6684 31.2262 68.248 33.4155 67.3513 34.9929H67.3513Z" fill="#262325"/>
<path d="M53.9248 31.3537V26.2252C53.9248 25.8247 53.6001 25.5 53.1996 25.5C52.799 25.5 52.4744 25.8242 52.4744 26.2252V31.3542C52.4744 31.7547 52.799 32.0794 53.1996 32.0794C53.6001 32.0789 53.9248 31.7547 53.9248 31.3537V31.3537Z" fill="#262325"/>
<path d="M28.0851 40.0004C27.8853 40.3473 28.0037 40.7903 28.3506 40.9911L32.7924 43.5556C32.9067 43.6214 33.0311 43.6527 33.154 43.6527C33.4048 43.6527 33.6481 43.5222 33.7826 43.2901C33.9824 42.9432 33.864 42.5002 33.5171 42.2994L29.0753 39.7349C28.7279 39.5346 28.2854 39.654 28.0851 40.0004H28.0851Z" fill="#262325"/>
<path d="M32.7924 65.4454L28.3506 68.01C28.0037 68.2102 27.8853 68.6532 28.0851 69.0001C28.2196 69.2333 28.4634 69.3627 28.7137 69.3627C28.8366 69.3627 28.9615 69.3314 29.0753 69.2657L33.5171 66.7011C33.864 66.5008 33.9824 66.0573 33.7826 65.7104C33.5828 65.363 33.1388 65.2446 32.7924 65.4454H32.7924Z" fill="#262325"/>
<path d="M53.1998 76.9209C52.7993 76.9209 52.4746 77.2451 52.4746 77.6461V82.7746C52.4746 83.1751 52.7993 83.4998 53.1998 83.4998C53.6004 83.4998 53.925 83.1756 53.925 82.7746V77.6456C53.925 77.2451 53.6004 76.9209 53.1998 76.9209V76.9209Z" fill="#262325"/>
<path d="M73.6073 65.4453C73.2594 65.245 72.8173 65.3644 72.6166 65.7108C72.4168 66.0577 72.5352 66.5008 72.8821 66.7015L77.3239 69.2661C77.4382 69.3313 77.5626 69.3627 77.6855 69.3627C77.9363 69.3627 78.1796 69.2322 78.3141 69.0001C78.5138 68.6531 78.3955 68.2101 78.0486 68.0094L73.6073 65.4453Z" fill="#262325"/>
<path d="M77.3241 39.7351L72.8823 42.2996C72.5354 42.4999 72.4171 42.9434 72.6168 43.2903C72.7514 43.5235 72.9951 43.6529 73.2454 43.6529C73.3683 43.6529 73.4933 43.6216 73.607 43.5558L78.0488 40.9913C78.3962 40.7905 78.5146 40.3475 78.3148 40.0006C78.1141 39.6532 77.67 39.5348 77.3241 39.7351H77.3241Z" fill="#262325"/>
</svg>
