<svg width="65" height="65" viewBox="0 0 65 65" fill="none" xmlns="http://www.w3.org/2000/svg">
<path d="M32.2495 64.6001C14.605 64.6001 0.249512 50.2446 0.249512 32.6001C0.249512 14.9556 14.605 0.600098 32.2495 0.600098C49.894 0.600098 64.2495 14.9556 64.2495 32.6001C64.2495 50.2446 49.894 64.6001 32.2495 64.6001ZM32.2495 1.68505C15.2036 1.68505 1.33446 15.5542 1.33446 32.6001C1.33446 49.646 15.2036 63.5151 32.2495 63.5151C49.2955 63.5151 63.1646 49.646 63.1646 32.6001C63.1646 15.5542 49.2955 1.68505 32.2495 1.68505Z" fill="#037847"/>
<path d="M17.3779 47.0206C15.0013 47.0206 13.0698 45.0943 13.0698 42.7254C13.0698 40.3564 15.0026 38.4302 17.3779 38.4302C19.7531 38.4302 21.6861 40.3564 21.6861 42.7254C21.6865 45.094 19.7536 47.0206 17.3779 47.0206ZM17.3779 39.5144C15.6008 39.5144 14.1532 40.9553 14.1532 42.7249C14.1532 44.4945 15.5993 45.9354 17.3779 45.9354C19.1551 45.9354 20.6027 44.4945 20.6027 42.7249C20.6017 40.9553 19.1551 39.5144 17.3779 39.5144Z" fill="#037847"/>
<path d="M42.1416 47.0206C39.765 47.0206 37.8335 45.0943 37.8335 42.7254C37.8335 40.3564 39.7663 38.4302 42.1416 38.4302C44.5169 38.4302 46.4497 40.3564 46.4497 42.7254C46.4497 45.094 44.5169 47.0206 42.1416 47.0206ZM42.1416 39.5144C40.3645 39.5144 38.9169 40.9553 38.9169 42.7249C38.9169 44.4945 40.363 45.9354 42.1416 45.9354C43.9197 45.9354 45.3664 44.4945 45.3664 42.7249C45.3649 40.9553 43.9183 39.5144 42.1416 39.5144Z" fill="#037847"/>
<path d="M49.3898 35.8271H45.7621C45.4626 35.8271 45.2202 35.5852 45.2202 35.2852V30.559C45.2202 30.2595 45.4621 30.0171 45.7621 30.0171C46.0616 30.0171 46.304 30.259 46.304 30.559V34.7437H49.3897C49.6892 34.7437 49.9316 34.9857 49.9316 35.2856C49.9316 35.5852 49.6897 35.8271 49.3897 35.8271L49.3898 35.8271Z" fill="#037847"/>
<path d="M54.932 51.1321H9.56876C9.26924 51.1321 9.02686 50.8902 9.02686 50.5902C9.02686 50.2907 9.26876 50.0483 9.56876 50.0483H54.932C55.2315 50.0483 55.4739 50.2902 55.4739 50.5902C55.4734 50.8898 55.2315 51.1321 54.9315 51.1321H54.932Z" fill="#037847"/>
<path d="M54.9314 43.1744H45.8977C45.6034 43.1744 45.3634 42.9405 45.3558 42.6453C45.311 40.8896 43.8986 39.5148 42.141 39.5148C41.8415 39.5148 41.5991 39.2729 41.5991 38.9729L41.5996 26.6313C41.5996 26.3317 41.8415 26.0894 42.1415 26.0894H48.3696C48.5134 26.0894 48.6525 26.147 48.7534 26.2484L55.3168 32.8213C55.4182 32.9227 55.4749 33.0603 55.4749 33.2051V42.6332C55.4749 42.9322 55.2315 43.1741 54.9315 43.1741L54.9314 43.1744ZM46.3953 42.0896H54.3901V33.4281L48.1434 27.1733H42.6829V38.4638C44.602 38.6995 46.1148 40.1772 46.3953 42.0895V42.0896Z" fill="#037847"/>
<path d="M38.3754 43.2693H21.1478C20.8483 43.2693 20.6059 43.0274 20.6059 42.7274C20.6059 40.9579 19.1598 39.5169 17.3812 39.5169C15.6041 39.5169 14.1564 40.9579 14.1564 42.7274C14.1564 43.0269 13.9145 43.2693 13.6145 43.2693H9.56876C9.26924 43.2693 9.02686 43.0274 9.02686 42.7274L9.02733 21.1332C9.02733 20.8337 9.26924 20.5913 9.56923 20.5913H16.2645C16.445 20.5913 16.6131 20.6808 16.7145 20.8304C16.8159 20.9799 16.835 21.1708 16.7678 21.337C16.2888 22.518 16.0469 23.7532 16.0469 25.0094C16.0469 30.4442 20.5097 34.8642 25.9945 34.8642C31.4793 34.8642 35.9422 30.4437 35.9422 25.0094C35.9422 23.7518 35.7003 22.5166 35.2213 21.338C35.1532 21.1704 35.1732 20.9794 35.2746 20.8304C35.3751 20.6808 35.5432 20.5913 35.7246 20.5913H42.1436C42.4431 20.5913 42.6855 20.8332 42.6855 21.1332V38.974C42.6855 39.2735 42.4436 39.5159 42.1436 39.5159C40.3665 39.5159 38.9189 40.9568 38.9189 42.7264C38.9174 43.0264 38.6755 43.2692 38.3755 43.2692L38.3754 43.2693ZM21.655 42.1846H37.8671C38.1123 40.2484 39.6571 38.7103 41.5994 38.465V21.6751H36.4975C36.8484 22.7555 37.0265 23.8746 37.0265 25.0084C37.0265 31.0403 32.0769 35.9479 25.9941 35.9479C19.9108 35.9479 14.9618 31.0403 14.9618 25.0084C14.9618 23.8746 15.1389 22.7565 15.4908 21.6751H10.1127V42.1855H13.1079C13.3755 40.0727 15.1898 38.4317 17.3821 38.4317C19.5736 38.4317 21.387 40.0712 21.6545 42.1851L21.655 42.1846Z" fill="#037847"/>
<path d="M25.9909 35.9478C19.9076 35.9478 14.9585 31.0402 14.9585 25.0083C14.9585 18.9765 19.9081 14.0688 25.9909 14.0688C32.0742 14.0688 37.0233 18.9765 37.0233 25.0083C37.0233 31.0402 32.0742 35.9478 25.9909 35.9478ZM25.9909 15.1533C20.5061 15.1533 16.0432 19.5738 16.0432 25.0081C16.0432 30.4429 20.506 34.8629 25.9909 34.8629C31.4757 34.8629 35.9385 30.4424 35.9385 25.0081C35.9385 19.5738 31.4766 15.1533 25.9909 15.1533Z" fill="#037847"/>
<path d="M29.2345 27.8121C29.1279 27.8121 29.0193 27.7802 28.925 27.715L25.6821 25.4535C25.5369 25.3521 25.4507 25.1859 25.4507 25.0088V18.9565C25.4507 18.6569 25.6926 18.4146 25.9926 18.4146C26.2921 18.4146 26.5345 18.6565 26.5345 18.9565V24.726L29.5459 26.825C29.7911 26.997 29.8521 27.335 29.6802 27.5803C29.5745 27.7322 29.4059 27.8122 29.2345 27.8122L29.2345 27.8121Z" fill="#037847"/>
</svg>
