<svg width="107" height="106" viewBox="0 0 107 106" fill="none" xmlns="http://www.w3.org/2000/svg">
<path fill-rule="evenodd" clip-rule="evenodd" d="M103.394 38.6761C103.994 40.2636 104.658 41.8258 105.499 43.2889C106.7 45.3797 107.063 47.5643 106.614 49.9095C106.239 51.8841 106.21 53.8812 106.181 55.8816C106.176 56.2096 106.171 56.5377 106.165 56.8657C106.043 63.1779 104.983 69.3133 102.406 75.1167C101.591 76.9532 100.675 78.7391 99.5097 80.3826C98.7078 81.5155 97.7573 82.4662 96.4328 82.9641C96.0626 83.103 95.8833 83.4203 95.7064 83.7333C95.6926 83.7577 95.6788 83.7822 95.6649 83.8065C95.4309 84.2185 95.2019 84.6334 94.973 85.0484C94.5943 85.7348 94.2157 86.4211 93.8141 87.0934C91.4907 90.9919 88.4836 94.1958 84.4454 96.3263C82.9526 97.1128 81.415 97.7893 79.7486 98.123C79.183 98.2349 78.7319 98.5524 78.4187 99.0395C78.1681 99.4291 77.9193 99.8242 77.7188 100.241C77.2337 101.246 76.4246 101.69 75.3489 101.704C74.974 101.709 74.5983 101.708 74.223 101.707C74.0624 101.706 73.9019 101.706 73.7415 101.706C70.5267 101.486 67.5679 102.355 65.0012 104.242C62.8138 105.85 60.5066 106.138 57.9738 105.62C57.2675 105.475 56.5912 105.233 55.9162 104.99C55.7513 104.931 55.5865 104.872 55.4213 104.814C54.2077 104.392 53.1874 104.59 52.2871 105.541C51.7286 106.131 51.3008 106.135 50.6314 105.653C50.3951 105.482 50.1656 105.303 49.936 105.123C49.7064 104.944 49.4769 104.764 49.2406 104.594C48.6195 104.145 47.9518 104.024 47.2162 104.325C46.8006 104.497 46.3686 104.631 45.9383 104.765C45.857 104.79 45.7757 104.816 45.6947 104.841C44.5366 105.206 43.4662 105.045 42.4746 104.32C41.6601 103.726 40.7902 103.248 39.7699 103.107C39.0174 103.005 38.2862 103.132 37.5533 103.26L37.5504 103.261C36.3654 103.468 35.4472 103.024 34.7312 102.103C34.2085 101.432 33.8685 100.656 33.6966 99.8296C33.5409 99.0828 33.1167 98.5632 32.56 98.1122C31.4484 97.2138 30.1847 96.5716 28.9103 95.9528C26.6854 94.8722 24.4121 93.8945 22.0995 93.025C18.3513 91.616 15.3335 89.2258 12.7684 86.1987C11.3991 84.5823 10.2124 82.8468 9.40333 80.866C8.96837 79.7999 8.31683 78.8456 7.47913 78.0735C6.21363 76.9081 5.61041 75.4793 5.45827 73.798C5.40278 73.1702 5.23631 72.5587 5.01257 71.9669C4.81925 71.4564 4.56329 70.9747 4.13907 70.6266C3.02393 69.7102 2.87536 68.5538 3.26915 67.2531C3.41414 66.7769 3.62893 66.3295 3.92607 65.9308C4.38071 65.3192 4.43441 64.677 4.14265 63.9807C3.5985 62.68 3.16354 61.345 2.94696 59.9415C2.71852 58.4509 2.76502 56.9556 2.81152 55.46C2.81494 55.3501 2.81835 55.2402 2.82166 55.1303C2.84493 54.3474 2.85209 53.568 2.7787 52.7887C2.71248 52.0653 2.51021 51.3888 2.1737 50.7358C1.11762 48.6792 0.559159 46.5126 0.89925 44.1782C1.0156 43.3755 1.32705 42.6503 1.85688 42.0315C2.18641 41.6469 2.51865 41.264 2.85095 40.881C3.28395 40.382 3.71706 39.8828 4.14444 39.3796C5.043 38.3207 5.54061 37.1336 5.58715 35.6977C5.64263 33.9929 6.2369 32.3982 7.06565 30.9279C7.61338 29.9556 7.83175 28.9255 7.96421 27.8503C7.97531 27.7608 7.98692 27.6712 7.99853 27.5816C8.04871 27.1943 8.09902 26.8061 8.10919 26.4179C8.11814 26.077 8.26492 25.9218 8.56205 25.81C8.93794 25.6693 9.28162 25.4546 9.60739 25.2129C10.1569 24.8052 10.5113 24.3073 10.6026 23.5857C10.8031 21.9837 11.63 20.6776 12.8741 19.7341C14.4484 18.5395 15.9247 17.2317 17.4008 15.9239C17.9487 15.4386 18.4966 14.9532 19.0494 14.4737C19.9999 13.6511 21.0398 12.9475 22.1031 12.2782C23.4491 11.4285 24.251 10.2505 24.3513 8.6071C24.43 7.30642 25.1353 6.81934 26.4115 7.11159C26.6584 7.16751 26.9044 7.23065 27.1504 7.29381C27.3805 7.35289 27.6107 7.41198 27.8417 7.46517C28.7563 7.67624 29.5547 7.48141 30.1883 6.74718C30.2171 6.71359 30.2478 6.68162 30.2785 6.64962C30.3204 6.606 30.3623 6.56233 30.3995 6.51446C31.7921 4.70506 33.7163 3.90589 35.8857 3.54329C36.6544 3.4153 37.4288 3.35819 38.203 3.30109C38.8692 3.25195 39.5354 3.20281 40.1977 3.10853C41.9232 2.86318 43.4913 2.29312 44.6995 0.956361C45.3385 0.249195 46.1117 0.0255005 47.0443 0.204096C48.0914 0.404339 49.0491 0.797609 49.8581 1.49034C50.9625 2.43564 52.2298 2.52583 53.5651 2.29492C54.4315 2.14519 55.0472 1.64007 55.4267 0.837298C55.8044 0.0363249 56.1964 -0.147683 57.0394 0.10668C57.4798 0.240176 57.9147 0.402536 58.3336 0.593759C59.1713 0.976206 60.0412 1.10609 60.9487 0.999658C63.1342 0.743491 65.2374 1.08986 67.2243 2.00809C69.528 3.07245 71.9533 3.71106 74.4092 4.26308C75.5297 4.51564 76.5571 4.92695 77.393 5.77843C78.0499 6.44772 78.9377 6.71651 79.8184 6.96005C79.8879 6.9793 79.9574 6.99837 80.027 7.01745C80.531 7.15563 81.0358 7.29403 81.5171 7.50486C82.8058 8.0677 83.6256 9.04366 83.9836 10.4021C84.0696 10.734 84.1483 10.8459 84.526 10.8008C85.4747 10.6889 86.4305 10.6943 87.3523 11.0244C88.4245 11.4087 88.9722 12.1357 88.9078 13.2704C88.8416 14.4322 89.3123 15.2963 90.1536 16.0179C90.7121 16.4978 91.3332 16.8874 91.983 17.2212C92.545 17.5116 92.971 17.9247 93.329 18.4389C93.6618 18.917 93.975 19.4088 94.2882 19.9007C94.755 20.6338 95.222 21.3671 95.7544 22.0559C96.2341 22.6764 96.7764 23.214 97.4638 23.6163C98.3516 24.1359 98.953 24.9441 99.4578 25.8244C100.483 27.6104 101.069 29.5605 101.52 31.5539C101.61 31.9532 101.698 32.3531 101.786 32.753C102.227 34.7524 102.667 36.7518 103.394 38.6761ZM100.587 39.4869C101.152 40.9845 101.779 42.4583 102.573 43.8386C103.706 45.811 104.048 47.872 103.625 50.0845C103.271 51.9472 103.243 53.8314 103.216 55.7185C103.211 56.0279 103.207 56.3374 103.201 56.6469C103.086 62.6018 102.086 68.3899 99.6546 73.8648C98.8862 75.5973 98.0217 77.2822 96.9223 78.8326C96.1658 79.9014 95.2692 80.7983 94.0196 81.268C93.6704 81.399 93.5012 81.6983 93.3344 81.9936C93.3213 82.0167 93.3083 82.0398 93.2952 82.0628C93.0744 82.4513 92.8584 82.8428 92.6425 83.2342C92.2852 83.8818 91.928 84.5293 91.5491 85.1636C89.3573 88.8414 86.5203 91.8639 82.7108 93.8738C81.3025 94.6159 79.8519 95.2541 78.2798 95.5689C77.7462 95.6744 77.3207 95.974 77.0251 96.4335C76.7887 96.8011 76.554 97.1738 76.3649 97.5669C75.9073 98.5149 75.144 98.9335 74.1291 98.9471C73.7756 98.9519 73.4212 98.9508 73.0671 98.9498C72.9156 98.9493 72.7641 98.9489 72.6127 98.9489C69.5799 98.7412 66.7886 99.5615 64.3671 101.342C62.3036 102.858 60.1269 103.13 57.7375 102.642C57.0712 102.505 56.4332 102.276 55.7963 102.047C55.6408 101.991 55.4853 101.936 55.3295 101.881C54.1846 101.483 53.2221 101.67 52.3727 102.567C51.8459 103.124 51.4423 103.127 50.8107 102.673C50.5878 102.512 50.3713 102.342 50.1547 102.173C49.9381 102.004 49.7216 101.834 49.4987 101.674C48.9127 101.25 48.2828 101.136 47.5888 101.42C47.1968 101.582 46.7893 101.709 46.3834 101.835C46.3066 101.859 46.23 101.883 46.1535 101.907C45.0609 102.251 44.0511 102.099 43.1156 101.415C42.3473 100.855 41.5266 100.404 40.5641 100.271C39.8541 100.174 39.1644 100.295 38.473 100.415L38.4702 100.416C37.3523 100.612 36.486 100.193 35.8106 99.3233C35.3175 98.6902 34.9966 97.9584 34.8345 97.1789C34.6876 96.4743 34.2874 95.9842 33.7622 95.5587C32.7136 94.7112 31.5214 94.1053 30.3191 93.5215C28.2201 92.5021 26.0756 91.5797 23.8938 90.7594C20.3578 89.4302 17.5108 87.1752 15.091 84.3195C13.7992 82.7946 12.6796 81.1574 11.9163 79.2887C11.506 78.2829 10.8913 77.3826 10.1011 76.6542C8.90719 75.5548 8.33812 74.2069 8.19458 72.6208C8.14223 72.0285 7.98519 71.4516 7.77411 70.8933C7.59174 70.4117 7.35026 69.9573 6.95006 69.6288C5.89803 68.7643 5.75788 67.6734 6.12938 66.4463C6.26616 65.997 6.46879 65.575 6.74911 65.1989C7.17802 64.6219 7.22868 64.0161 6.95343 63.3591C6.44009 62.1321 6.02975 60.8727 5.82542 59.5486C5.60992 58.1424 5.65378 56.7317 5.69765 55.3208C5.70087 55.2171 5.7041 55.1134 5.70722 55.0097C5.72917 54.2711 5.73592 53.5359 5.66669 52.8007C5.60421 52.1182 5.41339 51.48 5.09593 50.8639C4.09964 48.9238 3.57278 46.8798 3.89362 44.6776C4.00338 43.9202 4.29721 43.2361 4.79704 42.6523C5.10794 42.2895 5.42139 41.9282 5.7349 41.5669C6.14338 41.0962 6.55195 40.6253 6.95512 40.1506C7.80282 39.1516 8.27226 38.0317 8.31616 36.677C8.36851 35.0688 8.92914 33.5643 9.71098 32.1773C10.2277 31.26 10.4337 30.2882 10.5587 29.2739C10.5691 29.1894 10.5801 29.1049 10.5911 29.0204C10.6384 28.655 10.6859 28.2888 10.6955 27.9226C10.7039 27.6009 10.8424 27.4546 11.1227 27.349C11.4773 27.2163 11.8015 27.0138 12.1088 26.7857C12.6273 26.4011 12.9616 25.9314 13.0477 25.2506C13.2369 23.7393 14.017 22.5072 15.1906 21.6171C16.6758 20.4901 18.0685 19.2563 19.4611 18.0226C19.978 17.5647 20.4948 17.1068 21.0164 16.6544C21.9131 15.8784 22.8942 15.2146 23.8972 14.5832C25.1671 13.7816 25.9236 12.6703 26.0182 11.1199C26.0925 9.89285 26.7578 9.43334 27.9618 9.70904C28.1947 9.7618 28.4268 9.82137 28.6588 9.88095C28.8759 9.93669 29.0931 9.99243 29.311 10.0426C30.1739 10.2417 30.927 10.0579 31.5248 9.36526C31.552 9.33358 31.5809 9.30341 31.6099 9.27322C31.6494 9.23207 31.689 9.19088 31.7241 9.14572C33.0378 7.43873 34.8531 6.6848 36.8997 6.34272C37.6249 6.22198 38.3554 6.1681 39.0858 6.11423C39.7144 6.06787 40.3428 6.02152 40.9677 5.93257C42.5955 5.70112 44.0748 5.16332 45.2146 3.90223C45.8174 3.23509 46.5469 3.02406 47.4267 3.19254C48.4146 3.38145 49.318 3.75246 50.0812 4.40598C51.1231 5.29777 52.3187 5.38286 53.5784 5.16502C54.3957 5.02377 54.9766 4.54724 55.3346 3.7899C55.6909 3.03427 56.0607 2.86068 56.8561 3.10064C57.2715 3.22658 57.6818 3.37975 58.0769 3.56015C58.8672 3.92095 59.6879 4.04348 60.544 3.94307C62.6059 3.70141 64.59 4.02817 66.4644 4.89442C68.6377 5.89853 70.9258 6.501 73.2426 7.02177C74.2997 7.26004 75.269 7.64806 76.0575 8.45135C76.6773 9.08275 77.5148 9.33633 78.3456 9.56608C78.4112 9.58425 78.4768 9.60224 78.5424 9.62024C79.0179 9.75059 79.4941 9.88116 79.9482 10.0801C81.164 10.611 81.9374 11.5318 82.2751 12.8133C82.3562 13.1264 82.4305 13.2319 82.7868 13.1894C83.6817 13.0839 84.5835 13.089 85.4531 13.4004C86.4646 13.7629 86.9813 14.4488 86.9205 15.5193C86.8581 16.6153 87.3022 17.4305 88.0958 18.1112C88.6227 18.5639 89.2087 18.9315 89.8216 19.2464C90.3519 19.5204 90.7538 19.9101 91.0915 20.3952C91.4055 20.8462 91.7009 21.3102 91.9965 21.7743C92.4368 22.4659 92.8774 23.1577 93.3796 23.8074C93.8321 24.3929 94.3438 24.9 94.9922 25.2796C95.8298 25.7697 96.3972 26.5321 96.8734 27.3626C97.841 29.0475 98.3932 30.8872 98.8187 32.7678C98.904 33.1445 98.9871 33.5218 99.0702 33.899C99.4858 35.7853 99.9014 37.6715 100.587 39.4869Z" fill="#037847"/>
<path d="M49.8606 68.7943C49.8606 71.6086 52.1501 73.8986 54.9649 73.8986C57.7793 73.8986 60.0693 71.6092 60.0693 68.7943C60.0693 65.9789 57.7798 63.6895 54.9649 63.6895C52.1501 63.6895 49.8606 65.9789 49.8606 68.7943ZM51.3105 68.7943C51.3105 66.7796 52.9495 65.1395 54.9644 65.1395C56.9793 65.1395 58.6183 66.7796 58.6183 68.7943C58.6183 70.8091 56.9793 72.4482 54.9644 72.4482C52.9495 72.4482 51.3105 70.8092 51.3105 68.7943Z" fill="black"/>
<path d="M54.9655 61.1816C54.5644 61.1816 54.2402 60.8574 54.2402 60.4564V58.2413C54.2402 57.8403 54.5644 57.5161 54.9655 57.5161C55.3665 57.5161 55.6907 57.8403 55.6907 58.2413V60.4564C55.6907 60.8574 55.366 61.1816 54.9655 61.1816Z" fill="black"/>
<path d="M51.8674 61.8391C51.7718 61.8821 51.6717 61.9013 51.5736 61.9013C51.2949 61.9013 51.0304 61.741 50.91 61.4704L50.0093 59.447C49.847 59.0813 50.0114 58.6525 50.3775 58.4901C50.7432 58.3278 51.1715 58.4932 51.3344 58.8583L52.2351 60.8818C52.3979 61.2479 52.2335 61.6768 51.8674 61.8391L51.8674 61.8391Z" fill="black"/>
<path d="M48.7693 63.9404C48.5968 63.9404 48.4228 63.8787 48.2843 63.7543L46.6376 62.2726C46.3402 62.0051 46.3164 61.5464 46.584 61.249C46.8515 60.9511 47.3102 60.9269 47.6076 61.1954L49.2542 62.6771C49.5516 62.9447 49.5754 63.4034 49.3079 63.7007C49.1647 63.86 48.967 63.9404 48.7692 63.9404L48.7693 63.9404Z" fill="black"/>
<path d="M45.1532 64.8443L47.2596 65.5286C47.6394 65.6525 47.8483 66.0616 47.7249 66.4429C47.6247 66.7489 47.3415 66.9431 47.0356 66.9431C46.9607 66.9431 46.8864 66.9315 46.811 66.9077L44.7046 66.2234C44.3248 66.0995 44.1159 65.6904 44.2393 65.3091C44.3637 64.9293 44.7704 64.7204 45.1532 64.8443V64.8443Z" fill="black"/>
<path d="M46.5981 68.9456C46.9895 68.9001 47.3526 69.1919 47.3951 69.5909C47.4381 69.9889 47.1478 70.3455 46.7498 70.3879L44.5473 70.6191C44.522 70.6221 44.4968 70.6236 44.471 70.6236C44.1043 70.6236 43.7903 70.3465 43.7508 69.9737C43.7078 69.5757 43.9981 69.2192 44.3961 69.1767L46.5981 68.9456Z" fill="black"/>
<path d="M45.4638 73.4419L47.382 72.3339C47.7284 72.1346 48.1724 72.2514 48.3722 72.5994C48.5724 72.9458 48.4536 73.3898 48.1067 73.5896L46.1885 74.6976C46.0747 74.7634 45.9498 74.7947 45.8269 74.7947C45.576 74.7947 45.3323 74.6648 45.1983 74.4321C44.9985 74.0867 45.1174 73.6432 45.4638 73.4419H45.4638Z" fill="black"/>
<path d="M49.4786 75.1121C49.7133 74.7879 50.1664 74.7171 50.4906 74.9518C50.8138 75.1864 50.8866 75.6396 50.6509 75.9637L49.3486 77.7561C49.207 77.9518 48.986 78.055 48.7615 78.055C48.6138 78.055 48.4651 78.0099 48.3356 77.9164C48.0125 77.6817 47.9397 77.2286 48.1753 76.9044L49.4786 75.1121Z" fill="black"/>
<path d="M52.5211 76.7984C52.605 76.4069 52.9909 76.1581 53.3818 76.2395C53.7732 76.323 54.0236 76.7079 53.9406 77.1003L53.4794 79.2668C53.4061 79.6076 53.1052 79.8408 52.7704 79.8408C52.7203 79.8408 52.6697 79.8357 52.6186 79.8256C52.2272 79.7422 51.9769 79.3573 52.0598 78.9649L52.5211 76.7984Z" fill="black"/>
<path d="M56.5462 76.2393C56.9372 76.1589 57.3225 76.4062 57.407 76.7981L57.8682 78.9646C57.9506 79.356 57.7013 79.7409 57.3094 79.8253C57.2588 79.8365 57.2077 79.8405 57.1577 79.8405C56.8229 79.8405 56.522 79.6069 56.4486 79.2665L55.9874 77.1C55.905 76.7076 56.1548 76.3227 56.5462 76.2393L56.5462 76.2393Z" fill="black"/>
<path d="M60.451 75.1122L61.7533 76.9045C61.9889 77.2287 61.9171 77.6818 61.5929 77.9165C61.464 78.01 61.3153 78.055 61.1671 78.055C60.9426 78.055 60.7221 77.9514 60.58 77.7561L59.2777 75.9638C59.042 75.6396 59.1138 75.1865 59.438 74.9519C59.7637 74.7167 60.2168 74.7885 60.4509 75.1122H60.451Z" fill="black"/>
<path d="M61.5565 72.6006C61.7573 72.2526 62.2018 72.1353 62.5467 72.3351L64.4649 73.4431C64.8123 73.6434 64.9312 74.0874 64.7304 74.4333C64.5954 74.666 64.3526 74.7959 64.1018 74.7959C63.9784 74.7959 63.854 74.7646 63.7402 74.6988L61.822 73.5908C61.4751 73.3905 61.3562 72.947 61.5565 72.6006H61.5565Z" fill="black"/>
<path d="M62.5352 69.5901C62.5772 69.1916 62.9403 68.8983 63.3323 68.9448L65.5347 69.1759C65.9327 69.2179 66.222 69.5744 66.18 69.9729C66.1411 70.3457 65.827 70.6228 65.4599 70.6228C65.4346 70.6228 65.4093 70.6213 65.3835 70.6182L63.181 70.3871C62.7825 70.3446 62.4922 69.9881 62.5352 69.5901L62.5352 69.5901Z" fill="black"/>
<path d="M65.2244 66.2229L63.1185 66.9077C63.0432 66.9315 62.9683 66.9431 62.894 66.9431C62.588 66.9431 62.3043 66.7479 62.2047 66.4429C62.0808 66.0621 62.2896 65.6525 62.6699 65.5286L64.7764 64.8443C65.1607 64.7204 65.5658 64.9293 65.6907 65.3096C65.8131 65.6899 65.6042 66.0985 65.2244 66.2229L65.2244 66.2229Z" fill="black"/>
<path d="M61.6447 63.7538C61.5061 63.8787 61.3321 63.9399 61.1597 63.9399C60.962 63.9399 60.7637 63.8595 60.6211 63.6997C60.3536 63.4023 60.3773 62.9436 60.6747 62.6761L62.3214 61.1943C62.6187 60.9268 63.0769 60.9506 63.345 61.2479C63.6125 61.5453 63.5887 62.004 63.2914 62.2715L61.6447 63.7538Z" fill="black"/>
<path d="M59.0177 61.4727C58.8974 61.7433 58.6329 61.9036 58.3542 61.9036C58.2556 61.9036 58.1565 61.8839 58.0604 61.8414C57.6943 61.678 57.5304 61.2497 57.6922 60.8845L58.5929 58.8611C58.7563 58.4955 59.1831 58.3311 59.5498 58.4929C59.9159 58.6563 60.0798 59.0846 59.9179 59.4498L59.0177 61.4727Z" fill="black"/>
<path d="M25.9417 35.3438C25.8157 35.5678 25.8167 35.8419 25.9462 36.0639L40.4464 61.0367C40.4697 61.0766 40.5 61.109 40.5289 61.1434C39.3495 63.3995 38.6779 65.961 38.6779 68.6782C38.6779 77.6777 46.0004 85 54.9997 85C63.9991 85 71.3215 77.6775 71.3215 68.6782C71.3215 65.9129 70.6281 63.3079 69.4098 61.0235L83.9036 36.0637C84.0305 35.8447 84.034 35.5752 83.9132 35.3532L79.5628 27.3778C79.5542 27.3626 79.5411 27.3505 79.5315 27.3358C79.5193 27.3161 79.5052 27.2989 79.491 27.2802C79.4425 27.2185 79.3873 27.1649 79.3226 27.1229C79.317 27.1194 79.314 27.1128 79.3079 27.1092C79.3064 27.1087 79.3044 27.1087 79.3029 27.1072C79.2306 27.0632 79.1491 27.0354 79.0642 27.0187C79.0429 27.0142 79.0237 27.0131 79.0025 27.0101C78.9762 27.0071 78.9519 27 78.9256 27H31.0749C31.0516 27 31.0299 27.0071 31.0066 27.0096C30.9844 27.0116 30.9631 27.0142 30.9414 27.0182C30.8574 27.0344 30.776 27.0602 30.7037 27.1037C30.7022 27.1042 30.7006 27.1042 30.6991 27.1052C30.6941 27.1082 30.692 27.1133 30.687 27.1168C30.6202 27.1588 30.5636 27.2139 30.5135 27.2761C30.4999 27.2933 30.4867 27.3095 30.4746 27.3277C30.4645 27.3424 30.4523 27.354 30.4427 27.3697L25.9417 35.3438ZM47.8292 54.0206L37.345 36.6902H72.5068L61.8455 53.8678C59.7619 52.9008 57.4431 52.3567 54.9994 52.3567C52.4284 52.3567 49.9943 52.957 47.8287 54.0206H47.8292ZM32.3606 28.4497H77.622L73.4072 35.2396H36.4679L32.3606 28.4497ZM68.5581 59.6019C67.1647 57.5269 65.3063 55.7912 63.1356 54.5375L78.8839 29.1634L82.4422 35.6874L68.5581 59.6019ZM40.1286 68.6786C40.1286 60.4782 46.8001 53.8068 55.0004 53.8068C63.2007 53.8068 69.8721 60.4784 69.8721 68.6786C69.8721 76.879 63.2006 83.5504 55.0004 83.5504C46.8 83.5504 40.1286 76.8789 40.1286 68.6786ZM27.409 35.6945L31.0973 29.1605L46.5568 54.7145C44.4763 55.9783 42.7007 57.6952 41.3635 59.7253L27.409 35.6945Z" fill="black"/>
</svg>
