<svg width="93" height="93" viewBox="0 0 93 93" fill="none" xmlns="http://www.w3.org/2000/svg">
<path d="M62.6586 72.0254C63.2939 72.0254 63.8089 71.5104 63.8089 70.875V66.9564C69.4362 66.3788 73.8412 61.6114 73.8412 55.8332C73.8412 48.3696 63.8876 38.5261 63.4641 38.1104C63.0173 37.6724 62.3009 37.6716 61.8533 38.1112C61.4297 38.526 51.4771 48.3696 51.4771 55.8332C51.4771 61.6114 55.881 66.3789 61.5085 66.9563V70.875C61.5085 71.5104 62.0227 72.0254 62.6588 72.0254L62.6586 72.0254ZM53.7767 55.8331C53.7767 50.4584 60.333 43.0439 62.6577 40.5827C64.9832 43.0429 71.5404 50.4584 71.5404 55.8331C71.5404 60.7306 67.556 64.7158 62.6577 64.7158C57.7619 64.7158 53.7767 60.7314 53.7767 55.8331Z" fill="#037847"/>
<path d="M45.9997 48.228C46.635 48.228 47.1501 47.713 47.1501 47.0776V43.159C52.7773 42.5814 57.1823 37.814 57.1823 32.0366C57.1823 24.573 47.2287 14.7295 46.8053 14.3138C46.3584 13.8759 45.6421 13.8759 45.1944 14.3138C44.7709 14.7302 34.8174 24.573 34.8174 32.0375C34.8174 37.8149 39.2222 42.5823 44.8496 43.1598V47.0785C44.8496 47.7138 45.3646 48.228 46 48.228L45.9997 48.228ZM37.1171 32.0374C37.1171 26.6627 43.6734 19.2482 45.9997 16.7869C48.3252 19.2471 54.8824 26.6627 54.8824 32.0374C54.8824 36.9348 50.898 40.9192 45.9997 40.9192C41.1023 40.9184 37.1171 36.9348 37.1171 32.0374Z" fill="#037847"/>
<path d="M29.341 72.0251C29.9764 72.0251 30.4914 71.5101 30.4914 70.8747V66.956C36.1186 66.3785 40.5228 61.6111 40.5228 55.8329C40.5228 48.3693 30.57 38.5258 30.1466 38.1109C29.6997 37.6721 28.9834 37.6721 28.5358 38.1101C28.1122 38.5257 18.1587 48.3685 18.1587 55.8329C18.1587 61.6111 22.5635 66.3786 28.191 66.9561V70.8747C28.1918 71.5101 28.706 72.0251 29.3413 72.0251L29.341 72.0251ZM20.4592 55.8328C20.4592 50.4581 27.0172 43.0428 29.3418 40.5824C31.6673 43.0411 38.2229 50.4518 38.2229 55.8328C38.2229 60.7302 34.2385 64.7155 29.3418 64.7155C24.4436 64.7155 20.4592 60.7311 20.4592 55.8328Z" fill="#037847"/>
<path d="M8.80909 72.9268C9.03049 72.9268 9.25511 72.8627 9.45164 72.7295C9.97868 72.3741 10.1167 71.6594 9.76128 71.1323C4.87926 63.9061 2.2985 55.4584 2.2985 46.7006C2.2985 22.6036 21.9024 2.99991 45.9991 2.99991C55.7394 2.99991 65.1962 6.25919 72.8438 12.2155L66.4183 12.2291C65.783 12.2299 65.2696 12.7465 65.2704 13.381C65.2712 14.0156 65.7862 14.529 66.4207 14.529H66.4231L76.0262 14.5089C76.6599 14.5081 77.1725 13.9947 77.1741 13.361L77.1934 3.72117C77.1942 3.08583 76.6816 2.57002 76.0454 2.56922H76.043C75.4085 2.56922 74.8943 3.08262 74.8927 3.71715L74.8774 10.9072C66.7207 4.32214 56.5201 0.700195 45.9997 0.700195C20.6357 0.700195 -0.000976562 21.3348 -0.000976562 46.7009C-0.000976562 55.9198 2.71594 64.8135 7.85487 72.4223C8.07707 72.7504 8.43967 72.9285 8.80947 72.9285L8.80909 72.9268Z" fill="#037847"/>
<path d="M82.5482 20.671C82.0211 21.0263 81.8832 21.7411 82.2386 22.2681C87.1206 29.4943 89.7013 37.942 89.7013 46.6998C89.7013 70.7968 70.0974 90.4005 46.0007 90.4005C35.8745 90.4005 26.1472 86.9127 18.3571 80.5416L25.0153 80.5271C25.6506 80.5263 26.164 80.0097 26.1632 79.3752C26.1624 78.7398 25.6498 78.2289 25.0113 78.2273L15.4082 78.2473C14.7745 78.2481 14.2619 78.7615 14.2603 79.3952L14.2402 89.0351C14.2394 89.6704 14.752 90.1862 15.3882 90.187H15.3906C16.0251 90.187 16.5393 89.6736 16.5409 89.0391L16.5562 82.0375C24.8123 88.9259 35.191 92.7002 46.0007 92.7002C71.3648 92.7002 92.0014 72.0656 92.0014 46.6995C92.0014 37.4807 89.2845 28.587 84.1456 20.9781C83.7894 20.4535 83.0739 20.3131 82.5484 20.6693L82.5482 20.671Z" fill="#037847"/>
</svg>
