<svg width="65" height="65" viewBox="0 0 65 65" fill="none" xmlns="http://www.w3.org/2000/svg">
<path d="M32.2495 64.6001C14.605 64.6001 0.249512 50.2446 0.249512 32.6001C0.249512 14.9556 14.605 0.600098 32.2495 0.600098C49.894 0.600098 64.2495 14.9556 64.2495 32.6001C64.2495 50.2446 49.894 64.6001 32.2495 64.6001ZM32.2495 1.68505C15.2036 1.68505 1.33446 15.5542 1.33446 32.6001C1.33446 49.646 15.2036 63.5151 32.2495 63.5151C49.2955 63.5151 63.1646 49.646 63.1646 32.6001C63.1646 15.5542 49.2955 1.68505 32.2495 1.68505Z" fill="#037847"/>
<path d="M18.4621 17.0005C16.8502 17.0005 15.5369 18.3134 15.5369 19.9253V26.2629C15.5352 26.3935 15.5859 26.5193 15.6774 26.6121C15.7689 26.705 15.894 26.7573 16.0246 26.7573C16.1552 26.7573 16.2803 26.705 16.3718 26.6121C16.4632 26.5193 16.5139 26.3935 16.5122 26.2629V23.8254H50.6372V40.4004C50.6372 41.4889 49.7759 42.3503 48.6871 42.3503H25.7745C25.644 42.3486 25.5181 42.3989 25.4253 42.4907C25.3325 42.5822 25.2801 42.7073 25.2801 42.8379C25.2801 42.9681 25.3325 43.0933 25.4253 43.1851C25.5181 43.2766 25.644 43.3272 25.7745 43.3252H48.6871C50.2993 43.3252 51.6123 42.0123 51.6123 40.4004V19.9253C51.6123 18.3135 50.2993 17.0005 48.6871 17.0005L18.4621 17.0005ZM18.4621 17.9754H48.6871C49.776 17.9754 50.6373 18.8368 50.6373 19.9252V22.8504H16.5123V19.9252C16.5123 18.8367 17.3733 17.9754 18.4621 17.9754ZM16.0246 29.6754C14.5552 29.6754 13.4759 29.9434 12.7339 30.4677C11.9922 30.9921 11.6372 31.7946 11.6372 32.6006V35.7083C10.5028 36.1112 9.68701 37.1804 9.68701 38.4505V45.2757C9.68701 46.8875 11 48.2005 12.6122 48.2005H19.437C21.0493 48.2005 22.3622 46.8875 22.3622 45.2757V38.4505C22.3622 37.1804 21.5464 36.1113 20.412 35.7083V32.6006C20.412 31.7946 20.057 30.9921 19.3153 30.4677C18.5733 29.9434 17.494 29.6754 16.0246 29.6754ZM16.0246 30.6507C17.3682 30.6507 18.2465 30.903 18.7515 31.2601C19.2565 31.6168 19.437 32.0561 19.437 32.6005V35.5257H12.6122V32.6005C12.6122 32.0561 12.7928 31.6167 13.2977 31.2601C13.8027 30.903 14.6811 30.6507 16.0246 30.6507ZM12.6122 36.5006H19.437C20.5259 36.5006 21.3872 37.3619 21.3872 38.4504V45.2756C21.3872 46.3641 20.5258 47.2254 19.437 47.2254H12.6122C11.5233 47.2254 10.662 46.3641 10.662 45.2756V38.4504C10.662 37.3619 11.5234 36.5006 12.6122 36.5006ZM16.0246 39.913C14.9534 39.913 14.0748 40.7917 14.0748 41.8628C14.0748 42.934 14.9535 43.813 16.0246 43.813C17.0957 43.813 17.9744 42.934 17.9744 41.8628C17.9744 40.7916 17.0957 39.913 16.0246 39.913ZM16.0246 40.8879C16.5687 40.8879 16.9995 41.3188 16.9995 41.8628C16.9995 42.4073 16.5687 42.8381 16.0246 42.8381C15.4805 42.8381 15.0497 42.4073 15.0497 41.8628C15.0497 41.3188 15.4805 40.8879 16.0246 40.8879Z" fill="#037847"/>
</svg>
